<svg xmlns="http://www.w3.org/2000/svg" xmlns:xlink="http://www.w3.org/1999/xlink" width="600" height="400" viewBox="0 0 2400 1600">
<defs>
  <clipPath id="clip960">
    <rect x="0" y="0" width="2400" height="1600"></rect>
  </clipPath>
</defs>
<path clip-path="url(#clip960)" d="M0 1600 L2400 1600 L2400 0 L0 0  Z" fill="#ffffff" fill-rule="evenodd" fill-opacity="1"></path>
<defs>
  <clipPath id="clip961">
    <rect x="480" y="0" width="1681" height="1600"></rect>
  </clipPath>
</defs>
<path clip-path="url(#clip960)" d="M138.959 1486.45 L2352.76 1486.45 L2352.76 123.472 L138.959 123.472  Z" fill="#ffffff" fill-rule="evenodd" fill-opacity="1"></path>
<defs>
  <clipPath id="clip962">
    <rect x="138" y="123" width="2215" height="1364"></rect>
  </clipPath>
</defs>
<polyline clip-path="url(#clip962)" style="stroke:#000000; stroke-linecap:round; stroke-linejoin:round; stroke-width:2; stroke-opacity:0.1; fill:none" points="180.518,1486.45 180.518,123.472 "></polyline>
<polyline clip-path="url(#clip962)" style="stroke:#000000; stroke-linecap:round; stroke-linejoin:round; stroke-width:2; stroke-opacity:0.1; fill:none" points="707.914,1486.45 707.914,123.472 "></polyline>
<polyline clip-path="url(#clip962)" style="stroke:#000000; stroke-linecap:round; stroke-linejoin:round; stroke-width:2; stroke-opacity:0.1; fill:none" points="1235.31,1486.45 1235.31,123.472 "></polyline>
<polyline clip-path="url(#clip962)" style="stroke:#000000; stroke-linecap:round; stroke-linejoin:round; stroke-width:2; stroke-opacity:0.1; fill:none" points="1762.71,1486.45 1762.71,123.472 "></polyline>
<polyline clip-path="url(#clip962)" style="stroke:#000000; stroke-linecap:round; stroke-linejoin:round; stroke-width:2; stroke-opacity:0.1; fill:none" points="2290.1,1486.45 2290.1,123.472 "></polyline>
<polyline clip-path="url(#clip962)" style="stroke:#000000; stroke-linecap:round; stroke-linejoin:round; stroke-width:2; stroke-opacity:0.1; fill:none" points="138.959,1460.95 2352.76,1460.95 "></polyline>
<polyline clip-path="url(#clip962)" style="stroke:#000000; stroke-linecap:round; stroke-linejoin:round; stroke-width:2; stroke-opacity:0.1; fill:none" points="138.959,1054.67 2352.76,1054.67 "></polyline>
<polyline clip-path="url(#clip962)" style="stroke:#000000; stroke-linecap:round; stroke-linejoin:round; stroke-width:2; stroke-opacity:0.1; fill:none" points="138.959,648.395 2352.76,648.395 "></polyline>
<polyline clip-path="url(#clip962)" style="stroke:#000000; stroke-linecap:round; stroke-linejoin:round; stroke-width:2; stroke-opacity:0.1; fill:none" points="138.959,242.118 2352.76,242.118 "></polyline>
<polyline clip-path="url(#clip960)" style="stroke:#000000; stroke-linecap:round; stroke-linejoin:round; stroke-width:4; stroke-opacity:1; fill:none" points="138.959,1486.45 2352.76,1486.45 "></polyline>
<polyline clip-path="url(#clip960)" style="stroke:#000000; stroke-linecap:round; stroke-linejoin:round; stroke-width:4; stroke-opacity:1; fill:none" points="180.518,1486.45 180.518,1467.55 "></polyline>
<polyline clip-path="url(#clip960)" style="stroke:#000000; stroke-linecap:round; stroke-linejoin:round; stroke-width:4; stroke-opacity:1; fill:none" points="707.914,1486.45 707.914,1467.55 "></polyline>
<polyline clip-path="url(#clip960)" style="stroke:#000000; stroke-linecap:round; stroke-linejoin:round; stroke-width:4; stroke-opacity:1; fill:none" points="1235.31,1486.45 1235.31,1467.55 "></polyline>
<polyline clip-path="url(#clip960)" style="stroke:#000000; stroke-linecap:round; stroke-linejoin:round; stroke-width:4; stroke-opacity:1; fill:none" points="1762.71,1486.45 1762.71,1467.55 "></polyline>
<polyline clip-path="url(#clip960)" style="stroke:#000000; stroke-linecap:round; stroke-linejoin:round; stroke-width:4; stroke-opacity:1; fill:none" points="2290.1,1486.45 2290.1,1467.55 "></polyline>
<path clip-path="url(#clip960)" d="M180.518 1517.37 Q176.907 1517.37 175.078 1520.93 Q173.273 1524.47 173.273 1531.6 Q173.273 1538.71 175.078 1542.27 Q176.907 1545.82 180.518 1545.82 Q184.152 1545.82 185.958 1542.27 Q187.787 1538.71 187.787 1531.6 Q187.787 1524.47 185.958 1520.93 Q184.152 1517.37 180.518 1517.37 M180.518 1513.66 Q186.328 1513.66 189.384 1518.27 Q192.463 1522.85 192.463 1531.6 Q192.463 1540.33 189.384 1544.94 Q186.328 1549.52 180.518 1549.52 Q174.708 1549.52 171.629 1544.94 Q168.574 1540.33 168.574 1531.6 Q168.574 1522.85 171.629 1518.27 Q174.708 1513.66 180.518 1513.66 Z" fill="#000000" fill-rule="nonzero" fill-opacity="1"></path><path clip-path="url(#clip960)" d="M687.185 1544.91 L703.504 1544.91 L703.504 1548.85 L681.56 1548.85 L681.56 1544.91 Q684.222 1542.16 688.805 1537.53 Q693.412 1532.88 694.592 1531.53 Q696.838 1529.01 697.717 1527.27 Q698.62 1525.51 698.62 1523.82 Q698.62 1521.07 696.676 1519.33 Q694.754 1517.6 691.653 1517.6 Q689.453 1517.6 687 1518.36 Q684.569 1519.13 681.791 1520.68 L681.791 1515.95 Q684.616 1514.82 687.069 1514.24 Q689.523 1513.66 691.56 1513.66 Q696.93 1513.66 700.125 1516.35 Q703.319 1519.03 703.319 1523.52 Q703.319 1525.65 702.509 1527.57 Q701.722 1529.47 699.615 1532.07 Q699.037 1532.74 695.935 1535.95 Q692.833 1539.15 687.185 1544.91 Z" fill="#000000" fill-rule="nonzero" fill-opacity="1"></path><path clip-path="url(#clip960)" d="M713.365 1514.29 L731.722 1514.29 L731.722 1518.22 L717.648 1518.22 L717.648 1526.7 Q718.666 1526.35 719.685 1526.19 Q720.703 1526 721.722 1526 Q727.509 1526 730.888 1529.17 Q734.268 1532.34 734.268 1537.76 Q734.268 1543.34 730.796 1546.44 Q727.324 1549.52 721.004 1549.52 Q718.828 1549.52 716.56 1549.15 Q714.314 1548.78 711.907 1548.04 L711.907 1543.34 Q713.99 1544.47 716.213 1545.03 Q718.435 1545.58 720.912 1545.58 Q724.916 1545.58 727.254 1543.48 Q729.592 1541.37 729.592 1537.76 Q729.592 1534.15 727.254 1532.04 Q724.916 1529.94 720.912 1529.94 Q719.037 1529.94 717.162 1530.35 Q715.31 1530.77 713.365 1531.65 L713.365 1514.29 Z" fill="#000000" fill-rule="nonzero" fill-opacity="1"></path><path clip-path="url(#clip960)" d="M1210.01 1514.29 L1228.37 1514.29 L1228.37 1518.22 L1214.29 1518.22 L1214.29 1526.7 Q1215.31 1526.35 1216.33 1526.19 Q1217.35 1526 1218.37 1526 Q1224.15 1526 1227.53 1529.17 Q1230.91 1532.34 1230.91 1537.76 Q1230.91 1543.34 1227.44 1546.44 Q1223.97 1549.52 1217.65 1549.52 Q1215.47 1549.52 1213.2 1549.15 Q1210.96 1548.78 1208.55 1548.04 L1208.55 1543.34 Q1210.63 1544.47 1212.86 1545.03 Q1215.08 1545.58 1217.56 1545.58 Q1221.56 1545.58 1223.9 1543.48 Q1226.24 1541.37 1226.24 1537.76 Q1226.24 1534.15 1223.9 1532.04 Q1221.56 1529.94 1217.56 1529.94 Q1215.68 1529.94 1213.81 1530.35 Q1211.95 1530.77 1210.01 1531.65 L1210.01 1514.29 Z" fill="#000000" fill-rule="nonzero" fill-opacity="1"></path><path clip-path="url(#clip960)" d="M1250.12 1517.37 Q1246.51 1517.37 1244.68 1520.93 Q1242.88 1524.47 1242.88 1531.6 Q1242.88 1538.71 1244.68 1542.27 Q1246.51 1545.82 1250.12 1545.82 Q1253.76 1545.82 1255.56 1542.27 Q1257.39 1538.71 1257.39 1531.6 Q1257.39 1524.47 1255.56 1520.93 Q1253.76 1517.37 1250.12 1517.37 M1250.12 1513.66 Q1255.93 1513.66 1258.99 1518.27 Q1262.07 1522.85 1262.07 1531.6 Q1262.07 1540.33 1258.99 1544.94 Q1255.93 1549.52 1250.12 1549.52 Q1244.31 1549.52 1241.24 1544.94 Q1238.18 1540.33 1238.18 1531.6 Q1238.18 1522.85 1241.24 1518.27 Q1244.31 1513.66 1250.12 1513.66 Z" fill="#000000" fill-rule="nonzero" fill-opacity="1"></path><path clip-path="url(#clip960)" d="M1736.56 1514.29 L1758.78 1514.29 L1758.78 1516.28 L1746.24 1548.85 L1741.35 1548.85 L1753.16 1518.22 L1736.56 1518.22 L1736.56 1514.29 Z" fill="#000000" fill-rule="nonzero" fill-opacity="1"></path><path clip-path="url(#clip960)" d="M1767.95 1514.29 L1786.3 1514.29 L1786.3 1518.22 L1772.23 1518.22 L1772.23 1526.7 Q1773.25 1526.35 1774.27 1526.19 Q1775.29 1526 1776.3 1526 Q1782.09 1526 1785.47 1529.17 Q1788.85 1532.34 1788.85 1537.76 Q1788.85 1543.34 1785.38 1546.44 Q1781.91 1549.52 1775.59 1549.52 Q1773.41 1549.52 1771.14 1549.15 Q1768.9 1548.78 1766.49 1548.04 L1766.49 1543.34 Q1768.57 1544.47 1770.8 1545.03 Q1773.02 1545.58 1775.49 1545.58 Q1779.5 1545.58 1781.84 1543.48 Q1784.18 1541.37 1784.18 1537.76 Q1784.18 1534.15 1781.84 1532.04 Q1779.5 1529.94 1775.49 1529.94 Q1773.62 1529.94 1771.74 1530.35 Q1769.89 1530.77 1767.95 1531.65 L1767.95 1514.29 Z" fill="#000000" fill-rule="nonzero" fill-opacity="1"></path><path clip-path="url(#clip960)" d="M2249.71 1544.91 L2257.35 1544.91 L2257.35 1518.55 L2249.04 1520.21 L2249.04 1515.95 L2257.3 1514.29 L2261.98 1514.29 L2261.98 1544.91 L2269.62 1544.91 L2269.62 1548.85 L2249.71 1548.85 L2249.71 1544.91 Z" fill="#000000" fill-rule="nonzero" fill-opacity="1"></path><path clip-path="url(#clip960)" d="M2289.06 1517.37 Q2285.45 1517.37 2283.62 1520.93 Q2281.81 1524.47 2281.81 1531.6 Q2281.81 1538.71 2283.62 1542.27 Q2285.45 1545.82 2289.06 1545.82 Q2292.69 1545.82 2294.5 1542.27 Q2296.33 1538.71 2296.33 1531.6 Q2296.33 1524.47 2294.5 1520.93 Q2292.69 1517.37 2289.06 1517.37 M2289.06 1513.66 Q2294.87 1513.66 2297.93 1518.27 Q2301 1522.85 2301 1531.6 Q2301 1540.33 2297.93 1544.94 Q2294.87 1549.52 2289.06 1549.52 Q2283.25 1549.52 2280.17 1544.94 Q2277.12 1540.33 2277.12 1531.6 Q2277.12 1522.85 2280.17 1518.27 Q2283.25 1513.66 2289.06 1513.66 Z" fill="#000000" fill-rule="nonzero" fill-opacity="1"></path><path clip-path="url(#clip960)" d="M2319.22 1517.37 Q2315.61 1517.37 2313.78 1520.93 Q2311.98 1524.47 2311.98 1531.6 Q2311.98 1538.71 2313.78 1542.27 Q2315.61 1545.82 2319.22 1545.82 Q2322.86 1545.82 2324.66 1542.27 Q2326.49 1538.71 2326.49 1531.6 Q2326.49 1524.47 2324.66 1520.93 Q2322.86 1517.37 2319.22 1517.37 M2319.22 1513.66 Q2325.03 1513.66 2328.09 1518.27 Q2331.17 1522.85 2331.17 1531.6 Q2331.17 1540.33 2328.09 1544.94 Q2325.03 1549.52 2319.22 1549.52 Q2313.41 1549.52 2310.33 1544.94 Q2307.28 1540.33 2307.28 1531.6 Q2307.28 1522.85 2310.33 1518.27 Q2313.41 1513.66 2319.22 1513.66 Z" fill="#000000" fill-rule="nonzero" fill-opacity="1"></path><polyline clip-path="url(#clip960)" style="stroke:#000000; stroke-linecap:round; stroke-linejoin:round; stroke-width:4; stroke-opacity:1; fill:none" points="138.959,1486.45 138.959,123.472 "></polyline>
<polyline clip-path="url(#clip960)" style="stroke:#000000; stroke-linecap:round; stroke-linejoin:round; stroke-width:4; stroke-opacity:1; fill:none" points="138.959,1460.95 157.857,1460.95 "></polyline>
<polyline clip-path="url(#clip960)" style="stroke:#000000; stroke-linecap:round; stroke-linejoin:round; stroke-width:4; stroke-opacity:1; fill:none" points="138.959,1054.67 157.857,1054.67 "></polyline>
<polyline clip-path="url(#clip960)" style="stroke:#000000; stroke-linecap:round; stroke-linejoin:round; stroke-width:4; stroke-opacity:1; fill:none" points="138.959,648.395 157.857,648.395 "></polyline>
<polyline clip-path="url(#clip960)" style="stroke:#000000; stroke-linecap:round; stroke-linejoin:round; stroke-width:4; stroke-opacity:1; fill:none" points="138.959,242.118 157.857,242.118 "></polyline>
<path clip-path="url(#clip960)" d="M91.0151 1446.75 Q87.404 1446.75 85.5753 1450.31 Q83.7697 1453.85 83.7697 1460.98 Q83.7697 1468.09 85.5753 1471.65 Q87.404 1475.2 91.0151 1475.2 Q94.6493 1475.2 96.4548 1471.65 Q98.2835 1468.09 98.2835 1460.98 Q98.2835 1453.85 96.4548 1450.31 Q94.6493 1446.75 91.0151 1446.75 M91.0151 1443.04 Q96.8252 1443.04 99.8808 1447.65 Q102.959 1452.23 102.959 1460.98 Q102.959 1469.71 99.8808 1474.32 Q96.8252 1478.9 91.0151 1478.9 Q85.2049 1478.9 82.1262 1474.32 Q79.0707 1469.71 79.0707 1460.98 Q79.0707 1452.23 82.1262 1447.65 Q85.2049 1443.04 91.0151 1443.04 Z" fill="#000000" fill-rule="nonzero" fill-opacity="1"></path><path clip-path="url(#clip960)" d="M82.0568 1037.39 L100.413 1037.39 L100.413 1041.33 L86.3392 1041.33 L86.3392 1049.8 Q87.3577 1049.45 88.3762 1049.29 Q89.3947 1049.1 90.4132 1049.1 Q96.2002 1049.1 99.5798 1052.28 Q102.959 1055.45 102.959 1060.86 Q102.959 1066.44 99.4872 1069.54 Q96.015 1072.62 89.6956 1072.62 Q87.5197 1072.62 85.2512 1072.25 Q83.0058 1071.88 80.5984 1071.14 L80.5984 1066.44 Q82.6818 1067.58 84.904 1068.13 Q87.1262 1068.69 89.603 1068.69 Q93.6076 1068.69 95.9456 1066.58 Q98.2835 1064.47 98.2835 1060.86 Q98.2835 1057.25 95.9456 1055.15 Q93.6076 1053.04 89.603 1053.04 Q87.728 1053.04 85.8531 1053.46 Q84.0012 1053.87 82.0568 1054.75 L82.0568 1037.39 Z" fill="#000000" fill-rule="nonzero" fill-opacity="1"></path><path clip-path="url(#clip960)" d="M51.6634 661.74 L59.3023 661.74 L59.3023 635.374 L50.9921 637.041 L50.9921 632.782 L59.256 631.115 L63.9319 631.115 L63.9319 661.74 L71.5707 661.74 L71.5707 665.675 L51.6634 665.675 L51.6634 661.74 Z" fill="#000000" fill-rule="nonzero" fill-opacity="1"></path><path clip-path="url(#clip960)" d="M91.0151 634.194 Q87.404 634.194 85.5753 637.758 Q83.7697 641.3 83.7697 648.43 Q83.7697 655.536 85.5753 659.101 Q87.404 662.643 91.0151 662.643 Q94.6493 662.643 96.4548 659.101 Q98.2835 655.536 98.2835 648.43 Q98.2835 641.3 96.4548 637.758 Q94.6493 634.194 91.0151 634.194 M91.0151 630.49 Q96.8252 630.49 99.8808 635.096 Q102.959 639.68 102.959 648.43 Q102.959 657.156 99.8808 661.763 Q96.8252 666.346 91.0151 666.346 Q85.2049 666.346 82.1262 661.763 Q79.0707 657.156 79.0707 648.43 Q79.0707 639.68 82.1262 635.096 Q85.2049 630.49 91.0151 630.49 Z" fill="#000000" fill-rule="nonzero" fill-opacity="1"></path><path clip-path="url(#clip960)" d="M52.6588 255.463 L60.2976 255.463 L60.2976 229.097 L51.9875 230.764 L51.9875 226.505 L60.2513 224.838 L64.9272 224.838 L64.9272 255.463 L72.5661 255.463 L72.5661 259.398 L52.6588 259.398 L52.6588 255.463 Z" fill="#000000" fill-rule="nonzero" fill-opacity="1"></path><path clip-path="url(#clip960)" d="M82.0568 224.838 L100.413 224.838 L100.413 228.773 L86.3392 228.773 L86.3392 237.245 Q87.3577 236.898 88.3762 236.736 Q89.3947 236.551 90.4132 236.551 Q96.2002 236.551 99.5798 239.722 Q102.959 242.894 102.959 248.31 Q102.959 253.889 99.4872 256.991 Q96.015 260.069 89.6956 260.069 Q87.5197 260.069 85.2512 259.699 Q83.0058 259.329 80.5984 258.588 L80.5984 253.889 Q82.6818 255.023 84.904 255.579 Q87.1262 256.134 89.603 256.134 Q93.6076 256.134 95.9456 254.028 Q98.2835 251.921 98.2835 248.31 Q98.2835 244.699 95.9456 242.593 Q93.6076 240.486 89.603 240.486 Q87.728 240.486 85.8531 240.903 Q84.0012 241.319 82.0568 242.199 L82.0568 224.838 Z" fill="#000000" fill-rule="nonzero" fill-opacity="1"></path><path clip-path="url(#clip960)" d="M456.579 12.096 L494.82 12.096 L494.82 18.9825 L464.762 18.9825 L464.762 36.8875 L493.564 36.8875 L493.564 43.7741 L464.762 43.7741 L464.762 65.6895 L495.549 65.6895 L495.549 72.576 L456.579 72.576 L456.579 12.096 Z" fill="#000000" fill-rule="nonzero" fill-opacity="1"></path><path clip-path="url(#clip960)" d="M546.388 27.2059 L529.982 49.2833 L547.239 72.576 L538.448 72.576 L525.242 54.752 L512.036 72.576 L503.246 72.576 L520.867 48.8377 L504.745 27.2059 L513.535 27.2059 L525.566 43.369 L537.598 27.2059 L546.388 27.2059 Z" fill="#000000" fill-rule="nonzero" fill-opacity="1"></path><path clip-path="url(#clip960)" d="M564.982 65.7705 L564.982 89.8329 L557.488 89.8329 L557.488 27.2059 L564.982 27.2059 L564.982 34.0924 Q567.331 30.0415 570.896 28.0971 Q574.501 26.1121 579.484 26.1121 Q587.748 26.1121 592.892 32.6746 Q598.078 39.2371 598.078 49.9314 Q598.078 60.6258 592.892 67.1883 Q587.748 73.7508 579.484 73.7508 Q574.501 73.7508 570.896 71.8063 Q567.331 69.8214 564.982 65.7705 M590.34 49.9314 Q590.34 41.7081 586.938 37.0496 Q583.575 32.3505 577.661 32.3505 Q571.747 32.3505 568.344 37.0496 Q564.982 41.7081 564.982 49.9314 Q564.982 58.1548 568.344 62.8538 Q571.747 67.5124 577.661 67.5124 Q583.575 67.5124 586.938 62.8538 Q590.34 58.1548 590.34 49.9314 Z" fill="#000000" fill-rule="nonzero" fill-opacity="1"></path><path clip-path="url(#clip960)" d="M628.014 32.4315 Q622.018 32.4315 618.535 37.1306 Q615.051 41.7891 615.051 49.9314 Q615.051 58.0738 618.494 62.7728 Q621.978 67.4314 628.014 67.4314 Q633.969 67.4314 637.452 62.7323 Q640.936 58.0333 640.936 49.9314 Q640.936 41.8701 637.452 37.1711 Q633.969 32.4315 628.014 32.4315 M628.014 26.1121 Q637.736 26.1121 643.286 32.4315 Q648.835 38.7509 648.835 49.9314 Q648.835 61.0714 643.286 67.4314 Q637.736 73.7508 628.014 73.7508 Q618.251 73.7508 612.701 67.4314 Q607.192 61.0714 607.192 49.9314 Q607.192 38.7509 612.701 32.4315 Q618.251 26.1121 628.014 26.1121 Z" fill="#000000" fill-rule="nonzero" fill-opacity="1"></path><path clip-path="url(#clip960)" d="M698.905 45.1919 L698.905 72.576 L691.451 72.576 L691.451 45.4349 Q691.451 38.994 688.939 35.7938 Q686.428 32.5936 681.405 32.5936 Q675.369 32.5936 671.885 36.4419 Q668.401 40.2903 668.401 46.9338 L668.401 72.576 L660.907 72.576 L660.907 27.2059 L668.401 27.2059 L668.401 34.2544 Q671.075 30.163 674.68 28.1376 Q678.326 26.1121 683.066 26.1121 Q690.884 26.1121 694.894 30.9732 Q698.905 35.7938 698.905 45.1919 Z" fill="#000000" fill-rule="nonzero" fill-opacity="1"></path><path clip-path="url(#clip960)" d="M752.579 48.0275 L752.579 51.6733 L718.308 51.6733 Q718.795 59.3701 722.926 63.421 Q727.099 67.4314 734.512 67.4314 Q738.806 67.4314 742.816 66.3781 Q746.867 65.3249 750.837 63.2184 L750.837 70.267 Q746.827 71.9684 742.614 72.8596 Q738.401 73.7508 734.066 73.7508 Q723.21 73.7508 716.85 67.4314 Q710.531 61.1119 710.531 50.3365 Q710.531 39.1965 716.526 32.6746 Q722.562 26.1121 732.77 26.1121 Q741.925 26.1121 747.232 32.0264 Q752.579 37.9003 752.579 48.0275 M745.125 45.84 Q745.044 39.7232 741.682 36.0774 Q738.36 32.4315 732.851 32.4315 Q726.613 32.4315 722.845 35.9558 Q719.119 39.4801 718.551 45.8805 L745.125 45.84 Z" fill="#000000" fill-rule="nonzero" fill-opacity="1"></path><path clip-path="url(#clip960)" d="M802.527 45.1919 L802.527 72.576 L795.073 72.576 L795.073 45.4349 Q795.073 38.994 792.561 35.7938 Q790.05 32.5936 785.027 32.5936 Q778.991 32.5936 775.507 36.4419 Q772.023 40.2903 772.023 46.9338 L772.023 72.576 L764.529 72.576 L764.529 27.2059 L772.023 27.2059 L772.023 34.2544 Q774.697 30.163 778.302 28.1376 Q781.948 26.1121 786.688 26.1121 Q794.506 26.1121 798.516 30.9732 Q802.527 35.7938 802.527 45.1919 Z" fill="#000000" fill-rule="nonzero" fill-opacity="1"></path><path clip-path="url(#clip960)" d="M824.766 14.324 L824.766 27.2059 L840.119 27.2059 L840.119 32.9987 L824.766 32.9987 L824.766 57.6282 Q824.766 63.1779 826.265 64.7578 Q827.804 66.3376 832.463 66.3376 L840.119 66.3376 L840.119 72.576 L832.463 72.576 Q823.834 72.576 820.553 69.3758 Q817.272 66.1351 817.272 57.6282 L817.272 32.9987 L811.803 32.9987 L811.803 27.2059 L817.272 27.2059 L817.272 14.324 L824.766 14.324 Z" fill="#000000" fill-rule="nonzero" fill-opacity="1"></path><path clip-path="url(#clip960)" d="M849.922 27.2059 L857.376 27.2059 L857.376 72.576 L849.922 72.576 L849.922 27.2059 M849.922 9.54393 L857.376 9.54393 L857.376 18.9825 L849.922 18.9825 L849.922 9.54393 Z" fill="#000000" fill-rule="nonzero" fill-opacity="1"></path><path clip-path="url(#clip960)" d="M893.591 49.7694 Q884.558 49.7694 881.074 51.8354 Q877.59 53.9013 877.59 58.8839 Q877.59 62.8538 880.183 65.2034 Q882.816 67.5124 887.312 67.5124 Q893.51 67.5124 897.237 63.1374 Q901.004 58.7219 901.004 51.4303 L901.004 49.7694 L893.591 49.7694 M908.458 46.6907 L908.458 72.576 L901.004 72.576 L901.004 65.6895 Q898.452 69.8214 894.644 71.8063 Q890.836 73.7508 885.327 73.7508 Q878.36 73.7508 874.228 69.8619 Q870.136 65.9325 870.136 59.3701 Q870.136 51.7138 875.24 47.825 Q880.385 43.9361 890.553 43.9361 L901.004 43.9361 L901.004 43.2069 Q901.004 38.0623 897.601 35.2672 Q894.239 32.4315 888.122 32.4315 Q884.233 32.4315 880.547 33.3632 Q876.861 34.295 873.458 36.1584 L873.458 29.2718 Q877.549 27.692 881.398 26.9223 Q885.246 26.1121 888.892 26.1121 Q898.736 26.1121 903.597 31.2163 Q908.458 36.3204 908.458 46.6907 Z" fill="#000000" fill-rule="nonzero" fill-opacity="1"></path><path clip-path="url(#clip960)" d="M923.811 9.54393 L931.264 9.54393 L931.264 72.576 L923.811 72.576 L923.811 9.54393 Z" fill="#000000" fill-rule="nonzero" fill-opacity="1"></path><path clip-path="url(#clip960)" d="M990.813 32.4315 Q984.817 32.4315 981.334 37.1306 Q977.85 41.7891 977.85 49.9314 Q977.85 58.0738 981.293 62.7728 Q984.777 67.4314 990.813 67.4314 Q996.768 67.4314 1000.25 62.7323 Q1003.74 58.0333 1003.74 49.9314 Q1003.74 41.8701 1000.25 37.1711 Q996.768 32.4315 990.813 32.4315 M990.813 26.1121 Q1000.53 26.1121 1006.08 32.4315 Q1011.63 38.7509 1011.63 49.9314 Q1011.63 61.0714 1006.08 67.4314 Q1000.53 73.7508 990.813 73.7508 Q981.05 73.7508 975.5 67.4314 Q969.991 61.0714 969.991 49.9314 Q969.991 38.7509 975.5 32.4315 Q981.05 26.1121 990.813 26.1121 Z" fill="#000000" fill-rule="nonzero" fill-opacity="1"></path><path clip-path="url(#clip960)" d="M1046.96 9.54393 L1046.96 15.7418 L1039.83 15.7418 Q1035.82 15.7418 1034.24 17.3622 Q1032.7 18.9825 1032.7 23.1955 L1032.7 27.2059 L1044.97 27.2059 L1044.97 32.9987 L1032.7 32.9987 L1032.7 72.576 L1025.2 72.576 L1025.2 32.9987 L1018.08 32.9987 L1018.08 27.2059 L1025.2 27.2059 L1025.2 24.0462 Q1025.2 16.471 1028.73 13.0277 Q1032.25 9.54393 1039.91 9.54393 L1046.96 9.54393 Z" fill="#000000" fill-rule="nonzero" fill-opacity="1"></path><path clip-path="url(#clip960)" d="M1108.57 44.2197 Q1111.21 45.1109 1113.68 48.0275 Q1116.19 50.9442 1118.7 56.0483 L1127 72.576 L1118.21 72.576 L1110.48 57.061 Q1107.48 50.9847 1104.64 48.9997 Q1101.85 47.0148 1096.99 47.0148 L1088.07 47.0148 L1088.07 72.576 L1079.89 72.576 L1079.89 12.096 L1098.36 12.096 Q1108.73 12.096 1113.84 16.4305 Q1118.94 20.7649 1118.94 29.5149 Q1118.94 35.2267 1116.27 38.994 Q1113.64 42.7613 1108.57 44.2197 M1088.07 18.8205 L1088.07 40.2903 L1098.36 40.2903 Q1104.28 40.2903 1107.28 37.5762 Q1110.31 34.8216 1110.31 29.5149 Q1110.31 24.2082 1107.28 21.5346 Q1104.28 18.8205 1098.36 18.8205 L1088.07 18.8205 Z" fill="#000000" fill-rule="nonzero" fill-opacity="1"></path><path clip-path="url(#clip960)" d="M1156.01 49.7694 Q1146.98 49.7694 1143.49 51.8354 Q1140.01 53.9013 1140.01 58.8839 Q1140.01 62.8538 1142.6 65.2034 Q1145.23 67.5124 1149.73 67.5124 Q1155.93 67.5124 1159.65 63.1374 Q1163.42 58.7219 1163.42 51.4303 L1163.42 49.7694 L1156.01 49.7694 M1170.88 46.6907 L1170.88 72.576 L1163.42 72.576 L1163.42 65.6895 Q1160.87 69.8214 1157.06 71.8063 Q1153.25 73.7508 1147.74 73.7508 Q1140.78 73.7508 1136.65 69.8619 Q1132.55 65.9325 1132.55 59.3701 Q1132.55 51.7138 1137.66 47.825 Q1142.8 43.9361 1152.97 43.9361 L1163.42 43.9361 L1163.42 43.2069 Q1163.42 38.0623 1160.02 35.2672 Q1156.66 32.4315 1150.54 32.4315 Q1146.65 32.4315 1142.96 33.3632 Q1139.28 34.295 1135.88 36.1584 L1135.88 29.2718 Q1139.97 27.692 1143.82 26.9223 Q1147.66 26.1121 1151.31 26.1121 Q1161.15 26.1121 1166.01 31.2163 Q1170.88 36.3204 1170.88 46.6907 Z" fill="#000000" fill-rule="nonzero" fill-opacity="1"></path><path clip-path="url(#clip960)" d="M1223.94 45.1919 L1223.94 72.576 L1216.49 72.576 L1216.49 45.4349 Q1216.49 38.994 1213.98 35.7938 Q1211.47 32.5936 1206.44 32.5936 Q1200.41 32.5936 1196.92 36.4419 Q1193.44 40.2903 1193.44 46.9338 L1193.44 72.576 L1185.94 72.576 L1185.94 27.2059 L1193.44 27.2059 L1193.44 34.2544 Q1196.11 30.163 1199.72 28.1376 Q1203.36 26.1121 1208.1 26.1121 Q1215.92 26.1121 1219.93 30.9732 Q1223.94 35.7938 1223.94 45.1919 Z" fill="#000000" fill-rule="nonzero" fill-opacity="1"></path><path clip-path="url(#clip960)" d="M1268.66 34.0924 L1268.66 9.54393 L1276.12 9.54393 L1276.12 72.576 L1268.66 72.576 L1268.66 65.7705 Q1266.31 69.8214 1262.71 71.8063 Q1259.14 73.7508 1254.12 73.7508 Q1245.9 73.7508 1240.71 67.1883 Q1235.57 60.6258 1235.57 49.9314 Q1235.57 39.2371 1240.71 32.6746 Q1245.9 26.1121 1254.12 26.1121 Q1259.14 26.1121 1262.71 28.0971 Q1266.31 30.0415 1268.66 34.0924 M1243.27 49.9314 Q1243.27 58.1548 1246.63 62.8538 Q1250.03 67.5124 1255.94 67.5124 Q1261.86 67.5124 1265.26 62.8538 Q1268.66 58.1548 1268.66 49.9314 Q1268.66 41.7081 1265.26 37.0496 Q1261.86 32.3505 1255.94 32.3505 Q1250.03 32.3505 1246.63 37.0496 Q1243.27 41.7081 1243.27 49.9314 Z" fill="#000000" fill-rule="nonzero" fill-opacity="1"></path><path clip-path="url(#clip960)" d="M1309.05 32.4315 Q1303.06 32.4315 1299.57 37.1306 Q1296.09 41.7891 1296.09 49.9314 Q1296.09 58.0738 1299.53 62.7728 Q1303.02 67.4314 1309.05 67.4314 Q1315.01 67.4314 1318.49 62.7323 Q1321.97 58.0333 1321.97 49.9314 Q1321.97 41.8701 1318.49 37.1711 Q1315.01 32.4315 1309.05 32.4315 M1309.05 26.1121 Q1318.77 26.1121 1324.32 32.4315 Q1329.87 38.7509 1329.87 49.9314 Q1329.87 61.0714 1324.32 67.4314 Q1318.77 73.7508 1309.05 73.7508 Q1299.29 73.7508 1293.74 67.4314 Q1288.23 61.0714 1288.23 49.9314 Q1288.23 38.7509 1293.74 32.4315 Q1299.29 26.1121 1309.05 26.1121 Z" fill="#000000" fill-rule="nonzero" fill-opacity="1"></path><path clip-path="url(#clip960)" d="M1377.55 35.9153 Q1380.35 30.8922 1384.24 28.5022 Q1388.13 26.1121 1393.39 26.1121 Q1400.48 26.1121 1404.33 31.0947 Q1408.18 36.0368 1408.18 45.1919 L1408.18 72.576 L1400.68 72.576 L1400.68 45.4349 Q1400.68 38.913 1398.37 35.7533 Q1396.07 32.5936 1391.33 32.5936 Q1385.53 32.5936 1382.17 36.4419 Q1378.81 40.2903 1378.81 46.9338 L1378.81 72.576 L1371.31 72.576 L1371.31 45.4349 Q1371.31 38.8725 1369.01 35.7533 Q1366.7 32.5936 1361.88 32.5936 Q1356.16 32.5936 1352.8 36.4824 Q1349.44 40.3308 1349.44 46.9338 L1349.44 72.576 L1341.95 72.576 L1341.95 27.2059 L1349.44 27.2059 L1349.44 34.2544 Q1351.99 30.082 1355.56 28.0971 Q1359.12 26.1121 1364.02 26.1121 Q1368.96 26.1121 1372.41 28.6237 Q1375.89 31.1352 1377.55 35.9153 Z" fill="#000000" fill-rule="nonzero" fill-opacity="1"></path><path clip-path="url(#clip960)" d="M1449.74 12.096 L1460.76 12.096 L1487.58 62.6918 L1487.58 12.096 L1495.51 12.096 L1495.51 72.576 L1484.5 72.576 L1457.68 21.9802 L1457.68 72.576 L1449.74 72.576 L1449.74 12.096 Z" fill="#000000" fill-rule="nonzero" fill-opacity="1"></path><path clip-path="url(#clip960)" d="M1529.06 32.4315 Q1523.06 32.4315 1519.58 37.1306 Q1516.09 41.7891 1516.09 49.9314 Q1516.09 58.0738 1519.54 62.7728 Q1523.02 67.4314 1529.06 67.4314 Q1535.01 67.4314 1538.49 62.7323 Q1541.98 58.0333 1541.98 49.9314 Q1541.98 41.8701 1538.49 37.1711 Q1535.01 32.4315 1529.06 32.4315 M1529.06 26.1121 Q1538.78 26.1121 1544.33 32.4315 Q1549.88 38.7509 1549.88 49.9314 Q1549.88 61.0714 1544.33 67.4314 Q1538.78 73.7508 1529.06 73.7508 Q1519.29 73.7508 1513.74 67.4314 Q1508.23 61.0714 1508.23 49.9314 Q1508.23 38.7509 1513.74 32.4315 Q1519.29 26.1121 1529.06 26.1121 Z" fill="#000000" fill-rule="nonzero" fill-opacity="1"></path><path clip-path="url(#clip960)" d="M1588.52 34.1734 Q1587.27 33.4443 1585.77 33.1202 Q1584.31 32.7556 1582.53 32.7556 Q1576.21 32.7556 1572.81 36.8875 Q1569.44 40.9789 1569.44 48.6757 L1569.44 72.576 L1561.95 72.576 L1561.95 27.2059 L1569.44 27.2059 L1569.44 34.2544 Q1571.79 30.1225 1575.56 28.1376 Q1579.33 26.1121 1584.72 26.1121 Q1585.49 26.1121 1586.42 26.2337 Q1587.35 26.3147 1588.48 26.5172 L1588.52 34.1734 Z" fill="#000000" fill-rule="nonzero" fill-opacity="1"></path><path clip-path="url(#clip960)" d="M1630.21 35.9153 Q1633 30.8922 1636.89 28.5022 Q1640.78 26.1121 1646.05 26.1121 Q1653.14 26.1121 1656.98 31.0947 Q1660.83 36.0368 1660.83 45.1919 L1660.83 72.576 L1653.34 72.576 L1653.34 45.4349 Q1653.34 38.913 1651.03 35.7533 Q1648.72 32.5936 1643.98 32.5936 Q1638.19 32.5936 1634.83 36.4419 Q1631.46 40.2903 1631.46 46.9338 L1631.46 72.576 L1623.97 72.576 L1623.97 45.4349 Q1623.97 38.8725 1621.66 35.7533 Q1619.35 32.5936 1614.53 32.5936 Q1608.82 32.5936 1605.46 36.4824 Q1602.09 40.3308 1602.09 46.9338 L1602.09 72.576 L1594.6 72.576 L1594.6 27.2059 L1602.09 27.2059 L1602.09 34.2544 Q1604.65 30.082 1608.21 28.0971 Q1611.78 26.1121 1616.68 26.1121 Q1621.62 26.1121 1625.06 28.6237 Q1628.55 31.1352 1630.21 35.9153 Z" fill="#000000" fill-rule="nonzero" fill-opacity="1"></path><path clip-path="url(#clip960)" d="M1696.32 49.7694 Q1687.28 49.7694 1683.8 51.8354 Q1680.32 53.9013 1680.32 58.8839 Q1680.32 62.8538 1682.91 65.2034 Q1685.54 67.5124 1690.04 67.5124 Q1696.24 67.5124 1699.96 63.1374 Q1703.73 58.7219 1703.73 51.4303 L1703.73 49.7694 L1696.32 49.7694 M1711.19 46.6907 L1711.19 72.576 L1703.73 72.576 L1703.73 65.6895 Q1701.18 69.8214 1697.37 71.8063 Q1693.56 73.7508 1688.05 73.7508 Q1681.09 73.7508 1676.95 69.8619 Q1672.86 65.9325 1672.86 59.3701 Q1672.86 51.7138 1677.97 47.825 Q1683.11 43.9361 1693.28 43.9361 L1703.73 43.9361 L1703.73 43.2069 Q1703.73 38.0623 1700.33 35.2672 Q1696.97 32.4315 1690.85 32.4315 Q1686.96 32.4315 1683.27 33.3632 Q1679.59 34.295 1676.19 36.1584 L1676.19 29.2718 Q1680.28 27.692 1684.13 26.9223 Q1687.97 26.1121 1691.62 26.1121 Q1701.46 26.1121 1706.32 31.2163 Q1711.19 36.3204 1711.19 46.6907 Z" fill="#000000" fill-rule="nonzero" fill-opacity="1"></path><path clip-path="url(#clip960)" d="M1726.54 9.54393 L1733.99 9.54393 L1733.99 72.576 L1726.54 72.576 L1726.54 9.54393 Z" fill="#000000" fill-rule="nonzero" fill-opacity="1"></path><path clip-path="url(#clip960)" d="M1791.88 72.576 L1768.79 12.096 L1777.34 12.096 L1796.5 63.0159 L1815.7 12.096 L1824.21 12.096 L1801.16 72.576 L1791.88 72.576 Z" fill="#000000" fill-rule="nonzero" fill-opacity="1"></path><path clip-path="url(#clip960)" d="M1846.89 49.7694 Q1837.86 49.7694 1834.37 51.8354 Q1830.89 53.9013 1830.89 58.8839 Q1830.89 62.8538 1833.48 65.2034 Q1836.11 67.5124 1840.61 67.5124 Q1846.81 67.5124 1850.54 63.1374 Q1854.3 58.7219 1854.3 51.4303 L1854.3 49.7694 L1846.89 49.7694 M1861.76 46.6907 L1861.76 72.576 L1854.3 72.576 L1854.3 65.6895 Q1851.75 69.8214 1847.94 71.8063 Q1844.14 73.7508 1838.63 73.7508 Q1831.66 73.7508 1827.53 69.8619 Q1823.44 65.9325 1823.44 59.3701 Q1823.44 51.7138 1828.54 47.825 Q1833.68 43.9361 1843.85 43.9361 L1854.3 43.9361 L1854.3 43.2069 Q1854.3 38.0623 1850.9 35.2672 Q1847.54 32.4315 1841.42 32.4315 Q1837.53 32.4315 1833.85 33.3632 Q1830.16 34.295 1826.76 36.1584 L1826.76 29.2718 Q1830.85 27.692 1834.7 26.9223 Q1838.55 26.1121 1842.19 26.1121 Q1852.03 26.1121 1856.9 31.2163 Q1861.76 36.3204 1861.76 46.6907 Z" fill="#000000" fill-rule="nonzero" fill-opacity="1"></path><path clip-path="url(#clip960)" d="M1877.11 9.54393 L1884.56 9.54393 L1884.56 72.576 L1877.11 72.576 L1877.11 9.54393 Z" fill="#000000" fill-rule="nonzero" fill-opacity="1"></path><path clip-path="url(#clip960)" d="M1899.39 54.671 L1899.39 27.2059 L1906.84 27.2059 L1906.84 54.3874 Q1906.84 60.8284 1909.36 64.0691 Q1911.87 67.2693 1916.89 67.2693 Q1922.93 67.2693 1926.41 63.421 Q1929.93 59.5726 1929.93 52.9291 L1929.93 27.2059 L1937.39 27.2059 L1937.39 72.576 L1929.93 72.576 L1929.93 65.6084 Q1927.22 69.7404 1923.61 71.7658 Q1920.05 73.7508 1915.31 73.7508 Q1907.49 73.7508 1903.44 68.8897 Q1899.39 64.0286 1899.39 54.671 M1918.15 26.1121 L1918.15 26.1121 Z" fill="#000000" fill-rule="nonzero" fill-opacity="1"></path><path clip-path="url(#clip960)" d="M1991.55 48.0275 L1991.55 51.6733 L1957.28 51.6733 Q1957.76 59.3701 1961.9 63.421 Q1966.07 67.4314 1973.48 67.4314 Q1977.78 67.4314 1981.79 66.3781 Q1985.84 65.3249 1989.81 63.2184 L1989.81 70.267 Q1985.8 71.9684 1981.58 72.8596 Q1977.37 73.7508 1973.04 73.7508 Q1962.18 73.7508 1955.82 67.4314 Q1949.5 61.1119 1949.5 50.3365 Q1949.5 39.1965 1955.5 32.6746 Q1961.53 26.1121 1971.74 26.1121 Q1980.89 26.1121 1986.2 32.0264 Q1991.55 37.9003 1991.55 48.0275 M1984.09 45.84 Q1984.01 39.7232 1980.65 36.0774 Q1977.33 32.4315 1971.82 32.4315 Q1965.58 32.4315 1961.81 35.9558 Q1958.09 39.4801 1957.52 45.8805 L1984.09 45.84 Z" fill="#000000" fill-rule="nonzero" fill-opacity="1"></path><path clip-path="url(#clip960)" d="M2032.71 28.5427 L2032.71 35.5912 Q2029.55 33.9709 2026.14 33.1607 Q2022.74 32.3505 2019.09 32.3505 Q2013.54 32.3505 2010.75 34.0519 Q2007.99 35.7533 2007.99 39.156 Q2007.99 41.7486 2009.98 43.2475 Q2011.96 44.7058 2017.96 46.0426 L2020.51 46.6097 Q2028.45 48.3111 2031.77 51.4303 Q2035.14 54.509 2035.14 60.0587 Q2035.14 66.3781 2030.11 70.0644 Q2025.13 73.7508 2016.38 73.7508 Q2012.73 73.7508 2008.76 73.0216 Q2004.84 72.3329 2000.46 70.9151 L2000.46 63.2184 Q2004.59 65.3654 2008.6 66.4591 Q2012.61 67.5124 2016.54 67.5124 Q2021.81 67.5124 2024.64 65.73 Q2027.48 63.9071 2027.48 60.6258 Q2027.48 57.5877 2025.41 55.9673 Q2023.39 54.3469 2016.46 52.8481 L2013.87 52.2405 Q2006.94 50.7821 2003.86 47.7845 Q2000.78 44.7463 2000.78 39.4801 Q2000.78 33.0797 2005.32 29.5959 Q2009.86 26.1121 2018.2 26.1121 Q2022.33 26.1121 2025.98 26.7198 Q2029.63 27.3274 2032.71 28.5427 Z" fill="#000000" fill-rule="nonzero" fill-opacity="1"></path><circle clip-path="url(#clip962)" cx="201.614" cy="1407.85" r="14.4" fill="#ffffff" fill-rule="evenodd" fill-opacity="1" stroke="#000000" stroke-opacity="1" stroke-width="1.6"></circle>
<circle clip-path="url(#clip962)" cx="222.71" cy="1301.82" r="14.4" fill="#ffffff" fill-rule="evenodd" fill-opacity="1" stroke="#000000" stroke-opacity="1" stroke-width="1.6"></circle>
<circle clip-path="url(#clip962)" cx="243.806" cy="1395.03" r="14.4" fill="#ffffff" fill-rule="evenodd" fill-opacity="1" stroke="#000000" stroke-opacity="1" stroke-width="1.6"></circle>
<circle clip-path="url(#clip962)" cx="264.902" cy="1319.96" r="14.4" fill="#ffffff" fill-rule="evenodd" fill-opacity="1" stroke="#000000" stroke-opacity="1" stroke-width="1.6"></circle>
<circle clip-path="url(#clip962)" cx="285.997" cy="1401" r="14.4" fill="#ffffff" fill-rule="evenodd" fill-opacity="1" stroke="#000000" stroke-opacity="1" stroke-width="1.6"></circle>
<circle clip-path="url(#clip962)" cx="307.093" cy="162.047" r="14.4" fill="#ffffff" fill-rule="evenodd" fill-opacity="1" stroke="#000000" stroke-opacity="1" stroke-width="1.6"></circle>
<circle clip-path="url(#clip962)" cx="328.189" cy="1390.61" r="14.4" fill="#ffffff" fill-rule="evenodd" fill-opacity="1" stroke="#000000" stroke-opacity="1" stroke-width="1.6"></circle>
<circle clip-path="url(#clip962)" cx="349.285" cy="1285.12" r="14.4" fill="#ffffff" fill-rule="evenodd" fill-opacity="1" stroke="#000000" stroke-opacity="1" stroke-width="1.6"></circle>
<circle clip-path="url(#clip962)" cx="370.381" cy="1401.66" r="14.4" fill="#ffffff" fill-rule="evenodd" fill-opacity="1" stroke="#000000" stroke-opacity="1" stroke-width="1.6"></circle>
<circle clip-path="url(#clip962)" cx="391.477" cy="1438.86" r="14.4" fill="#ffffff" fill-rule="evenodd" fill-opacity="1" stroke="#000000" stroke-opacity="1" stroke-width="1.6"></circle>
<circle clip-path="url(#clip962)" cx="412.572" cy="1287.97" r="14.4" fill="#ffffff" fill-rule="evenodd" fill-opacity="1" stroke="#000000" stroke-opacity="1" stroke-width="1.6"></circle>
<circle clip-path="url(#clip962)" cx="433.668" cy="1323.62" r="14.4" fill="#ffffff" fill-rule="evenodd" fill-opacity="1" stroke="#000000" stroke-opacity="1" stroke-width="1.6"></circle>
<circle clip-path="url(#clip962)" cx="454.764" cy="1321.47" r="14.4" fill="#ffffff" fill-rule="evenodd" fill-opacity="1" stroke="#000000" stroke-opacity="1" stroke-width="1.6"></circle>
<circle clip-path="url(#clip962)" cx="475.86" cy="1391.83" r="14.4" fill="#ffffff" fill-rule="evenodd" fill-opacity="1" stroke="#000000" stroke-opacity="1" stroke-width="1.6"></circle>
<circle clip-path="url(#clip962)" cx="496.956" cy="1397.85" r="14.4" fill="#ffffff" fill-rule="evenodd" fill-opacity="1" stroke="#000000" stroke-opacity="1" stroke-width="1.6"></circle>
<circle clip-path="url(#clip962)" cx="518.052" cy="1413.07" r="14.4" fill="#ffffff" fill-rule="evenodd" fill-opacity="1" stroke="#000000" stroke-opacity="1" stroke-width="1.6"></circle>
<circle clip-path="url(#clip962)" cx="539.147" cy="1417.93" r="14.4" fill="#ffffff" fill-rule="evenodd" fill-opacity="1" stroke="#000000" stroke-opacity="1" stroke-width="1.6"></circle>
<circle clip-path="url(#clip962)" cx="560.243" cy="1423.75" r="14.4" fill="#ffffff" fill-rule="evenodd" fill-opacity="1" stroke="#000000" stroke-opacity="1" stroke-width="1.6"></circle>
<circle clip-path="url(#clip962)" cx="581.339" cy="1241.6" r="14.4" fill="#ffffff" fill-rule="evenodd" fill-opacity="1" stroke="#000000" stroke-opacity="1" stroke-width="1.6"></circle>
<circle clip-path="url(#clip962)" cx="602.435" cy="1050.44" r="14.4" fill="#ffffff" fill-rule="evenodd" fill-opacity="1" stroke="#000000" stroke-opacity="1" stroke-width="1.6"></circle>
<circle clip-path="url(#clip962)" cx="623.531" cy="1319.01" r="14.4" fill="#ffffff" fill-rule="evenodd" fill-opacity="1" stroke="#000000" stroke-opacity="1" stroke-width="1.6"></circle>
<circle clip-path="url(#clip962)" cx="644.627" cy="1324.52" r="14.4" fill="#ffffff" fill-rule="evenodd" fill-opacity="1" stroke="#000000" stroke-opacity="1" stroke-width="1.6"></circle>
<circle clip-path="url(#clip962)" cx="665.722" cy="1427.1" r="14.4" fill="#ffffff" fill-rule="evenodd" fill-opacity="1" stroke="#000000" stroke-opacity="1" stroke-width="1.6"></circle>
<circle clip-path="url(#clip962)" cx="686.818" cy="1409.55" r="14.4" fill="#ffffff" fill-rule="evenodd" fill-opacity="1" stroke="#000000" stroke-opacity="1" stroke-width="1.6"></circle>
<circle clip-path="url(#clip962)" cx="707.914" cy="1406.25" r="14.4" fill="#ffffff" fill-rule="evenodd" fill-opacity="1" stroke="#000000" stroke-opacity="1" stroke-width="1.6"></circle>
<circle clip-path="url(#clip962)" cx="729.01" cy="1382.21" r="14.4" fill="#ffffff" fill-rule="evenodd" fill-opacity="1" stroke="#000000" stroke-opacity="1" stroke-width="1.6"></circle>
<circle clip-path="url(#clip962)" cx="750.106" cy="1418.58" r="14.4" fill="#ffffff" fill-rule="evenodd" fill-opacity="1" stroke="#000000" stroke-opacity="1" stroke-width="1.6"></circle>
<circle clip-path="url(#clip962)" cx="771.201" cy="1415.25" r="14.4" fill="#ffffff" fill-rule="evenodd" fill-opacity="1" stroke="#000000" stroke-opacity="1" stroke-width="1.6"></circle>
<circle clip-path="url(#clip962)" cx="792.297" cy="1392.02" r="14.4" fill="#ffffff" fill-rule="evenodd" fill-opacity="1" stroke="#000000" stroke-opacity="1" stroke-width="1.6"></circle>
<circle clip-path="url(#clip962)" cx="813.393" cy="1266.96" r="14.4" fill="#ffffff" fill-rule="evenodd" fill-opacity="1" stroke="#000000" stroke-opacity="1" stroke-width="1.6"></circle>
<circle clip-path="url(#clip962)" cx="834.489" cy="1116.93" r="14.4" fill="#ffffff" fill-rule="evenodd" fill-opacity="1" stroke="#000000" stroke-opacity="1" stroke-width="1.6"></circle>
<circle clip-path="url(#clip962)" cx="855.585" cy="969.014" r="14.4" fill="#ffffff" fill-rule="evenodd" fill-opacity="1" stroke="#000000" stroke-opacity="1" stroke-width="1.6"></circle>
<circle clip-path="url(#clip962)" cx="876.681" cy="1428.26" r="14.4" fill="#ffffff" fill-rule="evenodd" fill-opacity="1" stroke="#000000" stroke-opacity="1" stroke-width="1.6"></circle>
<circle clip-path="url(#clip962)" cx="897.776" cy="1342.9" r="14.4" fill="#ffffff" fill-rule="evenodd" fill-opacity="1" stroke="#000000" stroke-opacity="1" stroke-width="1.6"></circle>
<circle clip-path="url(#clip962)" cx="918.872" cy="1128.73" r="14.4" fill="#ffffff" fill-rule="evenodd" fill-opacity="1" stroke="#000000" stroke-opacity="1" stroke-width="1.6"></circle>
<circle clip-path="url(#clip962)" cx="939.968" cy="1328.1" r="14.4" fill="#ffffff" fill-rule="evenodd" fill-opacity="1" stroke="#000000" stroke-opacity="1" stroke-width="1.6"></circle>
<circle clip-path="url(#clip962)" cx="961.064" cy="828.679" r="14.4" fill="#ffffff" fill-rule="evenodd" fill-opacity="1" stroke="#000000" stroke-opacity="1" stroke-width="1.6"></circle>
<circle clip-path="url(#clip962)" cx="982.16" cy="1423.01" r="14.4" fill="#ffffff" fill-rule="evenodd" fill-opacity="1" stroke="#000000" stroke-opacity="1" stroke-width="1.6"></circle>
<circle clip-path="url(#clip962)" cx="1003.26" cy="1386.71" r="14.4" fill="#ffffff" fill-rule="evenodd" fill-opacity="1" stroke="#000000" stroke-opacity="1" stroke-width="1.6"></circle>
<circle clip-path="url(#clip962)" cx="1024.35" cy="1213.17" r="14.4" fill="#ffffff" fill-rule="evenodd" fill-opacity="1" stroke="#000000" stroke-opacity="1" stroke-width="1.6"></circle>
<circle clip-path="url(#clip962)" cx="1045.45" cy="1382.88" r="14.4" fill="#ffffff" fill-rule="evenodd" fill-opacity="1" stroke="#000000" stroke-opacity="1" stroke-width="1.6"></circle>
<circle clip-path="url(#clip962)" cx="1066.54" cy="1327.04" r="14.4" fill="#ffffff" fill-rule="evenodd" fill-opacity="1" stroke="#000000" stroke-opacity="1" stroke-width="1.6"></circle>
<circle clip-path="url(#clip962)" cx="1087.64" cy="1441.75" r="14.4" fill="#ffffff" fill-rule="evenodd" fill-opacity="1" stroke="#000000" stroke-opacity="1" stroke-width="1.6"></circle>
<circle clip-path="url(#clip962)" cx="1108.73" cy="1439.38" r="14.4" fill="#ffffff" fill-rule="evenodd" fill-opacity="1" stroke="#000000" stroke-opacity="1" stroke-width="1.6"></circle>
<circle clip-path="url(#clip962)" cx="1129.83" cy="1375.38" r="14.4" fill="#ffffff" fill-rule="evenodd" fill-opacity="1" stroke="#000000" stroke-opacity="1" stroke-width="1.6"></circle>
<circle clip-path="url(#clip962)" cx="1150.93" cy="1318.96" r="14.4" fill="#ffffff" fill-rule="evenodd" fill-opacity="1" stroke="#000000" stroke-opacity="1" stroke-width="1.6"></circle>
<circle clip-path="url(#clip962)" cx="1172.02" cy="1293.08" r="14.4" fill="#ffffff" fill-rule="evenodd" fill-opacity="1" stroke="#000000" stroke-opacity="1" stroke-width="1.6"></circle>
<circle clip-path="url(#clip962)" cx="1193.12" cy="1326.15" r="14.4" fill="#ffffff" fill-rule="evenodd" fill-opacity="1" stroke="#000000" stroke-opacity="1" stroke-width="1.6"></circle>
<circle clip-path="url(#clip962)" cx="1214.21" cy="680.094" r="14.4" fill="#ffffff" fill-rule="evenodd" fill-opacity="1" stroke="#000000" stroke-opacity="1" stroke-width="1.6"></circle>
<circle clip-path="url(#clip962)" cx="1235.31" cy="1329.59" r="14.4" fill="#ffffff" fill-rule="evenodd" fill-opacity="1" stroke="#000000" stroke-opacity="1" stroke-width="1.6"></circle>
<circle clip-path="url(#clip962)" cx="1256.41" cy="1411.3" r="14.4" fill="#ffffff" fill-rule="evenodd" fill-opacity="1" stroke="#000000" stroke-opacity="1" stroke-width="1.6"></circle>
<circle clip-path="url(#clip962)" cx="1277.5" cy="1222.44" r="14.4" fill="#ffffff" fill-rule="evenodd" fill-opacity="1" stroke="#000000" stroke-opacity="1" stroke-width="1.6"></circle>
<circle clip-path="url(#clip962)" cx="1298.6" cy="1391.33" r="14.4" fill="#ffffff" fill-rule="evenodd" fill-opacity="1" stroke="#000000" stroke-opacity="1" stroke-width="1.6"></circle>
<circle clip-path="url(#clip962)" cx="1319.69" cy="1447.87" r="14.4" fill="#ffffff" fill-rule="evenodd" fill-opacity="1" stroke="#000000" stroke-opacity="1" stroke-width="1.6"></circle>
<circle clip-path="url(#clip962)" cx="1340.79" cy="1447.39" r="14.4" fill="#ffffff" fill-rule="evenodd" fill-opacity="1" stroke="#000000" stroke-opacity="1" stroke-width="1.6"></circle>
<circle clip-path="url(#clip962)" cx="1361.88" cy="1429.67" r="14.4" fill="#ffffff" fill-rule="evenodd" fill-opacity="1" stroke="#000000" stroke-opacity="1" stroke-width="1.6"></circle>
<circle clip-path="url(#clip962)" cx="1382.98" cy="1338.1" r="14.4" fill="#ffffff" fill-rule="evenodd" fill-opacity="1" stroke="#000000" stroke-opacity="1" stroke-width="1.6"></circle>
<circle clip-path="url(#clip962)" cx="1404.08" cy="1350.02" r="14.4" fill="#ffffff" fill-rule="evenodd" fill-opacity="1" stroke="#000000" stroke-opacity="1" stroke-width="1.6"></circle>
<circle clip-path="url(#clip962)" cx="1425.17" cy="1075.22" r="14.4" fill="#ffffff" fill-rule="evenodd" fill-opacity="1" stroke="#000000" stroke-opacity="1" stroke-width="1.6"></circle>
<circle clip-path="url(#clip962)" cx="1446.27" cy="1407.68" r="14.4" fill="#ffffff" fill-rule="evenodd" fill-opacity="1" stroke="#000000" stroke-opacity="1" stroke-width="1.6"></circle>
<circle clip-path="url(#clip962)" cx="1467.36" cy="1391.72" r="14.4" fill="#ffffff" fill-rule="evenodd" fill-opacity="1" stroke="#000000" stroke-opacity="1" stroke-width="1.6"></circle>
<circle clip-path="url(#clip962)" cx="1488.46" cy="1095.23" r="14.4" fill="#ffffff" fill-rule="evenodd" fill-opacity="1" stroke="#000000" stroke-opacity="1" stroke-width="1.6"></circle>
<circle clip-path="url(#clip962)" cx="1509.56" cy="1379.5" r="14.4" fill="#ffffff" fill-rule="evenodd" fill-opacity="1" stroke="#000000" stroke-opacity="1" stroke-width="1.6"></circle>
<circle clip-path="url(#clip962)" cx="1530.65" cy="1226.81" r="14.4" fill="#ffffff" fill-rule="evenodd" fill-opacity="1" stroke="#000000" stroke-opacity="1" stroke-width="1.6"></circle>
<circle clip-path="url(#clip962)" cx="1551.75" cy="1396.38" r="14.4" fill="#ffffff" fill-rule="evenodd" fill-opacity="1" stroke="#000000" stroke-opacity="1" stroke-width="1.6"></circle>
<circle clip-path="url(#clip962)" cx="1572.84" cy="1254.03" r="14.4" fill="#ffffff" fill-rule="evenodd" fill-opacity="1" stroke="#000000" stroke-opacity="1" stroke-width="1.6"></circle>
<circle clip-path="url(#clip962)" cx="1593.94" cy="1437.58" r="14.4" fill="#ffffff" fill-rule="evenodd" fill-opacity="1" stroke="#000000" stroke-opacity="1" stroke-width="1.6"></circle>
<circle clip-path="url(#clip962)" cx="1615.03" cy="1391.04" r="14.4" fill="#ffffff" fill-rule="evenodd" fill-opacity="1" stroke="#000000" stroke-opacity="1" stroke-width="1.6"></circle>
<circle clip-path="url(#clip962)" cx="1636.13" cy="1386.48" r="14.4" fill="#ffffff" fill-rule="evenodd" fill-opacity="1" stroke="#000000" stroke-opacity="1" stroke-width="1.6"></circle>
<circle clip-path="url(#clip962)" cx="1657.23" cy="1340.42" r="14.4" fill="#ffffff" fill-rule="evenodd" fill-opacity="1" stroke="#000000" stroke-opacity="1" stroke-width="1.6"></circle>
<circle clip-path="url(#clip962)" cx="1678.32" cy="934.189" r="14.4" fill="#ffffff" fill-rule="evenodd" fill-opacity="1" stroke="#000000" stroke-opacity="1" stroke-width="1.6"></circle>
<circle clip-path="url(#clip962)" cx="1699.42" cy="1368.64" r="14.4" fill="#ffffff" fill-rule="evenodd" fill-opacity="1" stroke="#000000" stroke-opacity="1" stroke-width="1.6"></circle>
<circle clip-path="url(#clip962)" cx="1720.51" cy="1403.45" r="14.4" fill="#ffffff" fill-rule="evenodd" fill-opacity="1" stroke="#000000" stroke-opacity="1" stroke-width="1.6"></circle>
<circle clip-path="url(#clip962)" cx="1741.61" cy="1374.12" r="14.4" fill="#ffffff" fill-rule="evenodd" fill-opacity="1" stroke="#000000" stroke-opacity="1" stroke-width="1.6"></circle>
<circle clip-path="url(#clip962)" cx="1762.71" cy="1435.89" r="14.4" fill="#ffffff" fill-rule="evenodd" fill-opacity="1" stroke="#000000" stroke-opacity="1" stroke-width="1.6"></circle>
<circle clip-path="url(#clip962)" cx="1783.8" cy="1406.98" r="14.4" fill="#ffffff" fill-rule="evenodd" fill-opacity="1" stroke="#000000" stroke-opacity="1" stroke-width="1.6"></circle>
<circle clip-path="url(#clip962)" cx="1804.9" cy="1387.71" r="14.4" fill="#ffffff" fill-rule="evenodd" fill-opacity="1" stroke="#000000" stroke-opacity="1" stroke-width="1.6"></circle>
<circle clip-path="url(#clip962)" cx="1825.99" cy="1166.39" r="14.4" fill="#ffffff" fill-rule="evenodd" fill-opacity="1" stroke="#000000" stroke-opacity="1" stroke-width="1.6"></circle>
<circle clip-path="url(#clip962)" cx="1847.09" cy="1394.84" r="14.4" fill="#ffffff" fill-rule="evenodd" fill-opacity="1" stroke="#000000" stroke-opacity="1" stroke-width="1.6"></circle>
<circle clip-path="url(#clip962)" cx="1868.18" cy="1423.87" r="14.4" fill="#ffffff" fill-rule="evenodd" fill-opacity="1" stroke="#000000" stroke-opacity="1" stroke-width="1.6"></circle>
<circle clip-path="url(#clip962)" cx="1889.28" cy="1398.51" r="14.4" fill="#ffffff" fill-rule="evenodd" fill-opacity="1" stroke="#000000" stroke-opacity="1" stroke-width="1.6"></circle>
<circle clip-path="url(#clip962)" cx="1910.38" cy="1424.84" r="14.4" fill="#ffffff" fill-rule="evenodd" fill-opacity="1" stroke="#000000" stroke-opacity="1" stroke-width="1.6"></circle>
<circle clip-path="url(#clip962)" cx="1931.47" cy="1436.87" r="14.4" fill="#ffffff" fill-rule="evenodd" fill-opacity="1" stroke="#000000" stroke-opacity="1" stroke-width="1.6"></circle>
<circle clip-path="url(#clip962)" cx="1952.57" cy="1334.41" r="14.4" fill="#ffffff" fill-rule="evenodd" fill-opacity="1" stroke="#000000" stroke-opacity="1" stroke-width="1.6"></circle>
<circle clip-path="url(#clip962)" cx="1973.66" cy="1360.6" r="14.4" fill="#ffffff" fill-rule="evenodd" fill-opacity="1" stroke="#000000" stroke-opacity="1" stroke-width="1.6"></circle>
<circle clip-path="url(#clip962)" cx="1994.76" cy="1332.65" r="14.4" fill="#ffffff" fill-rule="evenodd" fill-opacity="1" stroke="#000000" stroke-opacity="1" stroke-width="1.6"></circle>
<circle clip-path="url(#clip962)" cx="2015.86" cy="1317.03" r="14.4" fill="#ffffff" fill-rule="evenodd" fill-opacity="1" stroke="#000000" stroke-opacity="1" stroke-width="1.6"></circle>
<circle clip-path="url(#clip962)" cx="2036.95" cy="1418.2" r="14.4" fill="#ffffff" fill-rule="evenodd" fill-opacity="1" stroke="#000000" stroke-opacity="1" stroke-width="1.6"></circle>
<circle clip-path="url(#clip962)" cx="2058.05" cy="1373.29" r="14.4" fill="#ffffff" fill-rule="evenodd" fill-opacity="1" stroke="#000000" stroke-opacity="1" stroke-width="1.6"></circle>
<circle clip-path="url(#clip962)" cx="2079.14" cy="1351.7" r="14.4" fill="#ffffff" fill-rule="evenodd" fill-opacity="1" stroke="#000000" stroke-opacity="1" stroke-width="1.6"></circle>
<circle clip-path="url(#clip962)" cx="2100.24" cy="1323.46" r="14.4" fill="#ffffff" fill-rule="evenodd" fill-opacity="1" stroke="#000000" stroke-opacity="1" stroke-width="1.6"></circle>
<circle clip-path="url(#clip962)" cx="2121.33" cy="1319.01" r="14.4" fill="#ffffff" fill-rule="evenodd" fill-opacity="1" stroke="#000000" stroke-opacity="1" stroke-width="1.6"></circle>
<circle clip-path="url(#clip962)" cx="2142.43" cy="1318.76" r="14.4" fill="#ffffff" fill-rule="evenodd" fill-opacity="1" stroke="#000000" stroke-opacity="1" stroke-width="1.6"></circle>
<circle clip-path="url(#clip962)" cx="2163.53" cy="1306.99" r="14.4" fill="#ffffff" fill-rule="evenodd" fill-opacity="1" stroke="#000000" stroke-opacity="1" stroke-width="1.6"></circle>
<circle clip-path="url(#clip962)" cx="2184.62" cy="1159.69" r="14.4" fill="#ffffff" fill-rule="evenodd" fill-opacity="1" stroke="#000000" stroke-opacity="1" stroke-width="1.6"></circle>
<circle clip-path="url(#clip962)" cx="2205.72" cy="1232.88" r="14.4" fill="#ffffff" fill-rule="evenodd" fill-opacity="1" stroke="#000000" stroke-opacity="1" stroke-width="1.6"></circle>
<circle clip-path="url(#clip962)" cx="2226.81" cy="1418.39" r="14.4" fill="#ffffff" fill-rule="evenodd" fill-opacity="1" stroke="#000000" stroke-opacity="1" stroke-width="1.6"></circle>
<circle clip-path="url(#clip962)" cx="2247.91" cy="1408.86" r="14.4" fill="#ffffff" fill-rule="evenodd" fill-opacity="1" stroke="#000000" stroke-opacity="1" stroke-width="1.6"></circle>
<circle clip-path="url(#clip962)" cx="2269.01" cy="1397.76" r="14.4" fill="#ffffff" fill-rule="evenodd" fill-opacity="1" stroke="#000000" stroke-opacity="1" stroke-width="1.6"></circle>
<circle clip-path="url(#clip962)" cx="2290.1" cy="1425.99" r="14.4" fill="#ffffff" fill-rule="evenodd" fill-opacity="1" stroke="#000000" stroke-opacity="1" stroke-width="1.6"></circle>
</svg>