<svg xmlns="http://www.w3.org/2000/svg" xmlns:xlink="http://www.w3.org/1999/xlink" width="600" height="400" viewBox="0 0 2400 1600">
<defs>
  <clipPath id="clip080">
    <rect x="0" y="0" width="2400" height="1600"></rect>
  </clipPath>
</defs>
<path clip-path="url(#clip080)" d="M0 1600 L2400 1600 L2400 0 L0 0  Z" fill="#ffffff" fill-rule="evenodd" fill-opacity="1"></path>
<defs>
  <clipPath id="clip081">
    <rect x="480" y="0" width="1681" height="1600"></rect>
  </clipPath>
</defs>
<path clip-path="url(#clip080)" d="M151.951 1477.81 L2352.76 1477.81 L2352.76 140.752 L151.951 140.752  Z" fill="#ffffff" fill-rule="evenodd" fill-opacity="1"></path>
<defs>
  <clipPath id="clip082">
    <rect x="151" y="140" width="2202" height="1338"></rect>
  </clipPath>
</defs>
<polyline clip-path="url(#clip082)" style="stroke:#000000; stroke-linecap:round; stroke-linejoin:round; stroke-width:2; stroke-opacity:0.1; fill:none" points="193.266,1477.81 193.266,140.752 "></polyline>
<polyline clip-path="url(#clip082)" style="stroke:#000000; stroke-linecap:round; stroke-linejoin:round; stroke-width:2; stroke-opacity:0.1; fill:none" points="717.567,1477.81 717.567,140.752 "></polyline>
<polyline clip-path="url(#clip082)" style="stroke:#000000; stroke-linecap:round; stroke-linejoin:round; stroke-width:2; stroke-opacity:0.1; fill:none" points="1241.87,1477.81 1241.87,140.752 "></polyline>
<polyline clip-path="url(#clip082)" style="stroke:#000000; stroke-linecap:round; stroke-linejoin:round; stroke-width:2; stroke-opacity:0.1; fill:none" points="1766.17,1477.81 1766.17,140.752 "></polyline>
<polyline clip-path="url(#clip082)" style="stroke:#000000; stroke-linecap:round; stroke-linejoin:round; stroke-width:2; stroke-opacity:0.1; fill:none" points="2290.47,1477.81 2290.47,140.752 "></polyline>
<polyline clip-path="url(#clip082)" style="stroke:#000000; stroke-linecap:round; stroke-linejoin:round; stroke-width:2; stroke-opacity:0.1; fill:none" points="151.951,1447 2352.76,1447 "></polyline>
<polyline clip-path="url(#clip082)" style="stroke:#000000; stroke-linecap:round; stroke-linejoin:round; stroke-width:2; stroke-opacity:0.1; fill:none" points="151.951,1099.26 2352.76,1099.26 "></polyline>
<polyline clip-path="url(#clip082)" style="stroke:#000000; stroke-linecap:round; stroke-linejoin:round; stroke-width:2; stroke-opacity:0.1; fill:none" points="151.951,751.524 2352.76,751.524 "></polyline>
<polyline clip-path="url(#clip082)" style="stroke:#000000; stroke-linecap:round; stroke-linejoin:round; stroke-width:2; stroke-opacity:0.1; fill:none" points="151.951,403.785 2352.76,403.785 "></polyline>
<polyline clip-path="url(#clip080)" style="stroke:#000000; stroke-linecap:round; stroke-linejoin:round; stroke-width:4; stroke-opacity:1; fill:none" points="151.951,1477.81 2352.76,1477.81 "></polyline>
<polyline clip-path="url(#clip080)" style="stroke:#000000; stroke-linecap:round; stroke-linejoin:round; stroke-width:4; stroke-opacity:1; fill:none" points="193.266,1477.81 193.266,1458.91 "></polyline>
<polyline clip-path="url(#clip080)" style="stroke:#000000; stroke-linecap:round; stroke-linejoin:round; stroke-width:4; stroke-opacity:1; fill:none" points="717.567,1477.81 717.567,1458.91 "></polyline>
<polyline clip-path="url(#clip080)" style="stroke:#000000; stroke-linecap:round; stroke-linejoin:round; stroke-width:4; stroke-opacity:1; fill:none" points="1241.87,1477.81 1241.87,1458.91 "></polyline>
<polyline clip-path="url(#clip080)" style="stroke:#000000; stroke-linecap:round; stroke-linejoin:round; stroke-width:4; stroke-opacity:1; fill:none" points="1766.17,1477.81 1766.17,1458.91 "></polyline>
<polyline clip-path="url(#clip080)" style="stroke:#000000; stroke-linecap:round; stroke-linejoin:round; stroke-width:4; stroke-opacity:1; fill:none" points="2290.47,1477.81 2290.47,1458.91 "></polyline>
<path clip-path="url(#clip080)" d="M193.266 1511.66 Q188.752 1511.66 186.466 1516.11 Q184.209 1520.54 184.209 1529.45 Q184.209 1538.33 186.466 1542.79 Q188.752 1547.22 193.266 1547.22 Q197.809 1547.22 200.066 1542.79 Q202.352 1538.33 202.352 1529.45 Q202.352 1520.54 200.066 1516.11 Q197.809 1511.66 193.266 1511.66 M193.266 1507.03 Q200.529 1507.03 204.348 1512.78 Q208.197 1518.51 208.197 1529.45 Q208.197 1540.36 204.348 1546.12 Q200.529 1551.85 193.266 1551.85 Q186.003 1551.85 182.155 1546.12 Q178.336 1540.36 178.336 1529.45 Q178.336 1518.51 182.155 1512.78 Q186.003 1507.03 193.266 1507.03 Z" fill="#000000" fill-rule="nonzero" fill-opacity="1"></path><path clip-path="url(#clip080)" d="M691.656 1546.09 L712.055 1546.09 L712.055 1551.01 L684.624 1551.01 L684.624 1546.09 Q687.952 1542.65 693.681 1536.86 Q699.439 1531.04 700.915 1529.36 Q703.721 1526.21 704.821 1524.04 Q705.949 1521.84 705.949 1519.73 Q705.949 1516.29 703.519 1514.12 Q701.117 1511.95 697.24 1511.95 Q694.491 1511.95 691.424 1512.9 Q688.386 1513.86 684.914 1515.79 L684.914 1509.89 Q688.444 1508.47 691.511 1507.75 Q694.578 1507.03 697.124 1507.03 Q703.837 1507.03 707.83 1510.38 Q711.823 1513.74 711.823 1519.35 Q711.823 1522.01 710.811 1524.42 Q709.827 1526.79 707.194 1530.03 Q706.47 1530.87 702.593 1534.89 Q698.716 1538.88 691.656 1546.09 Z" fill="#000000" fill-rule="nonzero" fill-opacity="1"></path><path clip-path="url(#clip080)" d="M724.381 1507.81 L747.327 1507.81 L747.327 1512.73 L729.734 1512.73 L729.734 1523.32 Q731.007 1522.88 732.28 1522.68 Q733.553 1522.45 734.827 1522.45 Q742.06 1522.45 746.285 1526.41 Q750.509 1530.38 750.509 1537.15 Q750.509 1544.12 746.169 1548 Q741.829 1551.85 733.93 1551.85 Q731.21 1551.85 728.374 1551.38 Q725.567 1550.92 722.558 1550 L722.558 1544.12 Q725.162 1545.54 727.94 1546.23 Q730.718 1546.93 733.814 1546.93 Q738.82 1546.93 741.742 1544.29 Q744.665 1541.66 744.665 1537.15 Q744.665 1532.63 741.742 1530 Q738.82 1527.37 733.814 1527.37 Q731.47 1527.37 729.126 1527.89 Q726.812 1528.41 724.381 1529.51 L724.381 1507.81 Z" fill="#000000" fill-rule="nonzero" fill-opacity="1"></path><path clip-path="url(#clip080)" d="M1210.24 1507.81 L1233.19 1507.81 L1233.19 1512.73 L1215.59 1512.73 L1215.59 1523.32 Q1216.87 1522.88 1218.14 1522.68 Q1219.41 1522.45 1220.69 1522.45 Q1227.92 1522.45 1232.15 1526.41 Q1236.37 1530.38 1236.37 1537.15 Q1236.37 1544.12 1232.03 1548 Q1227.69 1551.85 1219.79 1551.85 Q1217.07 1551.85 1214.23 1551.38 Q1211.43 1550.92 1208.42 1550 L1208.42 1544.12 Q1211.02 1545.54 1213.8 1546.23 Q1216.58 1546.93 1219.67 1546.93 Q1224.68 1546.93 1227.6 1544.29 Q1230.53 1541.66 1230.53 1537.15 Q1230.53 1532.63 1227.6 1530 Q1224.68 1527.37 1219.67 1527.37 Q1217.33 1527.37 1214.99 1527.89 Q1212.67 1528.41 1210.24 1529.51 L1210.24 1507.81 Z" fill="#000000" fill-rule="nonzero" fill-opacity="1"></path><path clip-path="url(#clip080)" d="M1260.39 1511.66 Q1255.87 1511.66 1253.59 1516.11 Q1251.33 1520.54 1251.33 1529.45 Q1251.33 1538.33 1253.59 1542.79 Q1255.87 1547.22 1260.39 1547.22 Q1264.93 1547.22 1267.19 1542.79 Q1269.47 1538.33 1269.47 1529.45 Q1269.47 1520.54 1267.19 1516.11 Q1264.93 1511.66 1260.39 1511.66 M1260.39 1507.03 Q1267.65 1507.03 1271.47 1512.78 Q1275.32 1518.51 1275.32 1529.45 Q1275.32 1540.36 1271.47 1546.12 Q1267.65 1551.85 1260.39 1551.85 Q1253.12 1551.85 1249.27 1546.12 Q1245.46 1540.36 1245.46 1529.45 Q1245.46 1518.51 1249.27 1512.78 Q1253.12 1507.03 1260.39 1507.03 Z" fill="#000000" fill-rule="nonzero" fill-opacity="1"></path><path clip-path="url(#clip080)" d="M1733.49 1507.81 L1761.26 1507.81 L1761.26 1510.3 L1745.58 1551.01 L1739.48 1551.01 L1754.23 1512.73 L1733.49 1512.73 L1733.49 1507.81 Z" fill="#000000" fill-rule="nonzero" fill-opacity="1"></path><path clip-path="url(#clip080)" d="M1772.72 1507.81 L1795.67 1507.81 L1795.67 1512.73 L1778.08 1512.73 L1778.08 1523.32 Q1779.35 1522.88 1780.62 1522.68 Q1781.89 1522.45 1783.17 1522.45 Q1790.4 1522.45 1794.63 1526.41 Q1798.85 1530.38 1798.85 1537.15 Q1798.85 1544.12 1794.51 1548 Q1790.17 1551.85 1782.27 1551.85 Q1779.55 1551.85 1776.72 1551.38 Q1773.91 1550.92 1770.9 1550 L1770.9 1544.12 Q1773.5 1545.54 1776.28 1546.23 Q1779.06 1546.93 1782.15 1546.93 Q1787.16 1546.93 1790.08 1544.29 Q1793.01 1541.66 1793.01 1537.15 Q1793.01 1532.63 1790.08 1530 Q1787.16 1527.37 1782.15 1527.37 Q1779.81 1527.37 1777.47 1527.89 Q1775.15 1528.41 1772.72 1529.51 L1772.72 1507.81 Z" fill="#000000" fill-rule="nonzero" fill-opacity="1"></path><path clip-path="url(#clip080)" d="M2239.98 1546.09 L2249.53 1546.09 L2249.53 1513.13 L2239.14 1515.22 L2239.14 1509.89 L2249.47 1507.81 L2255.31 1507.81 L2255.31 1546.09 L2264.86 1546.09 L2264.86 1551.01 L2239.98 1551.01 L2239.98 1546.09 Z" fill="#000000" fill-rule="nonzero" fill-opacity="1"></path><path clip-path="url(#clip080)" d="M2289.17 1511.66 Q2284.65 1511.66 2282.37 1516.11 Q2280.11 1520.54 2280.11 1529.45 Q2280.11 1538.33 2282.37 1542.79 Q2284.65 1547.22 2289.17 1547.22 Q2293.71 1547.22 2295.97 1542.79 Q2298.25 1538.33 2298.25 1529.45 Q2298.25 1520.54 2295.97 1516.11 Q2293.71 1511.66 2289.17 1511.66 M2289.17 1507.03 Q2296.43 1507.03 2300.25 1512.78 Q2304.1 1518.51 2304.1 1529.45 Q2304.1 1540.36 2300.25 1546.12 Q2296.43 1551.85 2289.17 1551.85 Q2281.9 1551.85 2278.06 1546.12 Q2274.24 1540.36 2274.24 1529.45 Q2274.24 1518.51 2278.06 1512.78 Q2281.9 1507.03 2289.17 1507.03 Z" fill="#000000" fill-rule="nonzero" fill-opacity="1"></path><path clip-path="url(#clip080)" d="M2326.87 1511.66 Q2322.36 1511.66 2320.07 1516.11 Q2317.81 1520.54 2317.81 1529.45 Q2317.81 1538.33 2320.07 1542.79 Q2322.36 1547.22 2326.87 1547.22 Q2331.41 1547.22 2333.67 1542.79 Q2335.95 1538.33 2335.95 1529.45 Q2335.95 1520.54 2333.67 1516.11 Q2331.41 1511.66 2326.87 1511.66 M2326.87 1507.03 Q2334.13 1507.03 2337.95 1512.78 Q2341.8 1518.51 2341.8 1529.45 Q2341.8 1540.36 2337.95 1546.12 Q2334.13 1551.85 2326.87 1551.85 Q2319.61 1551.85 2315.76 1546.12 Q2311.94 1540.36 2311.94 1529.45 Q2311.94 1518.51 2315.76 1512.78 Q2319.61 1507.03 2326.87 1507.03 Z" fill="#000000" fill-rule="nonzero" fill-opacity="1"></path><polyline clip-path="url(#clip080)" style="stroke:#000000; stroke-linecap:round; stroke-linejoin:round; stroke-width:4; stroke-opacity:1; fill:none" points="151.951,1477.81 151.951,140.752 "></polyline>
<polyline clip-path="url(#clip080)" style="stroke:#000000; stroke-linecap:round; stroke-linejoin:round; stroke-width:4; stroke-opacity:1; fill:none" points="151.951,1447 170.849,1447 "></polyline>
<polyline clip-path="url(#clip080)" style="stroke:#000000; stroke-linecap:round; stroke-linejoin:round; stroke-width:4; stroke-opacity:1; fill:none" points="151.951,1099.26 170.849,1099.26 "></polyline>
<polyline clip-path="url(#clip080)" style="stroke:#000000; stroke-linecap:round; stroke-linejoin:round; stroke-width:4; stroke-opacity:1; fill:none" points="151.951,751.524 170.849,751.524 "></polyline>
<polyline clip-path="url(#clip080)" style="stroke:#000000; stroke-linecap:round; stroke-linejoin:round; stroke-width:4; stroke-opacity:1; fill:none" points="151.951,403.785 170.849,403.785 "></polyline>
<path clip-path="url(#clip080)" d="M101.021 1429.25 Q96.5069 1429.25 94.2211 1433.71 Q91.9641 1438.13 91.9641 1447.05 Q91.9641 1455.93 94.2211 1460.38 Q96.5069 1464.81 101.021 1464.81 Q105.564 1464.81 107.821 1460.38 Q110.106 1455.93 110.106 1447.05 Q110.106 1438.13 107.821 1433.71 Q105.564 1429.25 101.021 1429.25 M101.021 1424.62 Q108.283 1424.62 112.103 1430.38 Q115.951 1436.11 115.951 1447.05 Q115.951 1457.95 112.103 1463.71 Q108.283 1469.44 101.021 1469.44 Q93.7581 1469.44 89.9097 1463.71 Q86.0903 1457.95 86.0903 1447.05 Q86.0903 1436.11 89.9097 1430.38 Q93.7581 1424.62 101.021 1424.62 Z" fill="#000000" fill-rule="nonzero" fill-opacity="1"></path><path clip-path="url(#clip080)" d="M89.8229 1077.66 L112.768 1077.66 L112.768 1082.58 L95.1759 1082.58 L95.1759 1093.17 Q96.4491 1092.74 97.7222 1092.54 Q98.9953 1092.3 100.268 1092.3 Q107.502 1092.3 111.727 1096.27 Q115.951 1100.23 115.951 1107 Q115.951 1113.98 111.611 1117.85 Q107.271 1121.7 99.3715 1121.7 Q96.6516 1121.7 93.816 1121.24 Q91.0093 1120.78 88 1119.85 L88 1113.98 Q90.6042 1115.39 93.3819 1116.09 Q96.1597 1116.78 99.2558 1116.78 Q104.262 1116.78 107.184 1114.15 Q110.106 1111.52 110.106 1107 Q110.106 1102.49 107.184 1099.86 Q104.262 1097.22 99.2558 1097.22 Q96.912 1097.22 94.5683 1097.74 Q92.2535 1098.26 89.8229 1099.36 L89.8229 1077.66 Z" fill="#000000" fill-rule="nonzero" fill-opacity="1"></path><path clip-path="url(#clip080)" d="M51.8312 768.205 L61.3798 768.205 L61.3798 735.248 L50.9921 737.332 L50.9921 732.008 L61.3219 729.924 L67.1668 729.924 L67.1668 768.205 L76.7154 768.205 L76.7154 773.124 L51.8312 773.124 L51.8312 768.205 Z" fill="#000000" fill-rule="nonzero" fill-opacity="1"></path><path clip-path="url(#clip080)" d="M101.021 733.773 Q96.5069 733.773 94.2211 738.229 Q91.9641 742.656 91.9641 751.568 Q91.9641 760.451 94.2211 764.907 Q96.5069 769.334 101.021 769.334 Q105.564 769.334 107.821 764.907 Q110.106 760.451 110.106 751.568 Q110.106 742.656 107.821 738.229 Q105.564 733.773 101.021 733.773 M101.021 729.143 Q108.283 729.143 112.103 734.901 Q115.951 740.63 115.951 751.568 Q115.951 762.476 112.103 768.234 Q108.283 773.963 101.021 773.963 Q93.7581 773.963 89.9097 768.234 Q86.0903 762.476 86.0903 751.568 Q86.0903 740.63 89.9097 734.901 Q93.7581 729.143 101.021 729.143 Z" fill="#000000" fill-rule="nonzero" fill-opacity="1"></path><path clip-path="url(#clip080)" d="M53.0754 420.466 L62.624 420.466 L62.624 387.509 L52.2363 389.593 L52.2363 384.269 L62.5661 382.185 L68.411 382.185 L68.411 420.466 L77.9596 420.466 L77.9596 425.385 L53.0754 425.385 L53.0754 420.466 Z" fill="#000000" fill-rule="nonzero" fill-opacity="1"></path><path clip-path="url(#clip080)" d="M89.8229 382.185 L112.768 382.185 L112.768 387.104 L95.1759 387.104 L95.1759 397.695 Q96.4491 397.261 97.7222 397.058 Q98.9953 396.826 100.268 396.826 Q107.502 396.826 111.727 400.791 Q115.951 404.755 115.951 411.525 Q115.951 418.499 111.611 422.376 Q107.271 426.224 99.3715 426.224 Q96.6516 426.224 93.816 425.762 Q91.0093 425.299 88 424.373 L88 418.499 Q90.6042 419.917 93.3819 420.611 Q96.1597 421.306 99.2558 421.306 Q104.262 421.306 107.184 418.672 Q110.106 416.039 110.106 411.525 Q110.106 407.012 107.184 404.379 Q104.262 401.745 99.2558 401.745 Q96.912 401.745 94.5683 402.266 Q92.2535 402.787 89.8229 403.887 L89.8229 382.185 Z" fill="#000000" fill-rule="nonzero" fill-opacity="1"></path><path clip-path="url(#clip080)" d="M814.543 15.552 L880.324 15.552 L880.324 24.4061 L852.72 24.4061 L852.72 93.312 L842.147 93.312 L842.147 24.4061 L814.543 24.4061 L814.543 15.552 Z" fill="#000000" fill-rule="nonzero" fill-opacity="1"></path><path clip-path="url(#clip080)" d="M886.783 34.979 L896.366 34.979 L896.366 93.312 L886.783 93.312 L886.783 34.979 M886.783 12.2708 L896.366 12.2708 L896.366 24.4061 L886.783 24.4061 L886.783 12.2708 Z" fill="#000000" fill-rule="nonzero" fill-opacity="1"></path><path clip-path="url(#clip080)" d="M961.834 46.1768 Q965.428 39.7185 970.428 36.6456 Q975.428 33.5727 982.199 33.5727 Q991.313 33.5727 996.261 39.979 Q1001.21 46.3331 1001.21 58.1039 L1001.21 93.312 L991.574 93.312 L991.574 58.4164 Q991.574 50.031 988.605 45.9685 Q985.636 41.906 979.543 41.906 Q972.095 41.906 967.772 46.8539 Q963.449 51.8018 963.449 60.3434 L963.449 93.312 L953.814 93.312 L953.814 58.4164 Q953.814 49.9789 950.845 45.9685 Q947.876 41.906 941.678 41.906 Q934.334 41.906 930.012 46.906 Q925.689 51.8539 925.689 60.3434 L925.689 93.312 L916.053 93.312 L916.053 34.979 L925.689 34.979 L925.689 44.0414 Q928.97 38.6769 933.553 36.1248 Q938.137 33.5727 944.439 33.5727 Q950.793 33.5727 955.22 36.8019 Q959.699 40.031 961.834 46.1768 Z" fill="#000000" fill-rule="nonzero" fill-opacity="1"></path><path clip-path="url(#clip080)" d="M1070.22 61.7497 L1070.22 66.4371 L1026.16 66.4371 Q1026.78 76.3329 1032.09 81.5412 Q1037.46 86.6975 1046.99 86.6975 Q1052.51 86.6975 1057.67 85.3433 Q1062.88 83.9891 1067.98 81.2808 L1067.98 90.3433 Q1062.82 92.5308 1057.41 93.6766 Q1051.99 94.8224 1046.42 94.8224 Q1032.46 94.8224 1024.28 86.6975 Q1016.16 78.5725 1016.16 64.7184 Q1016.16 50.3956 1023.87 42.0102 Q1031.63 33.5727 1044.75 33.5727 Q1056.52 33.5727 1063.34 41.1769 Q1070.22 48.7289 1070.22 61.7497 M1060.64 58.9372 Q1060.53 51.0726 1056.21 46.3852 Q1051.94 41.6977 1044.85 41.6977 Q1036.83 41.6977 1031.99 46.2289 Q1027.2 50.7601 1026.47 58.9893 L1060.64 58.9372 Z" fill="#000000" fill-rule="nonzero" fill-opacity="1"></path><path clip-path="url(#clip080)" d="M1157.04 36.6977 L1157.04 45.7602 Q1152.98 43.6768 1148.6 42.6352 Q1144.23 41.5935 1139.54 41.5935 Q1132.41 41.5935 1128.81 43.781 Q1125.27 45.9685 1125.27 50.3435 Q1125.27 53.6768 1127.82 55.6039 Q1130.38 57.4789 1138.08 59.1976 L1141.36 59.9268 Q1151.57 62.1143 1155.84 66.1246 Q1160.17 70.083 1160.17 77.2183 Q1160.17 85.3433 1153.71 90.0829 Q1147.3 94.8224 1136.05 94.8224 Q1131.36 94.8224 1126.26 93.8849 Q1121.21 92.9995 1115.58 91.1766 L1115.58 81.2808 Q1120.9 84.0412 1126.05 85.4475 Q1131.21 86.8016 1136.26 86.8016 Q1143.03 86.8016 1146.68 84.51 Q1150.32 82.1662 1150.32 77.9475 Q1150.32 74.0413 1147.67 71.9579 Q1145.06 69.8746 1136.16 67.9476 L1132.82 67.1663 Q1123.92 65.2913 1119.96 61.4372 Q1116 57.5309 1116 50.7601 Q1116 42.531 1121.83 38.0519 Q1127.67 33.5727 1138.4 33.5727 Q1143.71 33.5727 1148.4 34.354 Q1153.08 35.1352 1157.04 36.6977 Z" fill="#000000" fill-rule="nonzero" fill-opacity="1"></path><path clip-path="url(#clip080)" d="M1225.32 61.7497 L1225.32 66.4371 L1181.26 66.4371 Q1181.89 76.3329 1187.2 81.5412 Q1192.56 86.6975 1202.09 86.6975 Q1207.61 86.6975 1212.77 85.3433 Q1217.98 83.9891 1223.08 81.2808 L1223.08 90.3433 Q1217.93 92.5308 1212.51 93.6766 Q1207.09 94.8224 1201.52 94.8224 Q1187.56 94.8224 1179.39 86.6975 Q1171.26 78.5725 1171.26 64.7184 Q1171.26 50.3956 1178.97 42.0102 Q1186.73 33.5727 1199.85 33.5727 Q1211.62 33.5727 1218.45 41.1769 Q1225.32 48.7289 1225.32 61.7497 M1215.74 58.9372 Q1215.64 51.0726 1211.31 46.3852 Q1207.04 41.6977 1199.96 41.6977 Q1191.94 41.6977 1187.09 46.2289 Q1182.3 50.7601 1181.57 58.9893 L1215.74 58.9372 Z" fill="#000000" fill-rule="nonzero" fill-opacity="1"></path><path clip-path="url(#clip080)" d="M1274.85 43.9373 Q1273.24 42.9998 1271.31 42.5831 Q1269.44 42.1144 1267.15 42.1144 Q1259.02 42.1144 1254.65 47.4268 Q1250.32 52.6872 1250.32 62.583 L1250.32 93.312 L1240.69 93.312 L1240.69 34.979 L1250.32 34.979 L1250.32 44.0414 Q1253.34 38.729 1258.19 36.1769 Q1263.03 33.5727 1269.96 33.5727 Q1270.95 33.5727 1272.15 33.729 Q1273.34 33.8332 1274.8 34.0936 L1274.85 43.9373 Z" fill="#000000" fill-rule="nonzero" fill-opacity="1"></path><path clip-path="url(#clip080)" d="M1284.91 34.979 L1294.49 34.979 L1294.49 93.312 L1284.91 93.312 L1284.91 34.979 M1284.91 12.2708 L1294.49 12.2708 L1294.49 24.4061 L1284.91 24.4061 L1284.91 12.2708 Z" fill="#000000" fill-rule="nonzero" fill-opacity="1"></path><path clip-path="url(#clip080)" d="M1364.44 61.7497 L1364.44 66.4371 L1320.37 66.4371 Q1321 76.3329 1326.31 81.5412 Q1331.68 86.6975 1341.21 86.6975 Q1346.73 86.6975 1351.88 85.3433 Q1357.09 83.9891 1362.2 81.2808 L1362.2 90.3433 Q1357.04 92.5308 1351.62 93.6766 Q1346.21 94.8224 1340.63 94.8224 Q1326.68 94.8224 1318.5 86.6975 Q1310.37 78.5725 1310.37 64.7184 Q1310.37 50.3956 1318.08 42.0102 Q1325.84 33.5727 1338.97 33.5727 Q1350.74 33.5727 1357.56 41.1769 Q1364.44 48.7289 1364.44 61.7497 M1354.85 58.9372 Q1354.75 51.0726 1350.43 46.3852 Q1346.16 41.6977 1339.07 41.6977 Q1331.05 41.6977 1326.21 46.2289 Q1321.42 50.7601 1320.69 58.9893 L1354.85 58.9372 Z" fill="#000000" fill-rule="nonzero" fill-opacity="1"></path><path clip-path="url(#clip080)" d="M1417.35 36.6977 L1417.35 45.7602 Q1413.29 43.6768 1408.92 42.6352 Q1404.54 41.5935 1399.85 41.5935 Q1392.72 41.5935 1389.12 43.781 Q1385.58 45.9685 1385.58 50.3435 Q1385.58 53.6768 1388.13 55.6039 Q1390.69 57.4789 1398.39 59.1976 L1401.68 59.9268 Q1411.88 62.1143 1416.15 66.1246 Q1420.48 70.083 1420.48 77.2183 Q1420.48 85.3433 1414.02 90.0829 Q1407.61 94.8224 1396.36 94.8224 Q1391.68 94.8224 1386.57 93.8849 Q1381.52 92.9995 1375.89 91.1766 L1375.89 81.2808 Q1381.21 84.0412 1386.36 85.4475 Q1391.52 86.8016 1396.57 86.8016 Q1403.34 86.8016 1406.99 84.51 Q1410.63 82.1662 1410.63 77.9475 Q1410.63 74.0413 1407.98 71.9579 Q1405.37 69.8746 1396.47 67.9476 L1393.13 67.1663 Q1384.23 65.2913 1380.27 61.4372 Q1376.31 57.5309 1376.31 50.7601 Q1376.31 42.531 1382.14 38.0519 Q1387.98 33.5727 1398.71 33.5727 Q1404.02 33.5727 1408.71 34.354 Q1413.39 35.1352 1417.35 36.6977 Z" fill="#000000" fill-rule="nonzero" fill-opacity="1"></path><path clip-path="url(#clip080)" d="M1508.03 43.8331 L1508.03 12.2708 L1517.61 12.2708 L1517.61 93.312 L1508.03 93.312 L1508.03 84.562 Q1505.01 89.7704 1500.37 92.3224 Q1495.79 94.8224 1489.33 94.8224 Q1478.76 94.8224 1472.09 86.385 Q1465.48 77.9475 1465.48 64.1976 Q1465.48 50.4476 1472.09 42.0102 Q1478.76 33.5727 1489.33 33.5727 Q1495.79 33.5727 1500.37 36.1248 Q1505.01 38.6248 1508.03 43.8331 M1475.37 64.1976 Q1475.37 74.7704 1479.7 80.8121 Q1484.07 86.8016 1491.68 86.8016 Q1499.28 86.8016 1503.65 80.8121 Q1508.03 74.7704 1508.03 64.1976 Q1508.03 53.6247 1503.65 47.6352 Q1499.28 41.5935 1491.68 41.5935 Q1484.07 41.5935 1479.7 47.6352 Q1475.37 53.6247 1475.37 64.1976 Z" fill="#000000" fill-rule="nonzero" fill-opacity="1"></path><path clip-path="url(#clip080)" d="M1563.86 63.9892 Q1552.25 63.9892 1547.77 66.6455 Q1543.29 69.3017 1543.29 75.7079 Q1543.29 80.8121 1546.62 83.8329 Q1550.01 86.8016 1555.79 86.8016 Q1563.76 86.8016 1568.55 81.1766 Q1573.39 75.4996 1573.39 66.1246 L1573.39 63.9892 L1563.86 63.9892 M1582.98 60.0309 L1582.98 93.312 L1573.39 93.312 L1573.39 84.4579 Q1570.11 89.7704 1565.22 92.3224 Q1560.32 94.8224 1553.24 94.8224 Q1544.28 94.8224 1538.97 89.8224 Q1533.71 84.7704 1533.71 76.3329 Q1533.71 66.4892 1540.27 61.4893 Q1546.88 56.4893 1559.96 56.4893 L1573.39 56.4893 L1573.39 55.5518 Q1573.39 48.9372 1569.02 45.3435 Q1564.7 41.6977 1556.83 41.6977 Q1551.83 41.6977 1547.09 42.8956 Q1542.35 44.0935 1537.98 46.4893 L1537.98 37.6352 Q1543.24 35.604 1548.19 34.6144 Q1553.13 33.5727 1557.82 33.5727 Q1570.48 33.5727 1576.73 40.1352 Q1582.98 46.6977 1582.98 60.0309 Z" fill="#000000" fill-rule="nonzero" fill-opacity="1"></path><path clip-path="url(#clip080)" d="M1612.2 18.4166 L1612.2 34.979 L1631.93 34.979 L1631.93 42.4269 L1612.2 42.4269 L1612.2 74.0934 Q1612.2 81.2287 1614.12 83.26 Q1616.1 85.2912 1622.09 85.2912 L1631.93 85.2912 L1631.93 93.312 L1622.09 93.312 Q1611 93.312 1606.78 89.1974 Q1602.56 85.0308 1602.56 74.0934 L1602.56 42.4269 L1595.53 42.4269 L1595.53 34.979 L1602.56 34.979 L1602.56 18.4166 L1612.2 18.4166 Z" fill="#000000" fill-rule="nonzero" fill-opacity="1"></path><path clip-path="url(#clip080)" d="M1671.05 63.9892 Q1659.43 63.9892 1654.96 66.6455 Q1650.48 69.3017 1650.48 75.7079 Q1650.48 80.8121 1653.81 83.8329 Q1657.2 86.8016 1662.98 86.8016 Q1670.95 86.8016 1675.74 81.1766 Q1680.58 75.4996 1680.58 66.1246 L1680.58 63.9892 L1671.05 63.9892 M1690.16 60.0309 L1690.16 93.312 L1680.58 93.312 L1680.58 84.4579 Q1677.3 89.7704 1672.4 92.3224 Q1667.51 94.8224 1660.42 94.8224 Q1651.47 94.8224 1646.15 89.8224 Q1640.89 84.7704 1640.89 76.3329 Q1640.89 66.4892 1647.46 61.4893 Q1654.07 56.4893 1667.14 56.4893 L1680.58 56.4893 L1680.58 55.5518 Q1680.58 48.9372 1676.21 45.3435 Q1671.88 41.6977 1664.02 41.6977 Q1659.02 41.6977 1654.28 42.8956 Q1649.54 44.0935 1645.16 46.4893 L1645.16 37.6352 Q1650.42 35.604 1655.37 34.6144 Q1660.32 33.5727 1665.01 33.5727 Q1677.66 33.5727 1683.91 40.1352 Q1690.16 46.6977 1690.16 60.0309 Z" fill="#000000" fill-rule="nonzero" fill-opacity="1"></path><circle clip-path="url(#clip082)" cx="214.238" cy="1425.62" r="14.4" fill="#ffffff" fill-rule="evenodd" fill-opacity="1" stroke="#000000" stroke-opacity="1" stroke-width="1.6"></circle>
<circle clip-path="url(#clip082)" cx="235.21" cy="1344.11" r="14.4" fill="#ffffff" fill-rule="evenodd" fill-opacity="1" stroke="#000000" stroke-opacity="1" stroke-width="1.6"></circle>
<circle clip-path="url(#clip082)" cx="256.182" cy="1343.52" r="14.4" fill="#ffffff" fill-rule="evenodd" fill-opacity="1" stroke="#000000" stroke-opacity="1" stroke-width="1.6"></circle>
<circle clip-path="url(#clip082)" cx="277.154" cy="1427.93" r="14.4" fill="#ffffff" fill-rule="evenodd" fill-opacity="1" stroke="#000000" stroke-opacity="1" stroke-width="1.6"></circle>
<circle clip-path="url(#clip082)" cx="298.126" cy="1127.88" r="14.4" fill="#ffffff" fill-rule="evenodd" fill-opacity="1" stroke="#000000" stroke-opacity="1" stroke-width="1.6"></circle>
<circle clip-path="url(#clip082)" cx="319.098" cy="1421.15" r="14.4" fill="#ffffff" fill-rule="evenodd" fill-opacity="1" stroke="#000000" stroke-opacity="1" stroke-width="1.6"></circle>
<circle clip-path="url(#clip082)" cx="340.07" cy="1272.59" r="14.4" fill="#ffffff" fill-rule="evenodd" fill-opacity="1" stroke="#000000" stroke-opacity="1" stroke-width="1.6"></circle>
<circle clip-path="url(#clip082)" cx="361.042" cy="1397.76" r="14.4" fill="#ffffff" fill-rule="evenodd" fill-opacity="1" stroke="#000000" stroke-opacity="1" stroke-width="1.6"></circle>
<circle clip-path="url(#clip082)" cx="382.014" cy="1429.17" r="14.4" fill="#ffffff" fill-rule="evenodd" fill-opacity="1" stroke="#000000" stroke-opacity="1" stroke-width="1.6"></circle>
<circle clip-path="url(#clip082)" cx="402.986" cy="1415.21" r="14.4" fill="#ffffff" fill-rule="evenodd" fill-opacity="1" stroke="#000000" stroke-opacity="1" stroke-width="1.6"></circle>
<circle clip-path="url(#clip082)" cx="423.958" cy="1427.09" r="14.4" fill="#ffffff" fill-rule="evenodd" fill-opacity="1" stroke="#000000" stroke-opacity="1" stroke-width="1.6"></circle>
<circle clip-path="url(#clip082)" cx="444.931" cy="1400.8" r="14.4" fill="#ffffff" fill-rule="evenodd" fill-opacity="1" stroke="#000000" stroke-opacity="1" stroke-width="1.6"></circle>
<circle clip-path="url(#clip082)" cx="465.903" cy="1439.48" r="14.4" fill="#ffffff" fill-rule="evenodd" fill-opacity="1" stroke="#000000" stroke-opacity="1" stroke-width="1.6"></circle>
<circle clip-path="url(#clip082)" cx="486.875" cy="1376.57" r="14.4" fill="#ffffff" fill-rule="evenodd" fill-opacity="1" stroke="#000000" stroke-opacity="1" stroke-width="1.6"></circle>
<circle clip-path="url(#clip082)" cx="507.847" cy="178.593" r="14.4" fill="#ffffff" fill-rule="evenodd" fill-opacity="1" stroke="#000000" stroke-opacity="1" stroke-width="1.6"></circle>
<circle clip-path="url(#clip082)" cx="528.819" cy="1408.77" r="14.4" fill="#ffffff" fill-rule="evenodd" fill-opacity="1" stroke="#000000" stroke-opacity="1" stroke-width="1.6"></circle>
<circle clip-path="url(#clip082)" cx="549.791" cy="1338.97" r="14.4" fill="#ffffff" fill-rule="evenodd" fill-opacity="1" stroke="#000000" stroke-opacity="1" stroke-width="1.6"></circle>
<circle clip-path="url(#clip082)" cx="570.763" cy="1366.1" r="14.4" fill="#ffffff" fill-rule="evenodd" fill-opacity="1" stroke="#000000" stroke-opacity="1" stroke-width="1.6"></circle>
<circle clip-path="url(#clip082)" cx="591.735" cy="1363.4" r="14.4" fill="#ffffff" fill-rule="evenodd" fill-opacity="1" stroke="#000000" stroke-opacity="1" stroke-width="1.6"></circle>
<circle clip-path="url(#clip082)" cx="612.707" cy="1398.05" r="14.4" fill="#ffffff" fill-rule="evenodd" fill-opacity="1" stroke="#000000" stroke-opacity="1" stroke-width="1.6"></circle>
<circle clip-path="url(#clip082)" cx="633.679" cy="1329.41" r="14.4" fill="#ffffff" fill-rule="evenodd" fill-opacity="1" stroke="#000000" stroke-opacity="1" stroke-width="1.6"></circle>
<circle clip-path="url(#clip082)" cx="654.651" cy="1213.67" r="14.4" fill="#ffffff" fill-rule="evenodd" fill-opacity="1" stroke="#000000" stroke-opacity="1" stroke-width="1.6"></circle>
<circle clip-path="url(#clip082)" cx="675.623" cy="1171.31" r="14.4" fill="#ffffff" fill-rule="evenodd" fill-opacity="1" stroke="#000000" stroke-opacity="1" stroke-width="1.6"></circle>
<circle clip-path="url(#clip082)" cx="696.595" cy="1345.72" r="14.4" fill="#ffffff" fill-rule="evenodd" fill-opacity="1" stroke="#000000" stroke-opacity="1" stroke-width="1.6"></circle>
<circle clip-path="url(#clip082)" cx="717.567" cy="1356.5" r="14.4" fill="#ffffff" fill-rule="evenodd" fill-opacity="1" stroke="#000000" stroke-opacity="1" stroke-width="1.6"></circle>
<circle clip-path="url(#clip082)" cx="738.539" cy="1439.97" r="14.4" fill="#ffffff" fill-rule="evenodd" fill-opacity="1" stroke="#000000" stroke-opacity="1" stroke-width="1.6"></circle>
<circle clip-path="url(#clip082)" cx="759.511" cy="1375.49" r="14.4" fill="#ffffff" fill-rule="evenodd" fill-opacity="1" stroke="#000000" stroke-opacity="1" stroke-width="1.6"></circle>
<circle clip-path="url(#clip082)" cx="780.483" cy="1353.16" r="14.4" fill="#ffffff" fill-rule="evenodd" fill-opacity="1" stroke="#000000" stroke-opacity="1" stroke-width="1.6"></circle>
<circle clip-path="url(#clip082)" cx="801.455" cy="1398.33" r="14.4" fill="#ffffff" fill-rule="evenodd" fill-opacity="1" stroke="#000000" stroke-opacity="1" stroke-width="1.6"></circle>
<circle clip-path="url(#clip082)" cx="822.427" cy="1409.06" r="14.4" fill="#ffffff" fill-rule="evenodd" fill-opacity="1" stroke="#000000" stroke-opacity="1" stroke-width="1.6"></circle>
<circle clip-path="url(#clip082)" cx="843.399" cy="1246.02" r="14.4" fill="#ffffff" fill-rule="evenodd" fill-opacity="1" stroke="#000000" stroke-opacity="1" stroke-width="1.6"></circle>
<circle clip-path="url(#clip082)" cx="864.371" cy="1429.83" r="14.4" fill="#ffffff" fill-rule="evenodd" fill-opacity="1" stroke="#000000" stroke-opacity="1" stroke-width="1.6"></circle>
<circle clip-path="url(#clip082)" cx="885.343" cy="1370.13" r="14.4" fill="#ffffff" fill-rule="evenodd" fill-opacity="1" stroke="#000000" stroke-opacity="1" stroke-width="1.6"></circle>
<circle clip-path="url(#clip082)" cx="906.315" cy="1337.05" r="14.4" fill="#ffffff" fill-rule="evenodd" fill-opacity="1" stroke="#000000" stroke-opacity="1" stroke-width="1.6"></circle>
<circle clip-path="url(#clip082)" cx="927.287" cy="938.09" r="14.4" fill="#ffffff" fill-rule="evenodd" fill-opacity="1" stroke="#000000" stroke-opacity="1" stroke-width="1.6"></circle>
<circle clip-path="url(#clip082)" cx="948.259" cy="1341.39" r="14.4" fill="#ffffff" fill-rule="evenodd" fill-opacity="1" stroke="#000000" stroke-opacity="1" stroke-width="1.6"></circle>
<circle clip-path="url(#clip082)" cx="969.231" cy="1395.31" r="14.4" fill="#ffffff" fill-rule="evenodd" fill-opacity="1" stroke="#000000" stroke-opacity="1" stroke-width="1.6"></circle>
<circle clip-path="url(#clip082)" cx="990.203" cy="1363.15" r="14.4" fill="#ffffff" fill-rule="evenodd" fill-opacity="1" stroke="#000000" stroke-opacity="1" stroke-width="1.6"></circle>
<circle clip-path="url(#clip082)" cx="1011.18" cy="1414.61" r="14.4" fill="#ffffff" fill-rule="evenodd" fill-opacity="1" stroke="#000000" stroke-opacity="1" stroke-width="1.6"></circle>
<circle clip-path="url(#clip082)" cx="1032.15" cy="1333.81" r="14.4" fill="#ffffff" fill-rule="evenodd" fill-opacity="1" stroke="#000000" stroke-opacity="1" stroke-width="1.6"></circle>
<circle clip-path="url(#clip082)" cx="1053.12" cy="1410.49" r="14.4" fill="#ffffff" fill-rule="evenodd" fill-opacity="1" stroke="#000000" stroke-opacity="1" stroke-width="1.6"></circle>
<circle clip-path="url(#clip082)" cx="1074.09" cy="1350.85" r="14.4" fill="#ffffff" fill-rule="evenodd" fill-opacity="1" stroke="#000000" stroke-opacity="1" stroke-width="1.6"></circle>
<circle clip-path="url(#clip082)" cx="1095.06" cy="1197.66" r="14.4" fill="#ffffff" fill-rule="evenodd" fill-opacity="1" stroke="#000000" stroke-opacity="1" stroke-width="1.6"></circle>
<circle clip-path="url(#clip082)" cx="1116.04" cy="1375.1" r="14.4" fill="#ffffff" fill-rule="evenodd" fill-opacity="1" stroke="#000000" stroke-opacity="1" stroke-width="1.6"></circle>
<circle clip-path="url(#clip082)" cx="1137.01" cy="686.645" r="14.4" fill="#ffffff" fill-rule="evenodd" fill-opacity="1" stroke="#000000" stroke-opacity="1" stroke-width="1.6"></circle>
<circle clip-path="url(#clip082)" cx="1157.98" cy="1249.97" r="14.4" fill="#ffffff" fill-rule="evenodd" fill-opacity="1" stroke="#000000" stroke-opacity="1" stroke-width="1.6"></circle>
<circle clip-path="url(#clip082)" cx="1178.95" cy="1357.4" r="14.4" fill="#ffffff" fill-rule="evenodd" fill-opacity="1" stroke="#000000" stroke-opacity="1" stroke-width="1.6"></circle>
<circle clip-path="url(#clip082)" cx="1199.92" cy="1425.07" r="14.4" fill="#ffffff" fill-rule="evenodd" fill-opacity="1" stroke="#000000" stroke-opacity="1" stroke-width="1.6"></circle>
<circle clip-path="url(#clip082)" cx="1220.9" cy="1311.41" r="14.4" fill="#ffffff" fill-rule="evenodd" fill-opacity="1" stroke="#000000" stroke-opacity="1" stroke-width="1.6"></circle>
<circle clip-path="url(#clip082)" cx="1241.87" cy="1334.31" r="14.4" fill="#ffffff" fill-rule="evenodd" fill-opacity="1" stroke="#000000" stroke-opacity="1" stroke-width="1.6"></circle>
<circle clip-path="url(#clip082)" cx="1262.84" cy="1423.85" r="14.4" fill="#ffffff" fill-rule="evenodd" fill-opacity="1" stroke="#000000" stroke-opacity="1" stroke-width="1.6"></circle>
<circle clip-path="url(#clip082)" cx="1283.81" cy="1405.89" r="14.4" fill="#ffffff" fill-rule="evenodd" fill-opacity="1" stroke="#000000" stroke-opacity="1" stroke-width="1.6"></circle>
<circle clip-path="url(#clip082)" cx="1304.78" cy="1388.82" r="14.4" fill="#ffffff" fill-rule="evenodd" fill-opacity="1" stroke="#000000" stroke-opacity="1" stroke-width="1.6"></circle>
<circle clip-path="url(#clip082)" cx="1325.76" cy="1406.89" r="14.4" fill="#ffffff" fill-rule="evenodd" fill-opacity="1" stroke="#000000" stroke-opacity="1" stroke-width="1.6"></circle>
<circle clip-path="url(#clip082)" cx="1346.73" cy="1358.19" r="14.4" fill="#ffffff" fill-rule="evenodd" fill-opacity="1" stroke="#000000" stroke-opacity="1" stroke-width="1.6"></circle>
<circle clip-path="url(#clip082)" cx="1367.7" cy="1375.6" r="14.4" fill="#ffffff" fill-rule="evenodd" fill-opacity="1" stroke="#000000" stroke-opacity="1" stroke-width="1.6"></circle>
<circle clip-path="url(#clip082)" cx="1388.67" cy="1383.79" r="14.4" fill="#ffffff" fill-rule="evenodd" fill-opacity="1" stroke="#000000" stroke-opacity="1" stroke-width="1.6"></circle>
<circle clip-path="url(#clip082)" cx="1409.64" cy="1380.1" r="14.4" fill="#ffffff" fill-rule="evenodd" fill-opacity="1" stroke="#000000" stroke-opacity="1" stroke-width="1.6"></circle>
<circle clip-path="url(#clip082)" cx="1430.62" cy="1288.27" r="14.4" fill="#ffffff" fill-rule="evenodd" fill-opacity="1" stroke="#000000" stroke-opacity="1" stroke-width="1.6"></circle>
<circle clip-path="url(#clip082)" cx="1451.59" cy="1429.61" r="14.4" fill="#ffffff" fill-rule="evenodd" fill-opacity="1" stroke="#000000" stroke-opacity="1" stroke-width="1.6"></circle>
<circle clip-path="url(#clip082)" cx="1472.56" cy="890.841" r="14.4" fill="#ffffff" fill-rule="evenodd" fill-opacity="1" stroke="#000000" stroke-opacity="1" stroke-width="1.6"></circle>
<circle clip-path="url(#clip082)" cx="1493.53" cy="1341.65" r="14.4" fill="#ffffff" fill-rule="evenodd" fill-opacity="1" stroke="#000000" stroke-opacity="1" stroke-width="1.6"></circle>
<circle clip-path="url(#clip082)" cx="1514.5" cy="1434.48" r="14.4" fill="#ffffff" fill-rule="evenodd" fill-opacity="1" stroke="#000000" stroke-opacity="1" stroke-width="1.6"></circle>
<circle clip-path="url(#clip082)" cx="1535.48" cy="1402.82" r="14.4" fill="#ffffff" fill-rule="evenodd" fill-opacity="1" stroke="#000000" stroke-opacity="1" stroke-width="1.6"></circle>
<circle clip-path="url(#clip082)" cx="1556.45" cy="1399.6" r="14.4" fill="#ffffff" fill-rule="evenodd" fill-opacity="1" stroke="#000000" stroke-opacity="1" stroke-width="1.6"></circle>
<circle clip-path="url(#clip082)" cx="1577.42" cy="1433.36" r="14.4" fill="#ffffff" fill-rule="evenodd" fill-opacity="1" stroke="#000000" stroke-opacity="1" stroke-width="1.6"></circle>
<circle clip-path="url(#clip082)" cx="1598.39" cy="1410.25" r="14.4" fill="#ffffff" fill-rule="evenodd" fill-opacity="1" stroke="#000000" stroke-opacity="1" stroke-width="1.6"></circle>
<circle clip-path="url(#clip082)" cx="1619.36" cy="1242.08" r="14.4" fill="#ffffff" fill-rule="evenodd" fill-opacity="1" stroke="#000000" stroke-opacity="1" stroke-width="1.6"></circle>
<circle clip-path="url(#clip082)" cx="1640.34" cy="1364.21" r="14.4" fill="#ffffff" fill-rule="evenodd" fill-opacity="1" stroke="#000000" stroke-opacity="1" stroke-width="1.6"></circle>
<circle clip-path="url(#clip082)" cx="1661.31" cy="1389.55" r="14.4" fill="#ffffff" fill-rule="evenodd" fill-opacity="1" stroke="#000000" stroke-opacity="1" stroke-width="1.6"></circle>
<circle clip-path="url(#clip082)" cx="1682.28" cy="1355.9" r="14.4" fill="#ffffff" fill-rule="evenodd" fill-opacity="1" stroke="#000000" stroke-opacity="1" stroke-width="1.6"></circle>
<circle clip-path="url(#clip082)" cx="1703.25" cy="1230.87" r="14.4" fill="#ffffff" fill-rule="evenodd" fill-opacity="1" stroke="#000000" stroke-opacity="1" stroke-width="1.6"></circle>
<circle clip-path="url(#clip082)" cx="1724.22" cy="1248.08" r="14.4" fill="#ffffff" fill-rule="evenodd" fill-opacity="1" stroke="#000000" stroke-opacity="1" stroke-width="1.6"></circle>
<circle clip-path="url(#clip082)" cx="1745.2" cy="1340.17" r="14.4" fill="#ffffff" fill-rule="evenodd" fill-opacity="1" stroke="#000000" stroke-opacity="1" stroke-width="1.6"></circle>
<circle clip-path="url(#clip082)" cx="1766.17" cy="1075.67" r="14.4" fill="#ffffff" fill-rule="evenodd" fill-opacity="1" stroke="#000000" stroke-opacity="1" stroke-width="1.6"></circle>
<circle clip-path="url(#clip082)" cx="1787.14" cy="1351.21" r="14.4" fill="#ffffff" fill-rule="evenodd" fill-opacity="1" stroke="#000000" stroke-opacity="1" stroke-width="1.6"></circle>
<circle clip-path="url(#clip082)" cx="1808.11" cy="1298.78" r="14.4" fill="#ffffff" fill-rule="evenodd" fill-opacity="1" stroke="#000000" stroke-opacity="1" stroke-width="1.6"></circle>
<circle clip-path="url(#clip082)" cx="1829.08" cy="1413.13" r="14.4" fill="#ffffff" fill-rule="evenodd" fill-opacity="1" stroke="#000000" stroke-opacity="1" stroke-width="1.6"></circle>
<circle clip-path="url(#clip082)" cx="1850.06" cy="1373.65" r="14.4" fill="#ffffff" fill-rule="evenodd" fill-opacity="1" stroke="#000000" stroke-opacity="1" stroke-width="1.6"></circle>
<circle clip-path="url(#clip082)" cx="1871.03" cy="1350.31" r="14.4" fill="#ffffff" fill-rule="evenodd" fill-opacity="1" stroke="#000000" stroke-opacity="1" stroke-width="1.6"></circle>
<circle clip-path="url(#clip082)" cx="1892" cy="1434.76" r="14.4" fill="#ffffff" fill-rule="evenodd" fill-opacity="1" stroke="#000000" stroke-opacity="1" stroke-width="1.6"></circle>
<circle clip-path="url(#clip082)" cx="1912.97" cy="1360.56" r="14.4" fill="#ffffff" fill-rule="evenodd" fill-opacity="1" stroke="#000000" stroke-opacity="1" stroke-width="1.6"></circle>
<circle clip-path="url(#clip082)" cx="1933.94" cy="1238.8" r="14.4" fill="#ffffff" fill-rule="evenodd" fill-opacity="1" stroke="#000000" stroke-opacity="1" stroke-width="1.6"></circle>
<circle clip-path="url(#clip082)" cx="1954.92" cy="1392.38" r="14.4" fill="#ffffff" fill-rule="evenodd" fill-opacity="1" stroke="#000000" stroke-opacity="1" stroke-width="1.6"></circle>
<circle clip-path="url(#clip082)" cx="1975.89" cy="1381.81" r="14.4" fill="#ffffff" fill-rule="evenodd" fill-opacity="1" stroke="#000000" stroke-opacity="1" stroke-width="1.6"></circle>
<circle clip-path="url(#clip082)" cx="1996.86" cy="1401.7" r="14.4" fill="#ffffff" fill-rule="evenodd" fill-opacity="1" stroke="#000000" stroke-opacity="1" stroke-width="1.6"></circle>
<circle clip-path="url(#clip082)" cx="2017.83" cy="1375.87" r="14.4" fill="#ffffff" fill-rule="evenodd" fill-opacity="1" stroke="#000000" stroke-opacity="1" stroke-width="1.6"></circle>
<circle clip-path="url(#clip082)" cx="2038.8" cy="1347.99" r="14.4" fill="#ffffff" fill-rule="evenodd" fill-opacity="1" stroke="#000000" stroke-opacity="1" stroke-width="1.6"></circle>
<circle clip-path="url(#clip082)" cx="2059.78" cy="1412.5" r="14.4" fill="#ffffff" fill-rule="evenodd" fill-opacity="1" stroke="#000000" stroke-opacity="1" stroke-width="1.6"></circle>
<circle clip-path="url(#clip082)" cx="2080.75" cy="1414.89" r="14.4" fill="#ffffff" fill-rule="evenodd" fill-opacity="1" stroke="#000000" stroke-opacity="1" stroke-width="1.6"></circle>
<circle clip-path="url(#clip082)" cx="2101.72" cy="1255.17" r="14.4" fill="#ffffff" fill-rule="evenodd" fill-opacity="1" stroke="#000000" stroke-opacity="1" stroke-width="1.6"></circle>
<circle clip-path="url(#clip082)" cx="2122.69" cy="1419.37" r="14.4" fill="#ffffff" fill-rule="evenodd" fill-opacity="1" stroke="#000000" stroke-opacity="1" stroke-width="1.6"></circle>
<circle clip-path="url(#clip082)" cx="2143.66" cy="1430.33" r="14.4" fill="#ffffff" fill-rule="evenodd" fill-opacity="1" stroke="#000000" stroke-opacity="1" stroke-width="1.6"></circle>
<circle clip-path="url(#clip082)" cx="2164.64" cy="1416.48" r="14.4" fill="#ffffff" fill-rule="evenodd" fill-opacity="1" stroke="#000000" stroke-opacity="1" stroke-width="1.6"></circle>
<circle clip-path="url(#clip082)" cx="2185.61" cy="1417.87" r="14.4" fill="#ffffff" fill-rule="evenodd" fill-opacity="1" stroke="#000000" stroke-opacity="1" stroke-width="1.6"></circle>
<circle clip-path="url(#clip082)" cx="2206.58" cy="1436.09" r="14.4" fill="#ffffff" fill-rule="evenodd" fill-opacity="1" stroke="#000000" stroke-opacity="1" stroke-width="1.6"></circle>
<circle clip-path="url(#clip082)" cx="2227.55" cy="1109.85" r="14.4" fill="#ffffff" fill-rule="evenodd" fill-opacity="1" stroke="#000000" stroke-opacity="1" stroke-width="1.6"></circle>
<circle clip-path="url(#clip082)" cx="2248.52" cy="1395.48" r="14.4" fill="#ffffff" fill-rule="evenodd" fill-opacity="1" stroke="#000000" stroke-opacity="1" stroke-width="1.6"></circle>
<circle clip-path="url(#clip082)" cx="2269.5" cy="1358.62" r="14.4" fill="#ffffff" fill-rule="evenodd" fill-opacity="1" stroke="#000000" stroke-opacity="1" stroke-width="1.6"></circle>
<circle clip-path="url(#clip082)" cx="2290.47" cy="1421.85" r="14.4" fill="#ffffff" fill-rule="evenodd" fill-opacity="1" stroke="#000000" stroke-opacity="1" stroke-width="1.6"></circle>
<circle clip-path="url(#clip082)" cx="507.847" cy="178.593" r="14.4" fill="#ff0000" fill-rule="evenodd" fill-opacity="1" stroke="none"></circle>
<circle clip-path="url(#clip082)" cx="927.287" cy="938.09" r="14.4" fill="#ff0000" fill-rule="evenodd" fill-opacity="1" stroke="none"></circle>
<circle clip-path="url(#clip082)" cx="1137.01" cy="686.645" r="14.4" fill="#ff0000" fill-rule="evenodd" fill-opacity="1" stroke="none"></circle>
<circle clip-path="url(#clip082)" cx="1472.56" cy="890.841" r="14.4" fill="#ff0000" fill-rule="evenodd" fill-opacity="1" stroke="none"></circle>
<circle clip-path="url(#clip082)" cx="1766.17" cy="1075.67" r="14.4" fill="#ff0000" fill-rule="evenodd" fill-opacity="1" stroke="none"></circle>
<polyline clip-path="url(#clip082)" style="stroke:#ff0000; stroke-linecap:round; stroke-linejoin:round; stroke-width:6; stroke-opacity:1; fill:none" stroke-dasharray="24, 15" points="-2048.85,1108.14 4553.56,1108.14 "></polyline>
<path clip-path="url(#clip080)" d="M1364.82 379.721 L2279.4 379.721 L2279.4 185.321 L1364.82 185.321  Z" fill="#ffffff" fill-rule="evenodd" fill-opacity="1"></path>
<polyline clip-path="url(#clip080)" style="stroke:#000000; stroke-linecap:round; stroke-linejoin:round; stroke-width:4; stroke-opacity:1; fill:none" points="1364.82,379.721 2279.4,379.721 2279.4,185.321 1364.82,185.321 1364.82,379.721 "></polyline>
<circle clip-path="url(#clip080)" cx="1462.63" cy="250.121" r="27.1059" fill="#ff0000" fill-rule="evenodd" fill-opacity="1" stroke="none"></circle>
<path clip-path="url(#clip080)" d="M1560.44 228.521 L1596.99 228.521 L1596.99 233.44 L1581.65 233.44 L1581.65 271.721 L1575.78 271.721 L1575.78 233.44 L1560.44 233.44 L1560.44 228.521 Z" fill="#000000" fill-rule="nonzero" fill-opacity="1"></path><path clip-path="url(#clip080)" d="M1629.34 252.161 L1629.34 271.721 L1624.01 271.721 L1624.01 252.334 Q1624.01 247.734 1622.22 245.448 Q1620.43 243.162 1616.84 243.162 Q1612.53 243.162 1610.04 245.911 Q1607.55 248.659 1607.55 253.405 L1607.55 271.721 L1602.2 271.721 L1602.2 226.698 L1607.55 226.698 L1607.55 244.348 Q1609.46 241.426 1612.03 239.979 Q1614.64 238.532 1618.02 238.532 Q1623.61 238.532 1626.47 242.004 Q1629.34 245.448 1629.34 252.161 Z" fill="#000000" fill-rule="nonzero" fill-opacity="1"></path><path clip-path="url(#clip080)" d="M1658.74 244.29 Q1657.84 243.769 1656.77 243.538 Q1655.73 243.278 1654.45 243.278 Q1649.94 243.278 1647.51 246.229 Q1645.11 249.151 1645.11 254.649 L1645.11 271.721 L1639.75 271.721 L1639.75 239.313 L1645.11 239.313 L1645.11 244.348 Q1646.79 241.397 1649.48 239.979 Q1652.17 238.532 1656.02 238.532 Q1656.57 238.532 1657.23 238.619 Q1657.9 238.677 1658.71 238.822 L1658.74 244.29 Z" fill="#000000" fill-rule="nonzero" fill-opacity="1"></path><path clip-path="url(#clip080)" d="M1690.74 254.186 L1690.74 256.79 L1666.26 256.79 Q1666.61 262.288 1669.56 265.181 Q1672.54 268.046 1677.83 268.046 Q1680.9 268.046 1683.76 267.294 Q1686.66 266.541 1689.49 265.037 L1689.49 270.071 Q1686.63 271.287 1683.62 271.923 Q1680.61 272.56 1677.51 272.56 Q1669.76 272.56 1665.22 268.046 Q1660.7 263.532 1660.7 255.835 Q1660.7 247.878 1664.99 243.22 Q1669.3 238.532 1676.59 238.532 Q1683.13 238.532 1686.92 242.757 Q1690.74 246.952 1690.74 254.186 M1685.41 252.624 Q1685.36 248.254 1682.95 245.65 Q1680.58 243.046 1676.65 243.046 Q1672.19 243.046 1669.5 245.563 Q1666.84 248.081 1666.43 252.652 L1685.41 252.624 Z" fill="#000000" fill-rule="nonzero" fill-opacity="1"></path><path clip-path="url(#clip080)" d="M1720.14 240.268 L1720.14 245.303 Q1717.88 244.146 1715.45 243.567 Q1713.02 242.988 1710.41 242.988 Q1706.45 242.988 1704.45 244.203 Q1702.49 245.419 1702.49 247.849 Q1702.49 249.701 1703.9 250.772 Q1705.32 251.813 1709.6 252.768 L1711.43 253.173 Q1717.1 254.389 1719.47 256.617 Q1721.87 258.816 1721.87 262.78 Q1721.87 267.294 1718.28 269.927 Q1714.73 272.56 1708.48 272.56 Q1705.87 272.56 1703.04 272.039 Q1700.23 271.547 1697.1 270.534 L1697.1 265.037 Q1700.06 266.57 1702.92 267.351 Q1705.78 268.104 1708.59 268.104 Q1712.35 268.104 1714.38 266.831 Q1716.4 265.529 1716.4 263.185 Q1716.4 261.015 1714.93 259.857 Q1713.48 258.7 1708.53 257.629 L1706.68 257.195 Q1701.73 256.154 1699.53 254.012 Q1697.34 251.842 1697.34 248.081 Q1697.34 243.509 1700.58 241.021 Q1703.82 238.532 1709.78 238.532 Q1712.73 238.532 1715.33 238.966 Q1717.94 239.4 1720.14 240.268 Z" fill="#000000" fill-rule="nonzero" fill-opacity="1"></path><path clip-path="url(#clip080)" d="M1757.29 252.161 L1757.29 271.721 L1751.96 271.721 L1751.96 252.334 Q1751.96 247.734 1750.17 245.448 Q1748.38 243.162 1744.79 243.162 Q1740.48 243.162 1737.99 245.911 Q1735.5 248.659 1735.5 253.405 L1735.5 271.721 L1730.15 271.721 L1730.15 226.698 L1735.5 226.698 L1735.5 244.348 Q1737.41 241.426 1739.99 239.979 Q1742.59 238.532 1745.98 238.532 Q1751.56 238.532 1754.42 242.004 Q1757.29 245.448 1757.29 252.161 Z" fill="#000000" fill-rule="nonzero" fill-opacity="1"></path><path clip-path="url(#clip080)" d="M1780.47 243.046 Q1776.18 243.046 1773.69 246.402 Q1771.21 249.73 1771.21 255.546 Q1771.21 261.362 1773.67 264.718 Q1776.15 268.046 1780.47 268.046 Q1784.72 268.046 1787.21 264.689 Q1789.7 261.333 1789.7 255.546 Q1789.7 249.788 1787.21 246.431 Q1784.72 243.046 1780.47 243.046 M1780.47 238.532 Q1787.41 238.532 1791.37 243.046 Q1795.34 247.56 1795.34 255.546 Q1795.34 263.503 1791.37 268.046 Q1787.41 272.56 1780.47 272.56 Q1773.49 272.56 1769.53 268.046 Q1765.59 263.503 1765.59 255.546 Q1765.59 247.56 1769.53 243.046 Q1773.49 238.532 1780.47 238.532 Z" fill="#000000" fill-rule="nonzero" fill-opacity="1"></path><path clip-path="url(#clip080)" d="M1804.16 226.698 L1809.49 226.698 L1809.49 271.721 L1804.16 271.721 L1804.16 226.698 Z" fill="#000000" fill-rule="nonzero" fill-opacity="1"></path><path clip-path="url(#clip080)" d="M1841.95 244.232 L1841.95 226.698 L1847.28 226.698 L1847.28 271.721 L1841.95 271.721 L1841.95 266.86 Q1840.27 269.753 1837.7 271.171 Q1835.15 272.56 1831.57 272.56 Q1825.69 272.56 1821.99 267.872 Q1818.31 263.185 1818.31 255.546 Q1818.31 247.907 1821.99 243.22 Q1825.69 238.532 1831.57 238.532 Q1835.15 238.532 1837.7 239.95 Q1840.27 241.339 1841.95 244.232 M1823.81 255.546 Q1823.81 261.42 1826.21 264.776 Q1828.64 268.104 1832.87 268.104 Q1837.09 268.104 1839.52 264.776 Q1841.95 261.42 1841.95 255.546 Q1841.95 249.672 1839.52 246.345 Q1837.09 242.988 1832.87 242.988 Q1828.64 242.988 1826.21 246.345 Q1823.81 249.672 1823.81 255.546 Z" fill="#000000" fill-rule="nonzero" fill-opacity="1"></path><path clip-path="url(#clip080)" d="M1904.8 254.186 L1904.8 256.79 L1880.32 256.79 Q1880.67 262.288 1883.62 265.181 Q1886.6 268.046 1891.89 268.046 Q1894.96 268.046 1897.83 267.294 Q1900.72 266.541 1903.56 265.037 L1903.56 270.071 Q1900.69 271.287 1897.68 271.923 Q1894.67 272.56 1891.58 272.56 Q1883.82 272.56 1879.28 268.046 Q1874.77 263.532 1874.77 255.835 Q1874.77 247.878 1879.05 243.22 Q1883.36 238.532 1890.65 238.532 Q1897.19 238.532 1900.98 242.757 Q1904.8 246.952 1904.8 254.186 M1899.48 252.624 Q1899.42 248.254 1897.02 245.65 Q1894.64 243.046 1890.71 243.046 Q1886.25 243.046 1883.56 245.563 Q1880.9 248.081 1880.49 252.652 L1899.48 252.624 Z" fill="#000000" fill-rule="nonzero" fill-opacity="1"></path><path clip-path="url(#clip080)" d="M1939.43 239.313 L1927.72 255.083 L1940.04 271.721 L1933.76 271.721 L1924.33 258.989 L1914.9 271.721 L1908.62 271.721 L1921.21 254.765 L1909.69 239.313 L1915.97 239.313 L1924.56 250.858 L1933.16 239.313 L1939.43 239.313 Z" fill="#000000" fill-rule="nonzero" fill-opacity="1"></path><path clip-path="url(#clip080)" d="M1969.85 240.558 L1969.85 245.534 Q1967.59 244.29 1965.3 243.683 Q1963.05 243.046 1960.73 243.046 Q1955.55 243.046 1952.69 246.345 Q1949.82 249.614 1949.82 255.546 Q1949.82 261.478 1952.69 264.776 Q1955.55 268.046 1960.73 268.046 Q1963.05 268.046 1965.3 267.438 Q1967.59 266.802 1969.85 265.557 L1969.85 270.476 Q1967.62 271.518 1965.22 272.039 Q1962.84 272.56 1960.15 272.56 Q1952.83 272.56 1948.52 267.959 Q1944.21 263.358 1944.21 255.546 Q1944.21 247.618 1948.55 243.075 Q1952.92 238.532 1960.5 238.532 Q1962.96 238.532 1965.3 239.053 Q1967.65 239.545 1969.85 240.558 Z" fill="#000000" fill-rule="nonzero" fill-opacity="1"></path><path clip-path="url(#clip080)" d="M2006.82 254.186 L2006.82 256.79 L1982.35 256.79 Q1982.69 262.288 1985.64 265.181 Q1988.62 268.046 1993.92 268.046 Q1996.99 268.046 1999.85 267.294 Q2002.74 266.541 2005.58 265.037 L2005.58 270.071 Q2002.72 271.287 1999.71 271.923 Q1996.7 272.56 1993.6 272.56 Q1985.85 272.56 1981.3 268.046 Q1976.79 263.532 1976.79 255.835 Q1976.79 247.878 1981.07 243.22 Q1985.38 238.532 1992.68 238.532 Q1999.21 238.532 2003.01 242.757 Q2006.82 246.952 2006.82 254.186 M2001.5 252.624 Q2001.44 248.254 1999.04 245.65 Q1996.67 243.046 1992.73 243.046 Q1988.28 243.046 1985.59 245.563 Q1982.92 248.081 1982.52 252.652 L2001.5 252.624 Z" fill="#000000" fill-rule="nonzero" fill-opacity="1"></path><path clip-path="url(#clip080)" d="M2043.28 254.186 L2043.28 256.79 L2018.8 256.79 Q2019.15 262.288 2022.1 265.181 Q2025.08 268.046 2030.38 268.046 Q2033.44 268.046 2036.31 267.294 Q2039.2 266.541 2042.04 265.037 L2042.04 270.071 Q2039.17 271.287 2036.16 271.923 Q2033.16 272.56 2030.06 272.56 Q2022.3 272.56 2017.76 268.046 Q2013.25 263.532 2013.25 255.835 Q2013.25 247.878 2017.53 243.22 Q2021.84 238.532 2029.13 238.532 Q2035.67 238.532 2039.46 242.757 Q2043.28 246.952 2043.28 254.186 M2037.96 252.624 Q2037.9 248.254 2035.5 245.65 Q2033.13 243.046 2029.19 243.046 Q2024.74 243.046 2022.04 245.563 Q2019.38 248.081 2018.98 252.652 L2037.96 252.624 Z" fill="#000000" fill-rule="nonzero" fill-opacity="1"></path><path clip-path="url(#clip080)" d="M2073.35 244.232 L2073.35 226.698 L2078.67 226.698 L2078.67 271.721 L2073.35 271.721 L2073.35 266.86 Q2071.67 269.753 2069.09 271.171 Q2066.55 272.56 2062.96 272.56 Q2057.08 272.56 2053.38 267.872 Q2049.71 263.185 2049.71 255.546 Q2049.71 247.907 2053.38 243.22 Q2057.08 238.532 2062.96 238.532 Q2066.55 238.532 2069.09 239.95 Q2071.67 241.339 2073.35 244.232 M2055.2 255.546 Q2055.2 261.42 2057.61 264.776 Q2060.04 268.104 2064.26 268.104 Q2068.49 268.104 2070.92 264.776 Q2073.35 261.42 2073.35 255.546 Q2073.35 249.672 2070.92 246.345 Q2068.49 242.988 2064.26 242.988 Q2060.04 242.988 2057.61 246.345 Q2055.2 249.672 2055.2 255.546 Z" fill="#000000" fill-rule="nonzero" fill-opacity="1"></path><path clip-path="url(#clip080)" d="M2104.36 255.43 Q2097.91 255.43 2095.42 256.906 Q2092.94 258.382 2092.94 261.941 Q2092.94 264.776 2094.79 266.454 Q2096.67 268.104 2099.88 268.104 Q2104.31 268.104 2106.97 264.979 Q2109.66 261.825 2109.66 256.617 L2109.66 255.43 L2104.36 255.43 M2114.98 253.231 L2114.98 271.721 L2109.66 271.721 L2109.66 266.802 Q2107.84 269.753 2105.12 271.171 Q2102.4 272.56 2098.46 272.56 Q2093.48 272.56 2090.53 269.782 Q2087.61 266.975 2087.61 262.288 Q2087.61 256.819 2091.26 254.041 Q2094.93 251.264 2102.19 251.264 L2109.66 251.264 L2109.66 250.743 Q2109.66 247.068 2107.23 245.071 Q2104.83 243.046 2100.46 243.046 Q2097.68 243.046 2095.05 243.712 Q2092.41 244.377 2089.98 245.708 L2089.98 240.789 Q2092.91 239.661 2095.66 239.111 Q2098.4 238.532 2101.01 238.532 Q2108.04 238.532 2111.51 242.178 Q2114.98 245.824 2114.98 253.231 Z" fill="#000000" fill-rule="nonzero" fill-opacity="1"></path><path clip-path="url(#clip080)" d="M2152.89 252.161 L2152.89 271.721 L2147.56 271.721 L2147.56 252.334 Q2147.56 247.734 2145.77 245.448 Q2143.98 243.162 2140.39 243.162 Q2136.08 243.162 2133.59 245.911 Q2131.1 248.659 2131.1 253.405 L2131.1 271.721 L2125.75 271.721 L2125.75 239.313 L2131.1 239.313 L2131.1 244.348 Q2133.01 241.426 2135.59 239.979 Q2138.19 238.532 2141.57 238.532 Q2147.16 238.532 2150.02 242.004 Q2152.89 245.448 2152.89 252.161 Z" fill="#000000" fill-rule="nonzero" fill-opacity="1"></path><path clip-path="url(#clip080)" d="M2186.83 240.558 L2186.83 245.534 Q2184.57 244.29 2182.29 243.683 Q2180.03 243.046 2177.71 243.046 Q2172.54 243.046 2169.67 246.345 Q2166.81 249.614 2166.81 255.546 Q2166.81 261.478 2169.67 264.776 Q2172.54 268.046 2177.71 268.046 Q2180.03 268.046 2182.29 267.438 Q2184.57 266.802 2186.83 265.557 L2186.83 270.476 Q2184.6 271.518 2182.2 272.039 Q2179.83 272.56 2177.14 272.56 Q2169.82 272.56 2165.5 267.959 Q2161.19 263.358 2161.19 255.546 Q2161.19 247.618 2165.53 243.075 Q2169.9 238.532 2177.48 238.532 Q2179.94 238.532 2182.29 239.053 Q2184.63 239.545 2186.83 240.558 Z" fill="#000000" fill-rule="nonzero" fill-opacity="1"></path><path clip-path="url(#clip080)" d="M2223.81 254.186 L2223.81 256.79 L2199.33 256.79 Q2199.68 262.288 2202.63 265.181 Q2205.61 268.046 2210.9 268.046 Q2213.97 268.046 2216.83 267.294 Q2219.73 266.541 2222.56 265.037 L2222.56 270.071 Q2219.7 271.287 2216.69 271.923 Q2213.68 272.56 2210.58 272.56 Q2202.83 272.56 2198.29 268.046 Q2193.77 263.532 2193.77 255.835 Q2193.77 247.878 2198.06 243.22 Q2202.37 238.532 2209.66 238.532 Q2216.2 238.532 2219.99 242.757 Q2223.81 246.952 2223.81 254.186 M2218.48 252.624 Q2218.43 248.254 2216.02 245.65 Q2213.65 243.046 2209.72 243.046 Q2205.26 243.046 2202.57 245.563 Q2199.91 248.081 2199.5 252.652 L2218.48 252.624 Z" fill="#000000" fill-rule="nonzero" fill-opacity="1"></path><path clip-path="url(#clip080)" d="M2253.21 240.268 L2253.21 245.303 Q2250.95 244.146 2248.52 243.567 Q2246.09 242.988 2243.48 242.988 Q2239.52 242.988 2237.52 244.203 Q2235.56 245.419 2235.56 247.849 Q2235.56 249.701 2236.97 250.772 Q2238.39 251.813 2242.67 252.768 L2244.5 253.173 Q2250.17 254.389 2252.54 256.617 Q2254.94 258.816 2254.94 262.78 Q2254.94 267.294 2251.35 269.927 Q2247.8 272.56 2241.55 272.56 Q2238.94 272.56 2236.11 272.039 Q2233.3 271.547 2230.17 270.534 L2230.17 265.037 Q2233.13 266.57 2235.99 267.351 Q2238.85 268.104 2241.66 268.104 Q2245.42 268.104 2247.45 266.831 Q2249.47 265.529 2249.47 263.185 Q2249.47 261.015 2248 259.857 Q2246.55 258.7 2241.6 257.629 L2239.75 257.195 Q2234.8 256.154 2232.6 254.012 Q2230.41 251.842 2230.41 248.081 Q2230.41 243.509 2233.65 241.021 Q2236.89 238.532 2242.85 238.532 Q2245.8 238.532 2248.4 238.966 Q2251.01 239.4 2253.21 240.268 Z" fill="#000000" fill-rule="nonzero" fill-opacity="1"></path><polyline clip-path="url(#clip080)" style="stroke:#ff0000; stroke-linecap:round; stroke-linejoin:round; stroke-width:7.5; stroke-opacity:1; fill:none" stroke-dasharray="30, 19" points="1389.27,314.921 1535.99,314.921 "></polyline>
<path clip-path="url(#clip080)" d="M1575.37 297.169 Q1570.86 297.169 1568.57 301.625 Q1566.32 306.052 1566.32 314.964 Q1566.32 323.847 1568.57 328.303 Q1570.86 332.73 1575.37 332.73 Q1579.92 332.73 1582.17 328.303 Q1584.46 323.847 1584.46 314.964 Q1584.46 306.052 1582.17 301.625 Q1579.92 297.169 1575.37 297.169 M1575.37 292.539 Q1582.64 292.539 1586.46 298.297 Q1590.3 304.027 1590.3 314.964 Q1590.3 325.873 1586.46 331.631 Q1582.64 337.36 1575.37 337.36 Q1568.11 337.36 1564.26 331.631 Q1560.44 325.873 1560.44 314.964 Q1560.44 304.027 1564.26 298.297 Q1568.11 292.539 1575.37 292.539 Z" fill="#000000" fill-rule="nonzero" fill-opacity="1"></path><path clip-path="url(#clip080)" d="M1600.58 329.171 L1606.68 329.171 L1606.68 336.521 L1600.58 336.521 L1600.58 329.171 Z" fill="#000000" fill-rule="nonzero" fill-opacity="1"></path><path clip-path="url(#clip080)" d="M1619.59 335.624 L1619.59 330.3 Q1621.79 331.341 1624.04 331.891 Q1626.3 332.441 1628.47 332.441 Q1634.26 332.441 1637.3 328.564 Q1640.36 324.657 1640.8 316.729 Q1639.12 319.218 1636.54 320.549 Q1633.97 321.88 1630.84 321.88 Q1624.36 321.88 1620.57 317.973 Q1616.81 314.038 1616.81 307.238 Q1616.81 300.583 1620.74 296.561 Q1624.68 292.539 1631.22 292.539 Q1638.71 292.539 1642.65 298.297 Q1646.61 304.027 1646.61 314.964 Q1646.61 325.178 1641.75 331.283 Q1636.92 337.36 1628.73 337.36 Q1626.53 337.36 1624.27 336.926 Q1622.02 336.492 1619.59 335.624 M1631.22 317.308 Q1635.15 317.308 1637.44 314.617 Q1639.75 311.926 1639.75 307.238 Q1639.75 302.58 1637.44 299.889 Q1635.15 297.169 1631.22 297.169 Q1627.28 297.169 1624.97 299.889 Q1622.68 302.58 1622.68 307.238 Q1622.68 311.926 1624.97 314.617 Q1627.28 317.308 1631.22 317.308 Z" fill="#000000" fill-rule="nonzero" fill-opacity="1"></path><path clip-path="url(#clip080)" d="M1657.17 293.321 L1680.12 293.321 L1680.12 298.24 L1662.53 298.24 L1662.53 308.83 Q1663.8 308.396 1665.07 308.193 Q1666.35 307.962 1667.62 307.962 Q1674.85 307.962 1679.08 311.926 Q1683.3 315.89 1683.3 322.661 Q1683.3 329.634 1678.96 333.511 Q1674.62 337.36 1666.72 337.36 Q1664 337.36 1661.17 336.897 Q1658.36 336.434 1655.35 335.508 L1655.35 329.634 Q1657.95 331.052 1660.73 331.746 Q1663.51 332.441 1666.61 332.441 Q1671.61 332.441 1674.53 329.808 Q1677.46 327.175 1677.46 322.661 Q1677.46 318.147 1674.53 315.514 Q1671.61 312.881 1666.61 312.881 Q1664.26 312.881 1661.92 313.402 Q1659.6 313.922 1657.17 315.022 L1657.17 293.321 Z" fill="#000000" fill-rule="nonzero" fill-opacity="1"></path><path clip-path="url(#clip080)" d="M1716.09 320.346 Q1716.09 326.22 1718.49 329.576 Q1720.92 332.904 1725.14 332.904 Q1729.37 332.904 1731.8 329.576 Q1734.23 326.22 1734.23 320.346 Q1734.23 314.472 1731.8 311.145 Q1729.37 307.788 1725.14 307.788 Q1720.92 307.788 1718.49 311.145 Q1716.09 314.472 1716.09 320.346 M1734.23 331.66 Q1732.55 334.553 1729.97 335.971 Q1727.43 337.36 1723.84 337.36 Q1717.97 337.36 1714.26 332.672 Q1710.59 327.985 1710.59 320.346 Q1710.59 312.707 1714.26 308.02 Q1717.97 303.332 1723.84 303.332 Q1727.43 303.332 1729.97 304.75 Q1732.55 306.139 1734.23 309.032 L1734.23 304.113 L1739.55 304.113 L1739.55 348.847 L1734.23 348.847 L1734.23 331.66 Z" fill="#000000" fill-rule="nonzero" fill-opacity="1"></path><path clip-path="url(#clip080)" d="M1749.97 323.731 L1749.97 304.113 L1755.29 304.113 L1755.29 323.529 Q1755.29 328.129 1757.09 330.444 Q1758.88 332.73 1762.47 332.73 Q1766.78 332.73 1769.27 329.981 Q1771.79 327.233 1771.79 322.487 L1771.79 304.113 L1777.11 304.113 L1777.11 336.521 L1771.79 336.521 L1771.79 331.544 Q1769.85 334.495 1767.27 335.942 Q1764.73 337.36 1761.34 337.36 Q1755.76 337.36 1752.86 333.888 Q1749.97 330.415 1749.97 323.731 M1763.37 303.332 L1763.37 303.332 Z" fill="#000000" fill-rule="nonzero" fill-opacity="1"></path><path clip-path="url(#clip080)" d="M1802.8 320.23 Q1796.35 320.23 1793.86 321.706 Q1791.37 323.182 1791.37 326.741 Q1791.37 329.576 1793.23 331.254 Q1795.11 332.904 1798.32 332.904 Q1802.75 332.904 1805.41 329.779 Q1808.1 326.625 1808.1 321.417 L1808.1 320.23 L1802.8 320.23 M1813.42 318.031 L1813.42 336.521 L1808.1 336.521 L1808.1 331.602 Q1806.28 334.553 1803.56 335.971 Q1800.84 337.36 1796.9 337.36 Q1791.92 337.36 1788.97 334.582 Q1786.05 331.775 1786.05 327.088 Q1786.05 321.619 1789.7 318.841 Q1793.37 316.064 1800.63 316.064 L1808.1 316.064 L1808.1 315.543 Q1808.1 311.868 1805.67 309.871 Q1803.27 307.846 1798.9 307.846 Q1796.12 307.846 1793.49 308.512 Q1790.85 309.177 1788.42 310.508 L1788.42 305.589 Q1791.35 304.461 1794.09 303.911 Q1796.84 303.332 1799.45 303.332 Q1806.48 303.332 1809.95 306.978 Q1813.42 310.624 1813.42 318.031 Z" fill="#000000" fill-rule="nonzero" fill-opacity="1"></path><path clip-path="url(#clip080)" d="M1851.33 316.961 L1851.33 336.521 L1846 336.521 L1846 317.134 Q1846 312.534 1844.21 310.248 Q1842.42 307.962 1838.83 307.962 Q1834.52 307.962 1832.03 310.711 Q1829.54 313.459 1829.54 318.205 L1829.54 336.521 L1824.19 336.521 L1824.19 304.113 L1829.54 304.113 L1829.54 309.148 Q1831.45 306.226 1834.02 304.779 Q1836.63 303.332 1840.01 303.332 Q1845.6 303.332 1848.46 306.804 Q1851.33 310.248 1851.33 316.961 Z" fill="#000000" fill-rule="nonzero" fill-opacity="1"></path><path clip-path="url(#clip080)" d="M1867.21 294.912 L1867.21 304.113 L1878.18 304.113 L1878.18 308.251 L1867.21 308.251 L1867.21 325.844 Q1867.21 329.808 1868.28 330.936 Q1869.38 332.065 1872.71 332.065 L1878.18 332.065 L1878.18 336.521 L1872.71 336.521 Q1866.55 336.521 1864.2 334.235 Q1861.86 331.92 1861.86 325.844 L1861.86 308.251 L1857.95 308.251 L1857.95 304.113 L1861.86 304.113 L1861.86 294.912 L1867.21 294.912 Z" fill="#000000" fill-rule="nonzero" fill-opacity="1"></path><path clip-path="url(#clip080)" d="M1885.18 304.113 L1890.51 304.113 L1890.51 336.521 L1885.18 336.521 L1885.18 304.113 M1885.18 291.498 L1890.51 291.498 L1890.51 298.24 L1885.18 298.24 L1885.18 291.498 Z" fill="#000000" fill-rule="nonzero" fill-opacity="1"></path><path clip-path="url(#clip080)" d="M1901.65 291.498 L1906.97 291.498 L1906.97 336.521 L1901.65 336.521 L1901.65 291.498 Z" fill="#000000" fill-rule="nonzero" fill-opacity="1"></path><path clip-path="url(#clip080)" d="M1945.83 318.986 L1945.83 321.59 L1921.35 321.59 Q1921.7 327.088 1924.65 329.981 Q1927.63 332.846 1932.92 332.846 Q1935.99 332.846 1938.86 332.094 Q1941.75 331.341 1944.59 329.837 L1944.59 334.871 Q1941.72 336.087 1938.71 336.723 Q1935.7 337.36 1932.61 337.36 Q1924.85 337.36 1920.31 332.846 Q1915.79 328.332 1915.79 320.635 Q1915.79 312.678 1920.08 308.02 Q1924.39 303.332 1931.68 303.332 Q1938.22 303.332 1942.01 307.557 Q1945.83 311.752 1945.83 318.986 M1940.51 317.424 Q1940.45 313.054 1938.05 310.45 Q1935.67 307.846 1931.74 307.846 Q1927.28 307.846 1924.59 310.363 Q1921.93 312.881 1921.52 317.452 L1940.51 317.424 Z" fill="#000000" fill-rule="nonzero" fill-opacity="1"></path></svg>