<svg xmlns="http://www.w3.org/2000/svg" xmlns:xlink="http://www.w3.org/1999/xlink" width="600" height="400" viewBox="0 0 2400 1600">
<defs>
  <clipPath id="clip020">
    <rect x="0" y="0" width="2400" height="1600"></rect>
  </clipPath>
</defs>
<path clip-path="url(#clip020)" d="M0 1600 L2400 1600 L2400 0 L0 0  Z" fill="#ffffff" fill-rule="evenodd" fill-opacity="1"></path>
<defs>
  <clipPath id="clip021">
    <rect x="480" y="0" width="1681" height="1600"></rect>
  </clipPath>
</defs>
<path clip-path="url(#clip020)" d="M156.02 1486.45 L2352.76 1486.45 L2352.76 47.2441 L156.02 47.2441  Z" fill="#ffffff" fill-rule="evenodd" fill-opacity="1"></path>
<defs>
  <clipPath id="clip022">
    <rect x="156" y="47" width="2198" height="1440"></rect>
  </clipPath>
</defs>
<polyline clip-path="url(#clip022)" style="stroke:#000000; stroke-linecap:round; stroke-linejoin:round; stroke-width:2; stroke-opacity:0.1; fill:none" points="156.02,1486.45 156.02,47.2441 "></polyline>
<polyline clip-path="url(#clip022)" style="stroke:#000000; stroke-linecap:round; stroke-linejoin:round; stroke-width:2; stroke-opacity:0.1; fill:none" points="888.265,1486.45 888.265,47.2441 "></polyline>
<polyline clip-path="url(#clip022)" style="stroke:#000000; stroke-linecap:round; stroke-linejoin:round; stroke-width:2; stroke-opacity:0.1; fill:none" points="1620.51,1486.45 1620.51,47.2441 "></polyline>
<polyline clip-path="url(#clip022)" style="stroke:#000000; stroke-linecap:round; stroke-linejoin:round; stroke-width:2; stroke-opacity:0.1; fill:none" points="2352.76,1486.45 2352.76,47.2441 "></polyline>
<polyline clip-path="url(#clip022)" style="stroke:#000000; stroke-linecap:round; stroke-linejoin:round; stroke-width:2; stroke-opacity:0.1; fill:none" points="156.02,1486.45 2352.76,1486.45 "></polyline>
<polyline clip-path="url(#clip022)" style="stroke:#000000; stroke-linecap:round; stroke-linejoin:round; stroke-width:2; stroke-opacity:0.1; fill:none" points="156.02,1006.71 2352.76,1006.71 "></polyline>
<polyline clip-path="url(#clip022)" style="stroke:#000000; stroke-linecap:round; stroke-linejoin:round; stroke-width:2; stroke-opacity:0.1; fill:none" points="156.02,526.979 2352.76,526.979 "></polyline>
<polyline clip-path="url(#clip022)" style="stroke:#000000; stroke-linecap:round; stroke-linejoin:round; stroke-width:2; stroke-opacity:0.1; fill:none" points="156.02,47.2441 2352.76,47.2441 "></polyline>
<polyline clip-path="url(#clip020)" style="stroke:#000000; stroke-linecap:round; stroke-linejoin:round; stroke-width:4; stroke-opacity:1; fill:none" points="156.02,1486.45 2352.76,1486.45 "></polyline>
<polyline clip-path="url(#clip020)" style="stroke:#000000; stroke-linecap:round; stroke-linejoin:round; stroke-width:4; stroke-opacity:1; fill:none" points="156.02,1486.45 156.02,1467.55 "></polyline>
<polyline clip-path="url(#clip020)" style="stroke:#000000; stroke-linecap:round; stroke-linejoin:round; stroke-width:4; stroke-opacity:1; fill:none" points="888.265,1486.45 888.265,1467.55 "></polyline>
<polyline clip-path="url(#clip020)" style="stroke:#000000; stroke-linecap:round; stroke-linejoin:round; stroke-width:4; stroke-opacity:1; fill:none" points="1620.51,1486.45 1620.51,1467.55 "></polyline>
<polyline clip-path="url(#clip020)" style="stroke:#000000; stroke-linecap:round; stroke-linejoin:round; stroke-width:4; stroke-opacity:1; fill:none" points="2352.76,1486.45 2352.76,1467.55 "></polyline>
<path clip-path="url(#clip020)" d="M156.02 1517.37 Q152.408 1517.37 150.58 1520.93 Q148.774 1524.47 148.774 1531.6 Q148.774 1538.71 150.58 1542.27 Q152.408 1545.82 156.02 1545.82 Q159.654 1545.82 161.459 1542.27 Q163.288 1538.71 163.288 1531.6 Q163.288 1524.47 161.459 1520.93 Q159.654 1517.37 156.02 1517.37 M156.02 1513.66 Q161.83 1513.66 164.885 1518.27 Q167.964 1522.85 167.964 1531.6 Q167.964 1540.33 164.885 1544.94 Q161.83 1549.52 156.02 1549.52 Q150.209 1549.52 147.131 1544.94 Q144.075 1540.33 144.075 1531.6 Q144.075 1522.85 147.131 1518.27 Q150.209 1513.66 156.02 1513.66 Z" fill="#000000" fill-rule="nonzero" fill-opacity="1"></path><path clip-path="url(#clip020)" d="M855.291 1544.91 L862.929 1544.91 L862.929 1518.55 L854.619 1520.21 L854.619 1515.95 L862.883 1514.29 L867.559 1514.29 L867.559 1544.91 L875.198 1544.91 L875.198 1548.85 L855.291 1548.85 L855.291 1544.91 Z" fill="#000000" fill-rule="nonzero" fill-opacity="1"></path><path clip-path="url(#clip020)" d="M891.61 1514.29 L895.545 1514.29 L883.508 1553.25 L879.573 1553.25 L891.61 1514.29 Z" fill="#000000" fill-rule="nonzero" fill-opacity="1"></path><path clip-path="url(#clip020)" d="M914.781 1530.21 Q918.138 1530.93 920.013 1533.2 Q921.911 1535.47 921.911 1538.8 Q921.911 1543.92 918.392 1546.72 Q914.874 1549.52 908.392 1549.52 Q906.216 1549.52 903.901 1549.08 Q901.61 1548.66 899.156 1547.81 L899.156 1543.29 Q901.101 1544.43 903.415 1545.01 Q905.73 1545.58 908.253 1545.58 Q912.651 1545.58 914.943 1543.85 Q917.258 1542.11 917.258 1538.8 Q917.258 1535.75 915.105 1534.03 Q912.976 1532.3 909.156 1532.3 L905.128 1532.3 L905.128 1528.45 L909.341 1528.45 Q912.79 1528.45 914.619 1527.09 Q916.448 1525.7 916.448 1523.11 Q916.448 1520.45 914.55 1519.03 Q912.675 1517.6 909.156 1517.6 Q907.235 1517.6 905.036 1518.01 Q902.837 1518.43 900.198 1519.31 L900.198 1515.14 Q902.86 1514.4 905.175 1514.03 Q907.513 1513.66 909.573 1513.66 Q914.897 1513.66 917.999 1516.09 Q921.1 1518.5 921.1 1522.62 Q921.1 1525.49 919.457 1527.48 Q917.813 1529.45 914.781 1530.21 Z" fill="#000000" fill-rule="nonzero" fill-opacity="1"></path><path clip-path="url(#clip020)" d="M1591.62 1544.91 L1607.94 1544.91 L1607.94 1548.85 L1586 1548.85 L1586 1544.91 Q1588.66 1542.16 1593.24 1537.53 Q1597.85 1532.88 1599.03 1531.53 Q1601.27 1529.01 1602.15 1527.27 Q1603.06 1525.51 1603.06 1523.82 Q1603.06 1521.07 1601.11 1519.33 Q1599.19 1517.6 1596.09 1517.6 Q1593.89 1517.6 1591.44 1518.36 Q1589.01 1519.13 1586.23 1520.68 L1586.23 1515.95 Q1589.05 1514.82 1591.51 1514.24 Q1593.96 1513.66 1596 1513.66 Q1601.37 1513.66 1604.56 1516.35 Q1607.76 1519.03 1607.76 1523.52 Q1607.76 1525.65 1606.95 1527.57 Q1606.16 1529.47 1604.05 1532.07 Q1603.47 1532.74 1600.37 1535.95 Q1597.27 1539.15 1591.62 1544.91 Z" fill="#000000" fill-rule="nonzero" fill-opacity="1"></path><path clip-path="url(#clip020)" d="M1624.72 1514.29 L1628.66 1514.29 L1616.62 1553.25 L1612.69 1553.25 L1624.72 1514.29 Z" fill="#000000" fill-rule="nonzero" fill-opacity="1"></path><path clip-path="url(#clip020)" d="M1647.89 1530.21 Q1651.25 1530.93 1653.13 1533.2 Q1655.02 1535.47 1655.02 1538.8 Q1655.02 1543.92 1651.51 1546.72 Q1647.99 1549.52 1641.51 1549.52 Q1639.33 1549.52 1637.01 1549.08 Q1634.72 1548.66 1632.27 1547.81 L1632.27 1543.29 Q1634.21 1544.43 1636.53 1545.01 Q1638.84 1545.58 1641.37 1545.58 Q1645.76 1545.58 1648.06 1543.85 Q1650.37 1542.11 1650.37 1538.8 Q1650.37 1535.75 1648.22 1534.03 Q1646.09 1532.3 1642.27 1532.3 L1638.24 1532.3 L1638.24 1528.45 L1642.45 1528.45 Q1645.9 1528.45 1647.73 1527.09 Q1649.56 1525.7 1649.56 1523.11 Q1649.56 1520.45 1647.66 1519.03 Q1645.79 1517.6 1642.27 1517.6 Q1640.35 1517.6 1638.15 1518.01 Q1635.95 1518.43 1633.31 1519.31 L1633.31 1515.14 Q1635.97 1514.4 1638.29 1514.03 Q1640.63 1513.66 1642.69 1513.66 Q1648.01 1513.66 1651.11 1516.09 Q1654.21 1518.5 1654.21 1522.62 Q1654.21 1525.49 1652.57 1527.48 Q1650.93 1529.45 1647.89 1530.21 Z" fill="#000000" fill-rule="nonzero" fill-opacity="1"></path><path clip-path="url(#clip020)" d="M2343.14 1544.91 L2350.78 1544.91 L2350.78 1518.55 L2342.47 1520.21 L2342.47 1515.95 L2350.73 1514.29 L2355.41 1514.29 L2355.41 1544.91 L2363.05 1544.91 L2363.05 1548.85 L2343.14 1548.85 L2343.14 1544.91 Z" fill="#000000" fill-rule="nonzero" fill-opacity="1"></path><polyline clip-path="url(#clip020)" style="stroke:#000000; stroke-linecap:round; stroke-linejoin:round; stroke-width:4; stroke-opacity:1; fill:none" points="156.02,1486.45 156.02,47.2441 "></polyline>
<polyline clip-path="url(#clip020)" style="stroke:#000000; stroke-linecap:round; stroke-linejoin:round; stroke-width:4; stroke-opacity:1; fill:none" points="156.02,1486.45 174.917,1486.45 "></polyline>
<polyline clip-path="url(#clip020)" style="stroke:#000000; stroke-linecap:round; stroke-linejoin:round; stroke-width:4; stroke-opacity:1; fill:none" points="156.02,1006.71 174.917,1006.71 "></polyline>
<polyline clip-path="url(#clip020)" style="stroke:#000000; stroke-linecap:round; stroke-linejoin:round; stroke-width:4; stroke-opacity:1; fill:none" points="156.02,526.979 174.917,526.979 "></polyline>
<polyline clip-path="url(#clip020)" style="stroke:#000000; stroke-linecap:round; stroke-linejoin:round; stroke-width:4; stroke-opacity:1; fill:none" points="156.02,47.2441 174.917,47.2441 "></polyline>
<path clip-path="url(#clip020)" d="M108.075 1472.25 Q104.464 1472.25 102.635 1475.81 Q100.83 1479.35 100.83 1486.48 Q100.83 1493.59 102.635 1497.15 Q104.464 1500.7 108.075 1500.7 Q111.709 1500.7 113.515 1497.15 Q115.344 1493.59 115.344 1486.48 Q115.344 1479.35 113.515 1475.81 Q111.709 1472.25 108.075 1472.25 M108.075 1468.54 Q113.885 1468.54 116.941 1473.15 Q120.02 1477.73 120.02 1486.48 Q120.02 1495.21 116.941 1499.82 Q113.885 1504.4 108.075 1504.4 Q102.265 1504.4 99.1863 1499.82 Q96.1308 1495.21 96.1308 1486.48 Q96.1308 1477.73 99.1863 1473.15 Q102.265 1468.54 108.075 1468.54 Z" fill="#000000" fill-rule="nonzero" fill-opacity="1"></path><path clip-path="url(#clip020)" d="M53.3995 1020.06 L61.0384 1020.06 L61.0384 993.693 L52.7282 995.359 L52.7282 991.1 L60.9921 989.433 L65.668 989.433 L65.668 1020.06 L73.3068 1020.06 L73.3068 1023.99 L53.3995 1023.99 L53.3995 1020.06 Z" fill="#000000" fill-rule="nonzero" fill-opacity="1"></path><path clip-path="url(#clip020)" d="M89.7188 989.433 L93.6539 989.433 L81.617 1028.39 L77.6818 1028.39 L89.7188 989.433 Z" fill="#000000" fill-rule="nonzero" fill-opacity="1"></path><path clip-path="url(#clip020)" d="M112.89 1005.36 Q116.246 1006.08 118.121 1008.35 Q120.02 1010.61 120.02 1013.95 Q120.02 1019.06 116.501 1021.86 Q112.983 1024.66 106.501 1024.66 Q104.325 1024.66 102.01 1024.22 Q99.7187 1023.81 97.265 1022.95 L97.265 1018.44 Q99.2095 1019.57 101.524 1020.15 Q103.839 1020.73 106.362 1020.73 Q110.76 1020.73 113.052 1018.99 Q115.367 1017.26 115.367 1013.95 Q115.367 1010.89 113.214 1009.18 Q111.084 1007.44 107.265 1007.44 L103.237 1007.44 L103.237 1003.6 L107.45 1003.6 Q110.899 1003.6 112.728 1002.23 Q114.557 1000.85 114.557 998.253 Q114.557 995.591 112.658 994.179 Q110.783 992.743 107.265 992.743 Q105.344 992.743 103.145 993.16 Q100.946 993.577 98.3067 994.456 L98.3067 990.29 Q100.969 989.549 103.284 989.179 Q105.621 988.808 107.682 988.808 Q113.006 988.808 116.108 991.239 Q119.209 993.646 119.209 997.767 Q119.209 1000.64 117.566 1002.63 Q115.922 1004.6 112.89 1005.36 Z" fill="#000000" fill-rule="nonzero" fill-opacity="1"></path><path clip-path="url(#clip020)" d="M56.6171 540.324 L72.9365 540.324 L72.9365 544.259 L50.9921 544.259 L50.9921 540.324 Q53.6541 537.569 58.2375 532.939 Q62.8439 528.287 64.0245 526.944 Q66.2698 524.421 67.1494 522.685 Q68.0522 520.925 68.0522 519.236 Q68.0522 516.481 66.1078 514.745 Q64.1865 513.009 61.0847 513.009 Q58.8856 513.009 56.4319 513.773 Q54.0014 514.537 51.2236 516.088 L51.2236 511.365 Q54.0477 510.231 56.5014 509.652 Q58.955 509.074 60.9921 509.074 Q66.3624 509.074 69.5568 511.759 Q72.7513 514.444 72.7513 518.935 Q72.7513 521.064 71.9411 522.986 Q71.1541 524.884 69.0476 527.476 Q68.4689 528.148 65.367 531.365 Q62.2652 534.56 56.6171 540.324 Z" fill="#000000" fill-rule="nonzero" fill-opacity="1"></path><path clip-path="url(#clip020)" d="M89.7188 509.699 L93.6539 509.699 L81.617 548.657 L77.6818 548.657 L89.7188 509.699 Z" fill="#000000" fill-rule="nonzero" fill-opacity="1"></path><path clip-path="url(#clip020)" d="M112.89 525.625 Q116.246 526.342 118.121 528.611 Q120.02 530.879 120.02 534.212 Q120.02 539.328 116.501 542.129 Q112.983 544.93 106.501 544.93 Q104.325 544.93 102.01 544.49 Q99.7187 544.074 97.265 543.217 L97.265 538.703 Q99.2095 539.837 101.524 540.416 Q103.839 540.995 106.362 540.995 Q110.76 540.995 113.052 539.259 Q115.367 537.523 115.367 534.212 Q115.367 531.157 113.214 529.444 Q111.084 527.708 107.265 527.708 L103.237 527.708 L103.237 523.865 L107.45 523.865 Q110.899 523.865 112.728 522.5 Q114.557 521.111 114.557 518.518 Q114.557 515.856 112.658 514.444 Q110.783 513.009 107.265 513.009 Q105.344 513.009 103.145 513.426 Q100.946 513.842 98.3067 514.722 L98.3067 510.555 Q100.969 509.814 103.284 509.444 Q105.621 509.074 107.682 509.074 Q113.006 509.074 116.108 511.504 Q119.209 513.912 119.209 518.032 Q119.209 520.902 117.566 522.893 Q115.922 524.861 112.89 525.625 Z" fill="#000000" fill-rule="nonzero" fill-opacity="1"></path><path clip-path="url(#clip020)" d="M100.112 60.5889 L107.751 60.5889 L107.751 34.2233 L99.4409 35.89 L99.4409 31.6308 L107.705 29.9641 L112.381 29.9641 L112.381 60.5889 L120.02 60.5889 L120.02 64.5241 L100.112 64.5241 L100.112 60.5889 Z" fill="#000000" fill-rule="nonzero" fill-opacity="1"></path><circle clip-path="url(#clip022)" cx="278.06" cy="1406.49" r="14.4" fill="#ff0000" fill-rule="evenodd" fill-opacity="0.4" stroke="#000000" stroke-opacity="0.4" stroke-width="3.2"></circle>
<circle clip-path="url(#clip022)" cx="522.142" cy="1406.49" r="14.4" fill="#ff0000" fill-rule="evenodd" fill-opacity="0.4" stroke="#000000" stroke-opacity="0.4" stroke-width="3.2"></circle>
<circle clip-path="url(#clip022)" cx="766.224" cy="1406.49" r="14.4" fill="#ff0000" fill-rule="evenodd" fill-opacity="0.4" stroke="#000000" stroke-opacity="0.4" stroke-width="3.2"></circle>
<circle clip-path="url(#clip022)" cx="1010.31" cy="1406.49" r="14.4" fill="#ff0000" fill-rule="evenodd" fill-opacity="0.4" stroke="#000000" stroke-opacity="0.4" stroke-width="3.2"></circle>
<circle clip-path="url(#clip022)" cx="1254.39" cy="1406.49" r="14.4" fill="#ff0000" fill-rule="evenodd" fill-opacity="0.4" stroke="#000000" stroke-opacity="0.4" stroke-width="3.2"></circle>
<circle clip-path="url(#clip022)" cx="1498.47" cy="1406.49" r="14.4" fill="#ff0000" fill-rule="evenodd" fill-opacity="0.4" stroke="#000000" stroke-opacity="0.4" stroke-width="3.2"></circle>
<circle clip-path="url(#clip022)" cx="1742.55" cy="1406.49" r="14.4" fill="#ff0000" fill-rule="evenodd" fill-opacity="0.4" stroke="#000000" stroke-opacity="0.4" stroke-width="3.2"></circle>
<circle clip-path="url(#clip022)" cx="1986.63" cy="1406.49" r="14.4" fill="#ff0000" fill-rule="evenodd" fill-opacity="0.4" stroke="#000000" stroke-opacity="0.4" stroke-width="3.2"></circle>
<circle clip-path="url(#clip022)" cx="2230.71" cy="1406.49" r="14.4" fill="#ff0000" fill-rule="evenodd" fill-opacity="0.4" stroke="#000000" stroke-opacity="0.4" stroke-width="3.2"></circle>
<circle clip-path="url(#clip022)" cx="278.06" cy="1246.58" r="14.4" fill="#ff0000" fill-rule="evenodd" fill-opacity="0.4" stroke="#000000" stroke-opacity="0.4" stroke-width="3.2"></circle>
<circle clip-path="url(#clip022)" cx="522.142" cy="1246.58" r="14.4" fill="#ff0000" fill-rule="evenodd" fill-opacity="0.4" stroke="#000000" stroke-opacity="0.4" stroke-width="3.2"></circle>
<circle clip-path="url(#clip022)" cx="766.224" cy="1246.58" r="14.4" fill="#ff0000" fill-rule="evenodd" fill-opacity="0.4" stroke="#000000" stroke-opacity="0.4" stroke-width="3.2"></circle>
<circle clip-path="url(#clip022)" cx="1010.31" cy="1246.58" r="14.4" fill="#ff0000" fill-rule="evenodd" fill-opacity="0.4" stroke="#000000" stroke-opacity="0.4" stroke-width="3.2"></circle>
<circle clip-path="url(#clip022)" cx="1254.39" cy="1246.58" r="14.4" fill="#ff0000" fill-rule="evenodd" fill-opacity="0.4" stroke="#000000" stroke-opacity="0.4" stroke-width="3.2"></circle>
<circle clip-path="url(#clip022)" cx="1498.47" cy="1246.58" r="14.4" fill="#ff0000" fill-rule="evenodd" fill-opacity="0.4" stroke="#000000" stroke-opacity="0.4" stroke-width="3.2"></circle>
<circle clip-path="url(#clip022)" cx="1742.55" cy="1246.58" r="14.4" fill="#ff0000" fill-rule="evenodd" fill-opacity="0.4" stroke="#000000" stroke-opacity="0.4" stroke-width="3.2"></circle>
<circle clip-path="url(#clip022)" cx="1986.63" cy="1246.58" r="14.4" fill="#ff0000" fill-rule="evenodd" fill-opacity="0.4" stroke="#000000" stroke-opacity="0.4" stroke-width="3.2"></circle>
<circle clip-path="url(#clip022)" cx="2230.71" cy="1246.58" r="14.4" fill="#ff0000" fill-rule="evenodd" fill-opacity="0.4" stroke="#000000" stroke-opacity="0.4" stroke-width="3.2"></circle>
<circle clip-path="url(#clip022)" cx="278.06" cy="1086.67" r="14.4" fill="#ff0000" fill-rule="evenodd" fill-opacity="0.4" stroke="#000000" stroke-opacity="0.4" stroke-width="3.2"></circle>
<circle clip-path="url(#clip022)" cx="522.142" cy="1086.67" r="14.4" fill="#ff0000" fill-rule="evenodd" fill-opacity="0.4" stroke="#000000" stroke-opacity="0.4" stroke-width="3.2"></circle>
<circle clip-path="url(#clip022)" cx="766.224" cy="1086.67" r="14.4" fill="#ff0000" fill-rule="evenodd" fill-opacity="0.4" stroke="#000000" stroke-opacity="0.4" stroke-width="3.2"></circle>
<circle clip-path="url(#clip022)" cx="1010.31" cy="1086.67" r="14.4" fill="#ff0000" fill-rule="evenodd" fill-opacity="0.4" stroke="#000000" stroke-opacity="0.4" stroke-width="3.2"></circle>
<circle clip-path="url(#clip022)" cx="1254.39" cy="1086.67" r="14.4" fill="#ff0000" fill-rule="evenodd" fill-opacity="0.4" stroke="#000000" stroke-opacity="0.4" stroke-width="3.2"></circle>
<circle clip-path="url(#clip022)" cx="1498.47" cy="1086.67" r="14.4" fill="#ff0000" fill-rule="evenodd" fill-opacity="0.4" stroke="#000000" stroke-opacity="0.4" stroke-width="3.2"></circle>
<circle clip-path="url(#clip022)" cx="1742.55" cy="1086.67" r="14.4" fill="#ff0000" fill-rule="evenodd" fill-opacity="0.4" stroke="#000000" stroke-opacity="0.4" stroke-width="3.2"></circle>
<circle clip-path="url(#clip022)" cx="1986.63" cy="1086.67" r="14.4" fill="#ff0000" fill-rule="evenodd" fill-opacity="0.4" stroke="#000000" stroke-opacity="0.4" stroke-width="3.2"></circle>
<circle clip-path="url(#clip022)" cx="2230.71" cy="1086.67" r="14.4" fill="#ff0000" fill-rule="evenodd" fill-opacity="0.4" stroke="#000000" stroke-opacity="0.4" stroke-width="3.2"></circle>
<circle clip-path="url(#clip022)" cx="278.06" cy="926.758" r="14.4" fill="#ff0000" fill-rule="evenodd" fill-opacity="0.4" stroke="#000000" stroke-opacity="0.4" stroke-width="3.2"></circle>
<circle clip-path="url(#clip022)" cx="522.142" cy="926.758" r="14.4" fill="#ff0000" fill-rule="evenodd" fill-opacity="0.4" stroke="#000000" stroke-opacity="0.4" stroke-width="3.2"></circle>
<circle clip-path="url(#clip022)" cx="766.224" cy="926.758" r="14.4" fill="#ff0000" fill-rule="evenodd" fill-opacity="0.4" stroke="#000000" stroke-opacity="0.4" stroke-width="3.2"></circle>
<circle clip-path="url(#clip022)" cx="1010.31" cy="926.758" r="14.4" fill="#ff0000" fill-rule="evenodd" fill-opacity="0.4" stroke="#000000" stroke-opacity="0.4" stroke-width="3.2"></circle>
<circle clip-path="url(#clip022)" cx="1254.39" cy="926.758" r="14.4" fill="#ff0000" fill-rule="evenodd" fill-opacity="0.4" stroke="#000000" stroke-opacity="0.4" stroke-width="3.2"></circle>
<circle clip-path="url(#clip022)" cx="1498.47" cy="926.758" r="14.4" fill="#ff0000" fill-rule="evenodd" fill-opacity="0.4" stroke="#000000" stroke-opacity="0.4" stroke-width="3.2"></circle>
<circle clip-path="url(#clip022)" cx="1742.55" cy="926.758" r="14.4" fill="#ff0000" fill-rule="evenodd" fill-opacity="0.4" stroke="#000000" stroke-opacity="0.4" stroke-width="3.2"></circle>
<circle clip-path="url(#clip022)" cx="1986.63" cy="926.758" r="14.4" fill="#ff0000" fill-rule="evenodd" fill-opacity="0.4" stroke="#000000" stroke-opacity="0.4" stroke-width="3.2"></circle>
<circle clip-path="url(#clip022)" cx="2230.71" cy="926.758" r="14.4" fill="#ff0000" fill-rule="evenodd" fill-opacity="0.4" stroke="#000000" stroke-opacity="0.4" stroke-width="3.2"></circle>
<circle clip-path="url(#clip022)" cx="278.06" cy="766.846" r="14.4" fill="#ff0000" fill-rule="evenodd" fill-opacity="0.4" stroke="#000000" stroke-opacity="0.4" stroke-width="3.2"></circle>
<circle clip-path="url(#clip022)" cx="522.142" cy="766.846" r="14.4" fill="#ff0000" fill-rule="evenodd" fill-opacity="0.4" stroke="#000000" stroke-opacity="0.4" stroke-width="3.2"></circle>
<circle clip-path="url(#clip022)" cx="766.224" cy="766.846" r="14.4" fill="#ff0000" fill-rule="evenodd" fill-opacity="0.4" stroke="#000000" stroke-opacity="0.4" stroke-width="3.2"></circle>
<circle clip-path="url(#clip022)" cx="1010.31" cy="766.846" r="14.4" fill="#ff0000" fill-rule="evenodd" fill-opacity="0.4" stroke="#000000" stroke-opacity="0.4" stroke-width="3.2"></circle>
<circle clip-path="url(#clip022)" cx="1254.39" cy="766.846" r="14.4" fill="#ff0000" fill-rule="evenodd" fill-opacity="0.4" stroke="#000000" stroke-opacity="0.4" stroke-width="3.2"></circle>
<circle clip-path="url(#clip022)" cx="1498.47" cy="766.846" r="14.4" fill="#ff0000" fill-rule="evenodd" fill-opacity="0.4" stroke="#000000" stroke-opacity="0.4" stroke-width="3.2"></circle>
<circle clip-path="url(#clip022)" cx="1742.55" cy="766.846" r="14.4" fill="#ff0000" fill-rule="evenodd" fill-opacity="0.4" stroke="#000000" stroke-opacity="0.4" stroke-width="3.2"></circle>
<circle clip-path="url(#clip022)" cx="1986.63" cy="766.846" r="14.4" fill="#ff0000" fill-rule="evenodd" fill-opacity="0.4" stroke="#000000" stroke-opacity="0.4" stroke-width="3.2"></circle>
<circle clip-path="url(#clip022)" cx="2230.71" cy="766.846" r="14.4" fill="#ff0000" fill-rule="evenodd" fill-opacity="0.4" stroke="#000000" stroke-opacity="0.4" stroke-width="3.2"></circle>
<circle clip-path="url(#clip022)" cx="278.06" cy="606.934" r="14.4" fill="#ff0000" fill-rule="evenodd" fill-opacity="0.4" stroke="#000000" stroke-opacity="0.4" stroke-width="3.2"></circle>
<circle clip-path="url(#clip022)" cx="522.142" cy="606.934" r="14.4" fill="#ff0000" fill-rule="evenodd" fill-opacity="0.4" stroke="#000000" stroke-opacity="0.4" stroke-width="3.2"></circle>
<circle clip-path="url(#clip022)" cx="766.224" cy="606.934" r="14.4" fill="#ff0000" fill-rule="evenodd" fill-opacity="0.4" stroke="#000000" stroke-opacity="0.4" stroke-width="3.2"></circle>
<circle clip-path="url(#clip022)" cx="1010.31" cy="606.934" r="14.4" fill="#ff0000" fill-rule="evenodd" fill-opacity="0.4" stroke="#000000" stroke-opacity="0.4" stroke-width="3.2"></circle>
<circle clip-path="url(#clip022)" cx="1254.39" cy="606.934" r="14.4" fill="#ff0000" fill-rule="evenodd" fill-opacity="0.4" stroke="#000000" stroke-opacity="0.4" stroke-width="3.2"></circle>
<circle clip-path="url(#clip022)" cx="1498.47" cy="606.934" r="14.4" fill="#ff0000" fill-rule="evenodd" fill-opacity="0.4" stroke="#000000" stroke-opacity="0.4" stroke-width="3.2"></circle>
<circle clip-path="url(#clip022)" cx="1742.55" cy="606.934" r="14.4" fill="#ff0000" fill-rule="evenodd" fill-opacity="0.4" stroke="#000000" stroke-opacity="0.4" stroke-width="3.2"></circle>
<circle clip-path="url(#clip022)" cx="1986.63" cy="606.934" r="14.4" fill="#ff0000" fill-rule="evenodd" fill-opacity="0.4" stroke="#000000" stroke-opacity="0.4" stroke-width="3.2"></circle>
<circle clip-path="url(#clip022)" cx="2230.71" cy="606.934" r="14.4" fill="#ff0000" fill-rule="evenodd" fill-opacity="0.4" stroke="#000000" stroke-opacity="0.4" stroke-width="3.2"></circle>
<circle clip-path="url(#clip022)" cx="278.06" cy="447.023" r="14.4" fill="#ff0000" fill-rule="evenodd" fill-opacity="0.4" stroke="#000000" stroke-opacity="0.4" stroke-width="3.2"></circle>
<circle clip-path="url(#clip022)" cx="522.142" cy="447.023" r="14.4" fill="#ff0000" fill-rule="evenodd" fill-opacity="0.4" stroke="#000000" stroke-opacity="0.4" stroke-width="3.2"></circle>
<circle clip-path="url(#clip022)" cx="766.224" cy="447.023" r="14.4" fill="#ff0000" fill-rule="evenodd" fill-opacity="0.4" stroke="#000000" stroke-opacity="0.4" stroke-width="3.2"></circle>
<circle clip-path="url(#clip022)" cx="1010.31" cy="447.023" r="14.4" fill="#ff0000" fill-rule="evenodd" fill-opacity="0.4" stroke="#000000" stroke-opacity="0.4" stroke-width="3.2"></circle>
<circle clip-path="url(#clip022)" cx="1254.39" cy="447.023" r="14.4" fill="#ff0000" fill-rule="evenodd" fill-opacity="0.4" stroke="#000000" stroke-opacity="0.4" stroke-width="3.2"></circle>
<circle clip-path="url(#clip022)" cx="1498.47" cy="447.023" r="14.4" fill="#ff0000" fill-rule="evenodd" fill-opacity="0.4" stroke="#000000" stroke-opacity="0.4" stroke-width="3.2"></circle>
<circle clip-path="url(#clip022)" cx="1742.55" cy="447.023" r="14.4" fill="#ff0000" fill-rule="evenodd" fill-opacity="0.4" stroke="#000000" stroke-opacity="0.4" stroke-width="3.2"></circle>
<circle clip-path="url(#clip022)" cx="1986.63" cy="447.023" r="14.4" fill="#ff0000" fill-rule="evenodd" fill-opacity="0.4" stroke="#000000" stroke-opacity="0.4" stroke-width="3.2"></circle>
<circle clip-path="url(#clip022)" cx="2230.71" cy="447.023" r="14.4" fill="#ff0000" fill-rule="evenodd" fill-opacity="0.4" stroke="#000000" stroke-opacity="0.4" stroke-width="3.2"></circle>
<circle clip-path="url(#clip022)" cx="278.06" cy="287.111" r="14.4" fill="#ff0000" fill-rule="evenodd" fill-opacity="0.4" stroke="#000000" stroke-opacity="0.4" stroke-width="3.2"></circle>
<circle clip-path="url(#clip022)" cx="522.142" cy="287.111" r="14.4" fill="#ff0000" fill-rule="evenodd" fill-opacity="0.4" stroke="#000000" stroke-opacity="0.4" stroke-width="3.2"></circle>
<circle clip-path="url(#clip022)" cx="766.224" cy="287.111" r="14.4" fill="#ff0000" fill-rule="evenodd" fill-opacity="0.4" stroke="#000000" stroke-opacity="0.4" stroke-width="3.2"></circle>
<circle clip-path="url(#clip022)" cx="1010.31" cy="287.111" r="14.4" fill="#ff0000" fill-rule="evenodd" fill-opacity="0.4" stroke="#000000" stroke-opacity="0.4" stroke-width="3.2"></circle>
<circle clip-path="url(#clip022)" cx="1254.39" cy="287.111" r="14.4" fill="#ff0000" fill-rule="evenodd" fill-opacity="0.4" stroke="#000000" stroke-opacity="0.4" stroke-width="3.2"></circle>
<circle clip-path="url(#clip022)" cx="1498.47" cy="287.111" r="14.4" fill="#ff0000" fill-rule="evenodd" fill-opacity="0.4" stroke="#000000" stroke-opacity="0.4" stroke-width="3.2"></circle>
<circle clip-path="url(#clip022)" cx="1742.55" cy="287.111" r="14.4" fill="#ff0000" fill-rule="evenodd" fill-opacity="0.4" stroke="#000000" stroke-opacity="0.4" stroke-width="3.2"></circle>
<circle clip-path="url(#clip022)" cx="1986.63" cy="287.111" r="14.4" fill="#ff0000" fill-rule="evenodd" fill-opacity="0.4" stroke="#000000" stroke-opacity="0.4" stroke-width="3.2"></circle>
<circle clip-path="url(#clip022)" cx="2230.71" cy="287.111" r="14.4" fill="#ff0000" fill-rule="evenodd" fill-opacity="0.4" stroke="#000000" stroke-opacity="0.4" stroke-width="3.2"></circle>
<circle clip-path="url(#clip022)" cx="278.06" cy="127.2" r="14.4" fill="#ff0000" fill-rule="evenodd" fill-opacity="0.4" stroke="#000000" stroke-opacity="0.4" stroke-width="3.2"></circle>
<circle clip-path="url(#clip022)" cx="522.142" cy="127.2" r="14.4" fill="#ff0000" fill-rule="evenodd" fill-opacity="0.4" stroke="#000000" stroke-opacity="0.4" stroke-width="3.2"></circle>
<circle clip-path="url(#clip022)" cx="766.224" cy="127.2" r="14.4" fill="#ff0000" fill-rule="evenodd" fill-opacity="0.4" stroke="#000000" stroke-opacity="0.4" stroke-width="3.2"></circle>
<circle clip-path="url(#clip022)" cx="1010.31" cy="127.2" r="14.4" fill="#ff0000" fill-rule="evenodd" fill-opacity="0.4" stroke="#000000" stroke-opacity="0.4" stroke-width="3.2"></circle>
<circle clip-path="url(#clip022)" cx="1254.39" cy="127.2" r="14.4" fill="#ff0000" fill-rule="evenodd" fill-opacity="0.4" stroke="#000000" stroke-opacity="0.4" stroke-width="3.2"></circle>
<circle clip-path="url(#clip022)" cx="1498.47" cy="127.2" r="14.4" fill="#ff0000" fill-rule="evenodd" fill-opacity="0.4" stroke="#000000" stroke-opacity="0.4" stroke-width="3.2"></circle>
<circle clip-path="url(#clip022)" cx="1742.55" cy="127.2" r="14.4" fill="#ff0000" fill-rule="evenodd" fill-opacity="0.4" stroke="#000000" stroke-opacity="0.4" stroke-width="3.2"></circle>
<circle clip-path="url(#clip022)" cx="1986.63" cy="127.2" r="14.4" fill="#ff0000" fill-rule="evenodd" fill-opacity="0.4" stroke="#000000" stroke-opacity="0.4" stroke-width="3.2"></circle>
<circle clip-path="url(#clip022)" cx="2230.71" cy="127.2" r="14.4" fill="#ff0000" fill-rule="evenodd" fill-opacity="0.4" stroke="#000000" stroke-opacity="0.4" stroke-width="3.2"></circle>
<circle clip-path="url(#clip022)" cx="522.142" cy="1246.58" r="14.4" fill="#800080" fill-rule="evenodd" fill-opacity="1" stroke="#000000" stroke-opacity="1" stroke-width="3.2"></circle>
<circle clip-path="url(#clip022)" cx="1254.39" cy="1246.58" r="14.4" fill="#800080" fill-rule="evenodd" fill-opacity="1" stroke="#000000" stroke-opacity="1" stroke-width="3.2"></circle>
<circle clip-path="url(#clip022)" cx="1986.63" cy="1246.58" r="14.4" fill="#800080" fill-rule="evenodd" fill-opacity="1" stroke="#000000" stroke-opacity="1" stroke-width="3.2"></circle>
<circle clip-path="url(#clip022)" cx="522.142" cy="766.846" r="14.4" fill="#800080" fill-rule="evenodd" fill-opacity="1" stroke="#000000" stroke-opacity="1" stroke-width="3.2"></circle>
<circle clip-path="url(#clip022)" cx="1986.63" cy="766.846" r="14.4" fill="#800080" fill-rule="evenodd" fill-opacity="1" stroke="#000000" stroke-opacity="1" stroke-width="3.2"></circle>
<circle clip-path="url(#clip022)" cx="522.142" cy="287.111" r="14.4" fill="#800080" fill-rule="evenodd" fill-opacity="1" stroke="#000000" stroke-opacity="1" stroke-width="3.2"></circle>
<circle clip-path="url(#clip022)" cx="1254.39" cy="287.111" r="14.4" fill="#800080" fill-rule="evenodd" fill-opacity="1" stroke="#000000" stroke-opacity="1" stroke-width="3.2"></circle>
<circle clip-path="url(#clip022)" cx="1986.63" cy="287.111" r="14.4" fill="#800080" fill-rule="evenodd" fill-opacity="1" stroke="#000000" stroke-opacity="1" stroke-width="3.2"></circle>
<circle clip-path="url(#clip022)" cx="1254.39" cy="766.846" r="14.4" fill="#800080" fill-rule="evenodd" fill-opacity="1" stroke="#000000" stroke-opacity="1" stroke-width="3.2"></circle>
</svg>