<svg xmlns="http://www.w3.org/2000/svg" xmlns:xlink="http://www.w3.org/1999/xlink" width="600" height="400" viewBox="0 0 2400 1600">
<defs>
  <clipPath id="clip960">
    <rect x="0" y="0" width="2400" height="1600"></rect>
  </clipPath>
</defs>
<path clip-path="url(#clip960)" d="M0 1600 L2400 1600 L2400 0 L0 0  Z" fill="#ffffff" fill-rule="evenodd" fill-opacity="1"></path>
<defs>
  <clipPath id="clip961">
    <rect x="480" y="0" width="1681" height="1600"></rect>
  </clipPath>
</defs>
<path clip-path="url(#clip960)" d="M156.598 1486.45 L2352.76 1486.45 L2352.76 123.472 L156.598 123.472  Z" fill="#ffffff" fill-rule="evenodd" fill-opacity="1"></path>
<defs>
  <clipPath id="clip962">
    <rect x="156" y="123" width="2197" height="1364"></rect>
  </clipPath>
</defs>
<polyline clip-path="url(#clip962)" style="stroke:#000000; stroke-linecap:round; stroke-linejoin:round; stroke-width:2; stroke-opacity:0.1; fill:none" points="218.754,1486.45 218.754,123.472 "></polyline>
<polyline clip-path="url(#clip962)" style="stroke:#000000; stroke-linecap:round; stroke-linejoin:round; stroke-width:2; stroke-opacity:0.1; fill:none" points="702.185,1486.45 702.185,123.472 "></polyline>
<polyline clip-path="url(#clip962)" style="stroke:#000000; stroke-linecap:round; stroke-linejoin:round; stroke-width:2; stroke-opacity:0.1; fill:none" points="1185.62,1486.45 1185.62,123.472 "></polyline>
<polyline clip-path="url(#clip962)" style="stroke:#000000; stroke-linecap:round; stroke-linejoin:round; stroke-width:2; stroke-opacity:0.1; fill:none" points="1669.05,1486.45 1669.05,123.472 "></polyline>
<polyline clip-path="url(#clip962)" style="stroke:#000000; stroke-linecap:round; stroke-linejoin:round; stroke-width:2; stroke-opacity:0.1; fill:none" points="2152.48,1486.45 2152.48,123.472 "></polyline>
<polyline clip-path="url(#clip962)" style="stroke:#000000; stroke-linecap:round; stroke-linejoin:round; stroke-width:2; stroke-opacity:0.1; fill:none" points="156.598,1447.87 2352.76,1447.87 "></polyline>
<polyline clip-path="url(#clip962)" style="stroke:#000000; stroke-linecap:round; stroke-linejoin:round; stroke-width:2; stroke-opacity:0.1; fill:none" points="156.598,1147.85 2352.76,1147.85 "></polyline>
<polyline clip-path="url(#clip962)" style="stroke:#000000; stroke-linecap:round; stroke-linejoin:round; stroke-width:2; stroke-opacity:0.1; fill:none" points="156.598,847.821 2352.76,847.821 "></polyline>
<polyline clip-path="url(#clip962)" style="stroke:#000000; stroke-linecap:round; stroke-linejoin:round; stroke-width:2; stroke-opacity:0.1; fill:none" points="156.598,547.795 2352.76,547.795 "></polyline>
<polyline clip-path="url(#clip962)" style="stroke:#000000; stroke-linecap:round; stroke-linejoin:round; stroke-width:2; stroke-opacity:0.1; fill:none" points="156.598,247.769 2352.76,247.769 "></polyline>
<polyline clip-path="url(#clip960)" style="stroke:#000000; stroke-linecap:round; stroke-linejoin:round; stroke-width:4; stroke-opacity:1; fill:none" points="156.598,1486.45 2352.76,1486.45 "></polyline>
<polyline clip-path="url(#clip960)" style="stroke:#000000; stroke-linecap:round; stroke-linejoin:round; stroke-width:4; stroke-opacity:1; fill:none" points="218.754,1486.45 218.754,1467.55 "></polyline>
<polyline clip-path="url(#clip960)" style="stroke:#000000; stroke-linecap:round; stroke-linejoin:round; stroke-width:4; stroke-opacity:1; fill:none" points="702.185,1486.45 702.185,1467.55 "></polyline>
<polyline clip-path="url(#clip960)" style="stroke:#000000; stroke-linecap:round; stroke-linejoin:round; stroke-width:4; stroke-opacity:1; fill:none" points="1185.62,1486.45 1185.62,1467.55 "></polyline>
<polyline clip-path="url(#clip960)" style="stroke:#000000; stroke-linecap:round; stroke-linejoin:round; stroke-width:4; stroke-opacity:1; fill:none" points="1669.05,1486.45 1669.05,1467.55 "></polyline>
<polyline clip-path="url(#clip960)" style="stroke:#000000; stroke-linecap:round; stroke-linejoin:round; stroke-width:4; stroke-opacity:1; fill:none" points="2152.48,1486.45 2152.48,1467.55 "></polyline>
<path clip-path="url(#clip960)" d="M196.138 1517.37 Q192.527 1517.37 190.698 1520.93 Q188.893 1524.47 188.893 1531.6 Q188.893 1538.71 190.698 1542.27 Q192.527 1545.82 196.138 1545.82 Q199.772 1545.82 201.578 1542.27 Q203.407 1538.71 203.407 1531.6 Q203.407 1524.47 201.578 1520.93 Q199.772 1517.37 196.138 1517.37 M196.138 1513.66 Q201.948 1513.66 205.004 1518.27 Q208.082 1522.85 208.082 1531.6 Q208.082 1540.33 205.004 1544.94 Q201.948 1549.52 196.138 1549.52 Q190.328 1549.52 187.249 1544.94 Q184.194 1540.33 184.194 1531.6 Q184.194 1522.85 187.249 1518.27 Q190.328 1513.66 196.138 1513.66 Z" fill="#000000" fill-rule="nonzero" fill-opacity="1"></path><path clip-path="url(#clip960)" d="M216.3 1542.97 L221.184 1542.97 L221.184 1548.85 L216.3 1548.85 L216.3 1542.97 Z" fill="#000000" fill-rule="nonzero" fill-opacity="1"></path><path clip-path="url(#clip960)" d="M241.369 1517.37 Q237.758 1517.37 235.929 1520.93 Q234.124 1524.47 234.124 1531.6 Q234.124 1538.71 235.929 1542.27 Q237.758 1545.82 241.369 1545.82 Q245.003 1545.82 246.809 1542.27 Q248.638 1538.71 248.638 1531.6 Q248.638 1524.47 246.809 1520.93 Q245.003 1517.37 241.369 1517.37 M241.369 1513.66 Q247.179 1513.66 250.235 1518.27 Q253.314 1522.85 253.314 1531.6 Q253.314 1540.33 250.235 1544.94 Q247.179 1549.52 241.369 1549.52 Q235.559 1549.52 232.48 1544.94 Q229.425 1540.33 229.425 1531.6 Q229.425 1522.85 232.48 1518.27 Q235.559 1513.66 241.369 1513.66 Z" fill="#000000" fill-rule="nonzero" fill-opacity="1"></path><path clip-path="url(#clip960)" d="M680.368 1517.37 Q676.756 1517.37 674.928 1520.93 Q673.122 1524.47 673.122 1531.6 Q673.122 1538.71 674.928 1542.27 Q676.756 1545.82 680.368 1545.82 Q684.002 1545.82 685.807 1542.27 Q687.636 1538.71 687.636 1531.6 Q687.636 1524.47 685.807 1520.93 Q684.002 1517.37 680.368 1517.37 M680.368 1513.66 Q686.178 1513.66 689.233 1518.27 Q692.312 1522.85 692.312 1531.6 Q692.312 1540.33 689.233 1544.94 Q686.178 1549.52 680.368 1549.52 Q674.557 1549.52 671.479 1544.94 Q668.423 1540.33 668.423 1531.6 Q668.423 1522.85 671.479 1518.27 Q674.557 1513.66 680.368 1513.66 Z" fill="#000000" fill-rule="nonzero" fill-opacity="1"></path><path clip-path="url(#clip960)" d="M700.529 1542.97 L705.414 1542.97 L705.414 1548.85 L700.529 1548.85 L700.529 1542.97 Z" fill="#000000" fill-rule="nonzero" fill-opacity="1"></path><path clip-path="url(#clip960)" d="M719.627 1544.91 L735.946 1544.91 L735.946 1548.85 L714.002 1548.85 L714.002 1544.91 Q716.664 1542.16 721.247 1537.53 Q725.853 1532.88 727.034 1531.53 Q729.279 1529.01 730.159 1527.27 Q731.062 1525.51 731.062 1523.82 Q731.062 1521.07 729.117 1519.33 Q727.196 1517.6 724.094 1517.6 Q721.895 1517.6 719.441 1518.36 Q717.011 1519.13 714.233 1520.68 L714.233 1515.95 Q717.057 1514.82 719.511 1514.24 Q721.965 1513.66 724.002 1513.66 Q729.372 1513.66 732.566 1516.35 Q735.761 1519.03 735.761 1523.52 Q735.761 1525.65 734.951 1527.57 Q734.164 1529.47 732.057 1532.07 Q731.478 1532.74 728.377 1535.95 Q725.275 1539.15 719.627 1544.91 Z" fill="#000000" fill-rule="nonzero" fill-opacity="1"></path><path clip-path="url(#clip960)" d="M1162.76 1517.37 Q1159.15 1517.37 1157.32 1520.93 Q1155.51 1524.47 1155.51 1531.6 Q1155.51 1538.71 1157.32 1542.27 Q1159.15 1545.82 1162.76 1545.82 Q1166.39 1545.82 1168.2 1542.27 Q1170.03 1538.71 1170.03 1531.6 Q1170.03 1524.47 1168.2 1520.93 Q1166.39 1517.37 1162.76 1517.37 M1162.76 1513.66 Q1168.57 1513.66 1171.62 1518.27 Q1174.7 1522.85 1174.7 1531.6 Q1174.7 1540.33 1171.62 1544.94 Q1168.57 1549.52 1162.76 1549.52 Q1156.95 1549.52 1153.87 1544.94 Q1150.81 1540.33 1150.81 1531.6 Q1150.81 1522.85 1153.87 1518.27 Q1156.95 1513.66 1162.76 1513.66 Z" fill="#000000" fill-rule="nonzero" fill-opacity="1"></path><path clip-path="url(#clip960)" d="M1182.92 1542.97 L1187.8 1542.97 L1187.8 1548.85 L1182.92 1548.85 L1182.92 1542.97 Z" fill="#000000" fill-rule="nonzero" fill-opacity="1"></path><path clip-path="url(#clip960)" d="M1210.84 1518.36 L1199.03 1536.81 L1210.84 1536.81 L1210.84 1518.36 M1209.61 1514.29 L1215.49 1514.29 L1215.49 1536.81 L1220.42 1536.81 L1220.42 1540.7 L1215.49 1540.7 L1215.49 1548.85 L1210.84 1548.85 L1210.84 1540.7 L1195.23 1540.7 L1195.23 1536.19 L1209.61 1514.29 Z" fill="#000000" fill-rule="nonzero" fill-opacity="1"></path><path clip-path="url(#clip960)" d="M1646.35 1517.37 Q1642.74 1517.37 1640.91 1520.93 Q1639.1 1524.47 1639.1 1531.6 Q1639.1 1538.71 1640.91 1542.27 Q1642.74 1545.82 1646.35 1545.82 Q1649.98 1545.82 1651.79 1542.27 Q1653.62 1538.71 1653.62 1531.6 Q1653.62 1524.47 1651.79 1520.93 Q1649.98 1517.37 1646.35 1517.37 M1646.35 1513.66 Q1652.16 1513.66 1655.22 1518.27 Q1658.29 1522.85 1658.29 1531.6 Q1658.29 1540.33 1655.22 1544.94 Q1652.16 1549.52 1646.35 1549.52 Q1640.54 1549.52 1637.46 1544.94 Q1634.41 1540.33 1634.41 1531.6 Q1634.41 1522.85 1637.46 1518.27 Q1640.54 1513.66 1646.35 1513.66 Z" fill="#000000" fill-rule="nonzero" fill-opacity="1"></path><path clip-path="url(#clip960)" d="M1666.51 1542.97 L1671.4 1542.97 L1671.4 1548.85 L1666.51 1548.85 L1666.51 1542.97 Z" fill="#000000" fill-rule="nonzero" fill-opacity="1"></path><path clip-path="url(#clip960)" d="M1692.16 1529.7 Q1689.01 1529.7 1687.16 1531.86 Q1685.33 1534.01 1685.33 1537.76 Q1685.33 1541.49 1687.16 1543.66 Q1689.01 1545.82 1692.16 1545.82 Q1695.31 1545.82 1697.14 1543.66 Q1698.99 1541.49 1698.99 1537.76 Q1698.99 1534.01 1697.14 1531.86 Q1695.31 1529.7 1692.16 1529.7 M1701.44 1515.05 L1701.44 1519.31 Q1699.68 1518.48 1697.88 1518.04 Q1696.09 1517.6 1694.34 1517.6 Q1689.71 1517.6 1687.25 1520.72 Q1684.82 1523.85 1684.47 1530.17 Q1685.84 1528.15 1687.9 1527.09 Q1689.96 1526 1692.44 1526 Q1697.65 1526 1700.66 1529.17 Q1703.69 1532.32 1703.69 1537.76 Q1703.69 1543.08 1700.54 1546.3 Q1697.39 1549.52 1692.16 1549.52 Q1686.16 1549.52 1682.99 1544.94 Q1679.82 1540.33 1679.82 1531.6 Q1679.82 1523.41 1683.71 1518.55 Q1687.6 1513.66 1694.15 1513.66 Q1695.91 1513.66 1697.69 1514.01 Q1699.5 1514.36 1701.44 1515.05 Z" fill="#000000" fill-rule="nonzero" fill-opacity="1"></path><path clip-path="url(#clip960)" d="M2129.91 1517.37 Q2126.3 1517.37 2124.47 1520.93 Q2122.66 1524.47 2122.66 1531.6 Q2122.66 1538.71 2124.47 1542.27 Q2126.3 1545.82 2129.91 1545.82 Q2133.54 1545.82 2135.35 1542.27 Q2137.18 1538.71 2137.18 1531.6 Q2137.18 1524.47 2135.35 1520.93 Q2133.54 1517.37 2129.91 1517.37 M2129.91 1513.66 Q2135.72 1513.66 2138.77 1518.27 Q2141.85 1522.85 2141.85 1531.6 Q2141.85 1540.33 2138.77 1544.94 Q2135.72 1549.52 2129.91 1549.52 Q2124.1 1549.52 2121.02 1544.94 Q2117.96 1540.33 2117.96 1531.6 Q2117.96 1522.85 2121.02 1518.27 Q2124.1 1513.66 2129.91 1513.66 Z" fill="#000000" fill-rule="nonzero" fill-opacity="1"></path><path clip-path="url(#clip960)" d="M2150.07 1542.97 L2154.95 1542.97 L2154.95 1548.85 L2150.07 1548.85 L2150.07 1542.97 Z" fill="#000000" fill-rule="nonzero" fill-opacity="1"></path><path clip-path="url(#clip960)" d="M2175.14 1532.44 Q2171.81 1532.44 2169.88 1534.22 Q2167.99 1536 2167.99 1539.13 Q2167.99 1542.25 2169.88 1544.03 Q2171.81 1545.82 2175.14 1545.82 Q2178.47 1545.82 2180.39 1544.03 Q2182.32 1542.23 2182.32 1539.13 Q2182.32 1536 2180.39 1534.22 Q2178.5 1532.44 2175.14 1532.44 M2170.46 1530.45 Q2167.45 1529.7 2165.76 1527.64 Q2164.1 1525.58 2164.1 1522.62 Q2164.1 1518.48 2167.04 1516.07 Q2170 1513.66 2175.14 1513.66 Q2180.3 1513.66 2183.24 1516.07 Q2186.18 1518.48 2186.18 1522.62 Q2186.18 1525.58 2184.49 1527.64 Q2182.82 1529.7 2179.84 1530.45 Q2183.22 1531.23 2185.09 1533.52 Q2186.99 1535.82 2186.99 1539.13 Q2186.99 1544.15 2183.91 1546.83 Q2180.86 1549.52 2175.14 1549.52 Q2169.42 1549.52 2166.34 1546.83 Q2163.29 1544.15 2163.29 1539.13 Q2163.29 1535.82 2165.19 1533.52 Q2167.08 1531.23 2170.46 1530.45 M2168.75 1523.06 Q2168.75 1525.75 2170.42 1527.25 Q2172.11 1528.76 2175.14 1528.76 Q2178.15 1528.76 2179.84 1527.25 Q2181.55 1525.75 2181.55 1523.06 Q2181.55 1520.38 2179.84 1518.87 Q2178.15 1517.37 2175.14 1517.37 Q2172.11 1517.37 2170.42 1518.87 Q2168.75 1520.38 2168.75 1523.06 Z" fill="#000000" fill-rule="nonzero" fill-opacity="1"></path><polyline clip-path="url(#clip960)" style="stroke:#000000; stroke-linecap:round; stroke-linejoin:round; stroke-width:4; stroke-opacity:1; fill:none" points="156.598,1486.45 156.598,123.472 "></polyline>
<polyline clip-path="url(#clip960)" style="stroke:#000000; stroke-linecap:round; stroke-linejoin:round; stroke-width:4; stroke-opacity:1; fill:none" points="156.598,1447.87 175.496,1447.87 "></polyline>
<polyline clip-path="url(#clip960)" style="stroke:#000000; stroke-linecap:round; stroke-linejoin:round; stroke-width:4; stroke-opacity:1; fill:none" points="156.598,1147.85 175.496,1147.85 "></polyline>
<polyline clip-path="url(#clip960)" style="stroke:#000000; stroke-linecap:round; stroke-linejoin:round; stroke-width:4; stroke-opacity:1; fill:none" points="156.598,847.821 175.496,847.821 "></polyline>
<polyline clip-path="url(#clip960)" style="stroke:#000000; stroke-linecap:round; stroke-linejoin:round; stroke-width:4; stroke-opacity:1; fill:none" points="156.598,547.795 175.496,547.795 "></polyline>
<polyline clip-path="url(#clip960)" style="stroke:#000000; stroke-linecap:round; stroke-linejoin:round; stroke-width:4; stroke-opacity:1; fill:none" points="156.598,247.769 175.496,247.769 "></polyline>
<path clip-path="url(#clip960)" d="M63.4226 1433.67 Q59.8115 1433.67 57.9828 1437.24 Q56.1773 1440.78 56.1773 1447.91 Q56.1773 1455.01 57.9828 1458.58 Q59.8115 1462.12 63.4226 1462.12 Q67.0569 1462.12 68.8624 1458.58 Q70.6911 1455.01 70.6911 1447.91 Q70.6911 1440.78 68.8624 1437.24 Q67.0569 1433.67 63.4226 1433.67 M63.4226 1429.97 Q69.2328 1429.97 72.2883 1434.57 Q75.367 1439.16 75.367 1447.91 Q75.367 1456.63 72.2883 1461.24 Q69.2328 1465.82 63.4226 1465.82 Q57.6125 1465.82 54.5338 1461.24 Q51.4782 1456.63 51.4782 1447.91 Q51.4782 1439.16 54.5338 1434.57 Q57.6125 1429.97 63.4226 1429.97 Z" fill="#000000" fill-rule="nonzero" fill-opacity="1"></path><path clip-path="url(#clip960)" d="M83.5845 1459.27 L88.4688 1459.27 L88.4688 1465.15 L83.5845 1465.15 L83.5845 1459.27 Z" fill="#000000" fill-rule="nonzero" fill-opacity="1"></path><path clip-path="url(#clip960)" d="M108.654 1433.67 Q105.043 1433.67 103.214 1437.24 Q101.409 1440.78 101.409 1447.91 Q101.409 1455.01 103.214 1458.58 Q105.043 1462.12 108.654 1462.12 Q112.288 1462.12 114.094 1458.58 Q115.922 1455.01 115.922 1447.91 Q115.922 1440.78 114.094 1437.24 Q112.288 1433.67 108.654 1433.67 M108.654 1429.97 Q114.464 1429.97 117.52 1434.57 Q120.598 1439.16 120.598 1447.91 Q120.598 1456.63 117.52 1461.24 Q114.464 1465.82 108.654 1465.82 Q102.844 1465.82 99.765 1461.24 Q96.7095 1456.63 96.7095 1447.91 Q96.7095 1439.16 99.765 1434.57 Q102.844 1429.97 108.654 1429.97 Z" fill="#000000" fill-rule="nonzero" fill-opacity="1"></path><path clip-path="url(#clip960)" d="M65.0198 1133.65 Q61.4087 1133.65 59.58 1137.21 Q57.7745 1140.75 57.7745 1147.88 Q57.7745 1154.99 59.58 1158.55 Q61.4087 1162.09 65.0198 1162.09 Q68.6541 1162.09 70.4596 1158.55 Q72.2883 1154.99 72.2883 1147.88 Q72.2883 1140.75 70.4596 1137.21 Q68.6541 1133.65 65.0198 1133.65 M65.0198 1129.94 Q70.83 1129.94 73.8855 1134.55 Q76.9642 1139.13 76.9642 1147.88 Q76.9642 1156.61 73.8855 1161.21 Q70.83 1165.8 65.0198 1165.8 Q59.2097 1165.8 56.131 1161.21 Q53.0754 1156.61 53.0754 1147.88 Q53.0754 1139.13 56.131 1134.55 Q59.2097 1129.94 65.0198 1129.94 Z" fill="#000000" fill-rule="nonzero" fill-opacity="1"></path><path clip-path="url(#clip960)" d="M85.1818 1159.25 L90.066 1159.25 L90.066 1165.13 L85.1818 1165.13 L85.1818 1159.25 Z" fill="#000000" fill-rule="nonzero" fill-opacity="1"></path><path clip-path="url(#clip960)" d="M104.279 1161.19 L120.598 1161.19 L120.598 1165.13 L98.6539 1165.13 L98.6539 1161.19 Q101.316 1158.44 105.899 1153.81 Q110.506 1149.15 111.686 1147.81 Q113.932 1145.29 114.811 1143.55 Q115.714 1141.79 115.714 1140.1 Q115.714 1137.35 113.77 1135.61 Q111.848 1133.88 108.746 1133.88 Q106.547 1133.88 104.094 1134.64 Q101.663 1135.4 98.8854 1136.96 L98.8854 1132.23 Q101.709 1131.1 104.163 1130.52 Q106.617 1129.94 108.654 1129.94 Q114.024 1129.94 117.219 1132.63 Q120.413 1135.31 120.413 1139.8 Q120.413 1141.93 119.603 1143.85 Q118.816 1145.75 116.709 1148.34 Q116.131 1149.02 113.029 1152.23 Q109.927 1155.43 104.279 1161.19 Z" fill="#000000" fill-rule="nonzero" fill-opacity="1"></path><path clip-path="url(#clip960)" d="M62.9365 833.62 Q59.3254 833.62 57.4967 837.184 Q55.6912 840.726 55.6912 847.856 Q55.6912 854.962 57.4967 858.527 Q59.3254 862.068 62.9365 862.068 Q66.5707 862.068 68.3763 858.527 Q70.205 854.962 70.205 847.856 Q70.205 840.726 68.3763 837.184 Q66.5707 833.62 62.9365 833.62 M62.9365 829.916 Q68.7467 829.916 71.8022 834.522 Q74.8809 839.106 74.8809 847.856 Q74.8809 856.582 71.8022 861.189 Q68.7467 865.772 62.9365 865.772 Q57.1264 865.772 54.0477 861.189 Q50.9921 856.582 50.9921 847.856 Q50.9921 839.106 54.0477 834.522 Q57.1264 829.916 62.9365 829.916 Z" fill="#000000" fill-rule="nonzero" fill-opacity="1"></path><path clip-path="url(#clip960)" d="M83.0984 859.221 L87.9827 859.221 L87.9827 865.101 L83.0984 865.101 L83.0984 859.221 Z" fill="#000000" fill-rule="nonzero" fill-opacity="1"></path><path clip-path="url(#clip960)" d="M111.015 834.615 L99.2095 853.064 L111.015 853.064 L111.015 834.615 M109.788 830.541 L115.668 830.541 L115.668 853.064 L120.598 853.064 L120.598 856.953 L115.668 856.953 L115.668 865.101 L111.015 865.101 L111.015 856.953 L95.4132 856.953 L95.4132 852.439 L109.788 830.541 Z" fill="#000000" fill-rule="nonzero" fill-opacity="1"></path><path clip-path="url(#clip960)" d="M63.2606 533.593 Q59.6495 533.593 57.8208 537.158 Q56.0152 540.7 56.0152 547.829 Q56.0152 554.936 57.8208 558.501 Q59.6495 562.042 63.2606 562.042 Q66.8948 562.042 68.7004 558.501 Q70.5291 554.936 70.5291 547.829 Q70.5291 540.7 68.7004 537.158 Q66.8948 533.593 63.2606 533.593 M63.2606 529.89 Q69.0707 529.89 72.1263 534.496 Q75.205 539.08 75.205 547.829 Q75.205 556.556 72.1263 561.163 Q69.0707 565.746 63.2606 565.746 Q57.4504 565.746 54.3717 561.163 Q51.3162 556.556 51.3162 547.829 Q51.3162 539.08 54.3717 534.496 Q57.4504 529.89 63.2606 529.89 Z" fill="#000000" fill-rule="nonzero" fill-opacity="1"></path><path clip-path="url(#clip960)" d="M83.4225 559.195 L88.3067 559.195 L88.3067 565.075 L83.4225 565.075 L83.4225 559.195 Z" fill="#000000" fill-rule="nonzero" fill-opacity="1"></path><path clip-path="url(#clip960)" d="M109.071 545.931 Q105.922 545.931 104.071 548.084 Q102.242 550.237 102.242 553.987 Q102.242 557.714 104.071 559.89 Q105.922 562.042 109.071 562.042 Q112.219 562.042 114.047 559.89 Q115.899 557.714 115.899 553.987 Q115.899 550.237 114.047 548.084 Q112.219 545.931 109.071 545.931 M118.353 531.279 L118.353 535.538 Q116.594 534.705 114.788 534.265 Q113.006 533.825 111.246 533.825 Q106.617 533.825 104.163 536.95 Q101.733 540.075 101.385 546.394 Q102.751 544.38 104.811 543.316 Q106.871 542.228 109.348 542.228 Q114.557 542.228 117.566 545.399 Q120.598 548.547 120.598 553.987 Q120.598 559.311 117.45 562.528 Q114.302 565.746 109.071 565.746 Q103.075 565.746 99.9039 561.163 Q96.7326 556.556 96.7326 547.829 Q96.7326 539.635 100.621 534.774 Q104.51 529.89 111.061 529.89 Q112.82 529.89 114.603 530.237 Q116.408 530.584 118.353 531.279 Z" fill="#000000" fill-rule="nonzero" fill-opacity="1"></path><path clip-path="url(#clip960)" d="M63.5152 233.567 Q59.9041 233.567 58.0754 237.132 Q56.2699 240.674 56.2699 247.803 Q56.2699 254.91 58.0754 258.475 Q59.9041 262.016 63.5152 262.016 Q67.1494 262.016 68.955 258.475 Q70.7837 254.91 70.7837 247.803 Q70.7837 240.674 68.955 237.132 Q67.1494 233.567 63.5152 233.567 M63.5152 229.864 Q69.3254 229.864 72.3809 234.47 Q75.4596 239.053 75.4596 247.803 Q75.4596 256.53 72.3809 261.137 Q69.3254 265.72 63.5152 265.72 Q57.7051 265.72 54.6264 261.137 Q51.5708 256.53 51.5708 247.803 Q51.5708 239.053 54.6264 234.47 Q57.7051 229.864 63.5152 229.864 Z" fill="#000000" fill-rule="nonzero" fill-opacity="1"></path><path clip-path="url(#clip960)" d="M83.6771 259.169 L88.5614 259.169 L88.5614 265.049 L83.6771 265.049 L83.6771 259.169 Z" fill="#000000" fill-rule="nonzero" fill-opacity="1"></path><path clip-path="url(#clip960)" d="M108.746 248.637 Q105.413 248.637 103.492 250.419 Q101.594 252.202 101.594 255.326 Q101.594 258.451 103.492 260.234 Q105.413 262.016 108.746 262.016 Q112.08 262.016 114.001 260.234 Q115.922 258.428 115.922 255.326 Q115.922 252.202 114.001 250.419 Q112.103 248.637 108.746 248.637 M104.071 246.646 Q101.061 245.905 99.3715 243.845 Q97.7048 241.785 97.7048 238.822 Q97.7048 234.678 100.645 232.271 Q103.608 229.864 108.746 229.864 Q113.908 229.864 116.848 232.271 Q119.788 234.678 119.788 238.822 Q119.788 241.785 118.098 243.845 Q116.432 245.905 113.445 246.646 Q116.825 247.433 118.7 249.725 Q120.598 252.016 120.598 255.326 Q120.598 260.35 117.52 263.035 Q114.464 265.72 108.746 265.72 Q103.029 265.72 99.9502 263.035 Q96.8947 260.35 96.8947 255.326 Q96.8947 252.016 98.7928 249.725 Q100.691 247.433 104.071 246.646 M102.358 239.262 Q102.358 241.947 104.024 243.452 Q105.714 244.956 108.746 244.956 Q111.756 244.956 113.445 243.452 Q115.158 241.947 115.158 239.262 Q115.158 236.577 113.445 235.072 Q111.756 233.567 108.746 233.567 Q105.714 233.567 104.024 235.072 Q102.358 236.577 102.358 239.262 Z" fill="#000000" fill-rule="nonzero" fill-opacity="1"></path><path clip-path="url(#clip960)" d="M571.31 17.6457 Q562.398 17.6457 557.132 24.2892 Q551.906 30.9327 551.906 42.3968 Q551.906 53.8203 557.132 60.4638 Q562.398 67.1073 571.31 67.1073 Q580.222 67.1073 585.407 60.4638 Q590.633 53.8203 590.633 42.3968 Q590.633 30.9327 585.407 24.2892 Q580.222 17.6457 571.31 17.6457 M571.31 11.0023 Q584.03 11.0023 591.645 19.5497 Q599.261 28.0566 599.261 42.3968 Q599.261 56.6965 591.645 65.2439 Q584.03 73.7508 571.31 73.7508 Q558.549 73.7508 550.893 65.2439 Q543.278 56.737 543.278 42.3968 Q543.278 28.0566 550.893 19.5497 Q558.549 11.0023 571.31 11.0023 Z" fill="#000000" fill-rule="nonzero" fill-opacity="1"></path><path clip-path="url(#clip960)" d="M644.307 49.9314 Q644.307 41.7081 640.904 37.0496 Q637.542 32.3505 631.628 32.3505 Q625.713 32.3505 622.311 37.0496 Q618.948 41.7081 618.948 49.9314 Q618.948 58.1548 622.311 62.8538 Q625.713 67.5124 631.628 67.5124 Q637.542 67.5124 640.904 62.8538 Q644.307 58.1548 644.307 49.9314 M618.948 34.0924 Q621.298 30.0415 624.863 28.0971 Q628.468 26.1121 633.451 26.1121 Q641.714 26.1121 646.859 32.6746 Q652.044 39.2371 652.044 49.9314 Q652.044 60.6258 646.859 67.1883 Q641.714 73.7508 633.451 73.7508 Q628.468 73.7508 624.863 71.8063 Q621.298 69.8214 618.948 65.7705 L618.948 72.576 L611.454 72.576 L611.454 9.54393 L618.948 9.54393 L618.948 34.0924 Z" fill="#000000" fill-rule="nonzero" fill-opacity="1"></path><path clip-path="url(#clip960)" d="M693.323 28.5427 L693.323 35.5912 Q690.163 33.9709 686.761 33.1607 Q683.358 32.3505 679.712 32.3505 Q674.162 32.3505 671.367 34.0519 Q668.613 35.7533 668.613 39.156 Q668.613 41.7486 670.597 43.2475 Q672.582 44.7058 678.578 46.0426 L681.13 46.6097 Q689.07 48.3111 692.391 51.4303 Q695.754 54.509 695.754 60.0587 Q695.754 66.3781 690.73 70.0644 Q685.748 73.7508 676.998 73.7508 Q673.352 73.7508 669.382 73.0216 Q665.453 72.3329 661.078 70.9151 L661.078 63.2184 Q665.21 65.3654 669.22 66.4591 Q673.231 67.5124 677.16 67.5124 Q682.426 67.5124 685.262 65.73 Q688.097 63.9071 688.097 60.6258 Q688.097 57.5877 686.031 55.9673 Q684.006 54.3469 677.079 52.8481 L674.486 52.2405 Q667.559 50.7821 664.481 47.7845 Q661.402 44.7463 661.402 39.4801 Q661.402 33.0797 665.939 29.5959 Q670.476 26.1121 678.821 26.1121 Q682.953 26.1121 686.599 26.7198 Q690.244 27.3274 693.323 28.5427 Z" fill="#000000" fill-rule="nonzero" fill-opacity="1"></path><path clip-path="url(#clip960)" d="M746.43 48.0275 L746.43 51.6733 L712.16 51.6733 Q712.646 59.3701 716.778 63.421 Q720.95 67.4314 728.363 67.4314 Q732.657 67.4314 736.668 66.3781 Q740.719 65.3249 744.688 63.2184 L744.688 70.267 Q740.678 71.9684 736.465 72.8596 Q732.252 73.7508 727.918 73.7508 Q717.061 73.7508 710.701 67.4314 Q704.382 61.1119 704.382 50.3365 Q704.382 39.1965 710.377 32.6746 Q716.413 26.1121 726.621 26.1121 Q735.776 26.1121 741.083 32.0264 Q746.43 37.9003 746.43 48.0275 M738.977 45.84 Q738.896 39.7232 735.533 36.0774 Q732.212 32.4315 726.702 32.4315 Q720.464 32.4315 716.697 35.9558 Q712.97 39.4801 712.403 45.8805 L738.977 45.84 Z" fill="#000000" fill-rule="nonzero" fill-opacity="1"></path><path clip-path="url(#clip960)" d="M784.954 34.1734 Q783.699 33.4443 782.2 33.1202 Q780.742 32.7556 778.959 32.7556 Q772.64 32.7556 769.237 36.8875 Q765.875 40.9789 765.875 48.6757 L765.875 72.576 L758.381 72.576 L758.381 27.2059 L765.875 27.2059 L765.875 34.2544 Q768.224 30.1225 771.992 28.1376 Q775.759 26.1121 781.147 26.1121 Q781.916 26.1121 782.848 26.2337 Q783.78 26.3147 784.914 26.5172 L784.954 34.1734 Z" fill="#000000" fill-rule="nonzero" fill-opacity="1"></path><path clip-path="url(#clip960)" d="M787.426 27.2059 L795.325 27.2059 L809.503 65.2844 L823.681 27.2059 L831.58 27.2059 L814.567 72.576 L804.439 72.576 L787.426 27.2059 Z" fill="#000000" fill-rule="nonzero" fill-opacity="1"></path><path clip-path="url(#clip960)" d="M862.489 49.7694 Q853.455 49.7694 849.971 51.8354 Q846.488 53.9013 846.488 58.8839 Q846.488 62.8538 849.08 65.2034 Q851.713 67.5124 856.21 67.5124 Q862.408 67.5124 866.135 63.1374 Q869.902 58.7219 869.902 51.4303 L869.902 49.7694 L862.489 49.7694 M877.356 46.6907 L877.356 72.576 L869.902 72.576 L869.902 65.6895 Q867.35 69.8214 863.542 71.8063 Q859.734 73.7508 854.225 73.7508 Q847.257 73.7508 843.125 69.8619 Q839.034 65.9325 839.034 59.3701 Q839.034 51.7138 844.138 47.825 Q849.283 43.9361 859.451 43.9361 L869.902 43.9361 L869.902 43.2069 Q869.902 38.0623 866.499 35.2672 Q863.137 32.4315 857.02 32.4315 Q853.131 32.4315 849.445 33.3632 Q845.759 34.295 842.356 36.1584 L842.356 29.2718 Q846.447 27.692 850.296 26.9223 Q854.144 26.1121 857.79 26.1121 Q867.633 26.1121 872.495 31.2163 Q877.356 36.3204 877.356 46.6907 Z" fill="#000000" fill-rule="nonzero" fill-opacity="1"></path><path clip-path="url(#clip960)" d="M900.081 14.324 L900.081 27.2059 L915.434 27.2059 L915.434 32.9987 L900.081 32.9987 L900.081 57.6282 Q900.081 63.1779 901.58 64.7578 Q903.119 66.3376 907.778 66.3376 L915.434 66.3376 L915.434 72.576 L907.778 72.576 Q899.149 72.576 895.868 69.3758 Q892.587 66.1351 892.587 57.6282 L892.587 32.9987 L887.118 32.9987 L887.118 27.2059 L892.587 27.2059 L892.587 14.324 L900.081 14.324 Z" fill="#000000" fill-rule="nonzero" fill-opacity="1"></path><path clip-path="url(#clip960)" d="M925.237 27.2059 L932.691 27.2059 L932.691 72.576 L925.237 72.576 L925.237 27.2059 M925.237 9.54393 L932.691 9.54393 L932.691 18.9825 L925.237 18.9825 L925.237 9.54393 Z" fill="#000000" fill-rule="nonzero" fill-opacity="1"></path><path clip-path="url(#clip960)" d="M965.868 32.4315 Q959.873 32.4315 956.389 37.1306 Q952.905 41.7891 952.905 49.9314 Q952.905 58.0738 956.348 62.7728 Q959.832 67.4314 965.868 67.4314 Q971.823 67.4314 975.306 62.7323 Q978.79 58.0333 978.79 49.9314 Q978.79 41.8701 975.306 37.1711 Q971.823 32.4315 965.868 32.4315 M965.868 26.1121 Q975.59 26.1121 981.14 32.4315 Q986.69 38.7509 986.69 49.9314 Q986.69 61.0714 981.14 67.4314 Q975.59 73.7508 965.868 73.7508 Q956.105 73.7508 950.555 67.4314 Q945.046 61.0714 945.046 49.9314 Q945.046 38.7509 950.555 32.4315 Q956.105 26.1121 965.868 26.1121 Z" fill="#000000" fill-rule="nonzero" fill-opacity="1"></path><path clip-path="url(#clip960)" d="M1036.76 45.1919 L1036.76 72.576 L1029.31 72.576 L1029.31 45.4349 Q1029.31 38.994 1026.79 35.7938 Q1024.28 32.5936 1019.26 32.5936 Q1013.22 32.5936 1009.74 36.4419 Q1006.26 40.2903 1006.26 46.9338 L1006.26 72.576 L998.761 72.576 L998.761 27.2059 L1006.26 27.2059 L1006.26 34.2544 Q1008.93 30.163 1012.53 28.1376 Q1016.18 26.1121 1020.92 26.1121 Q1028.74 26.1121 1032.75 30.9732 Q1036.76 35.7938 1036.76 45.1919 Z" fill="#000000" fill-rule="nonzero" fill-opacity="1"></path><path clip-path="url(#clip960)" d="M1098.62 49.7694 Q1089.58 49.7694 1086.1 51.8354 Q1082.61 53.9013 1082.61 58.8839 Q1082.61 62.8538 1085.21 65.2034 Q1087.84 67.5124 1092.34 67.5124 Q1098.53 67.5124 1102.26 63.1374 Q1106.03 58.7219 1106.03 51.4303 L1106.03 49.7694 L1098.62 49.7694 M1113.48 46.6907 L1113.48 72.576 L1106.03 72.576 L1106.03 65.6895 Q1103.48 69.8214 1099.67 71.8063 Q1095.86 73.7508 1090.35 73.7508 Q1083.38 73.7508 1079.25 69.8619 Q1075.16 65.9325 1075.16 59.3701 Q1075.16 51.7138 1080.27 47.825 Q1085.41 43.9361 1095.58 43.9361 L1106.03 43.9361 L1106.03 43.2069 Q1106.03 38.0623 1102.63 35.2672 Q1099.26 32.4315 1093.15 32.4315 Q1089.26 32.4315 1085.57 33.3632 Q1081.89 34.295 1078.48 36.1584 L1078.48 29.2718 Q1082.57 27.692 1086.42 26.9223 Q1090.27 26.1121 1093.92 26.1121 Q1103.76 26.1121 1108.62 31.2163 Q1113.48 36.3204 1113.48 46.6907 Z" fill="#000000" fill-rule="nonzero" fill-opacity="1"></path><path clip-path="url(#clip960)" d="M1166.55 45.1919 L1166.55 72.576 L1159.1 72.576 L1159.1 45.4349 Q1159.1 38.994 1156.58 35.7938 Q1154.07 32.5936 1149.05 32.5936 Q1143.01 32.5936 1139.53 36.4419 Q1136.05 40.2903 1136.05 46.9338 L1136.05 72.576 L1128.55 72.576 L1128.55 27.2059 L1136.05 27.2059 L1136.05 34.2544 Q1138.72 30.163 1142.33 28.1376 Q1145.97 26.1121 1150.71 26.1121 Q1158.53 26.1121 1162.54 30.9732 Q1166.55 35.7938 1166.55 45.1919 Z" fill="#000000" fill-rule="nonzero" fill-opacity="1"></path><path clip-path="url(#clip960)" d="M1211.27 34.0924 L1211.27 9.54393 L1218.73 9.54393 L1218.73 72.576 L1211.27 72.576 L1211.27 65.7705 Q1208.92 69.8214 1205.32 71.8063 Q1201.75 73.7508 1196.73 73.7508 Q1188.51 73.7508 1183.32 67.1883 Q1178.18 60.6258 1178.18 49.9314 Q1178.18 39.2371 1183.32 32.6746 Q1188.51 26.1121 1196.73 26.1121 Q1201.75 26.1121 1205.32 28.0971 Q1208.92 30.0415 1211.27 34.0924 M1185.87 49.9314 Q1185.87 58.1548 1189.23 62.8538 Q1192.64 67.5124 1198.55 67.5124 Q1204.47 67.5124 1207.87 62.8538 Q1211.27 58.1548 1211.27 49.9314 Q1211.27 41.7081 1207.87 37.0496 Q1204.47 32.3505 1198.55 32.3505 Q1192.64 32.3505 1189.23 37.0496 Q1185.87 41.7081 1185.87 49.9314 Z" fill="#000000" fill-rule="nonzero" fill-opacity="1"></path><path clip-path="url(#clip960)" d="M1297.03 14.0809 L1297.03 22.0612 Q1292.37 19.8332 1288.24 18.7395 Q1284.11 17.6457 1280.26 17.6457 Q1273.57 17.6457 1269.93 20.2383 Q1266.32 22.8309 1266.32 27.611 Q1266.32 31.6214 1268.71 33.6873 Q1271.14 35.7128 1277.87 36.9686 L1282.81 37.9813 Q1291.97 39.7232 1296.3 44.1387 Q1300.68 48.5136 1300.68 55.8863 Q1300.68 64.6767 1294.76 69.2137 Q1288.89 73.7508 1277.5 73.7508 Q1273.21 73.7508 1268.35 72.7785 Q1263.53 71.8063 1258.34 69.9024 L1258.34 61.4765 Q1263.33 64.2716 1268.11 65.6895 Q1272.89 67.1073 1277.5 67.1073 Q1284.51 67.1073 1288.32 64.3527 Q1292.13 61.598 1292.13 56.4939 Q1292.13 52.0379 1289.37 49.5264 Q1286.66 47.0148 1280.42 45.759 L1275.44 44.7868 Q1266.28 42.9639 1262.19 39.075 Q1258.1 35.1862 1258.1 28.2591 Q1258.1 20.2383 1263.73 15.6203 Q1269.4 11.0023 1279.33 11.0023 Q1283.58 11.0023 1288 11.7719 Q1292.41 12.5416 1297.03 14.0809 Z" fill="#000000" fill-rule="nonzero" fill-opacity="1"></path><path clip-path="url(#clip960)" d="M1313.11 27.2059 L1320.57 27.2059 L1320.57 72.576 L1313.11 72.576 L1313.11 27.2059 M1313.11 9.54393 L1320.57 9.54393 L1320.57 18.9825 L1313.11 18.9825 L1313.11 9.54393 Z" fill="#000000" fill-rule="nonzero" fill-opacity="1"></path><path clip-path="url(#clip960)" d="M1371.48 35.9153 Q1374.28 30.8922 1378.17 28.5022 Q1382.06 26.1121 1387.32 26.1121 Q1394.41 26.1121 1398.26 31.0947 Q1402.11 36.0368 1402.11 45.1919 L1402.11 72.576 L1394.62 72.576 L1394.62 45.4349 Q1394.62 38.913 1392.31 35.7533 Q1390 32.5936 1385.26 32.5936 Q1379.47 32.5936 1376.1 36.4419 Q1372.74 40.2903 1372.74 46.9338 L1372.74 72.576 L1365.25 72.576 L1365.25 45.4349 Q1365.25 38.8725 1362.94 35.7533 Q1360.63 32.5936 1355.81 32.5936 Q1350.1 32.5936 1346.73 36.4824 Q1343.37 40.3308 1343.37 46.9338 L1343.37 72.576 L1335.88 72.576 L1335.88 27.2059 L1343.37 27.2059 L1343.37 34.2544 Q1345.92 30.082 1349.49 28.0971 Q1353.05 26.1121 1357.95 26.1121 Q1362.9 26.1121 1366.34 28.6237 Q1369.82 31.1352 1371.48 35.9153 Z" fill="#000000" fill-rule="nonzero" fill-opacity="1"></path><path clip-path="url(#clip960)" d="M1416.21 54.671 L1416.21 27.2059 L1423.66 27.2059 L1423.66 54.3874 Q1423.66 60.8284 1426.17 64.0691 Q1428.68 67.2693 1433.71 67.2693 Q1439.74 67.2693 1443.23 63.421 Q1446.75 59.5726 1446.75 52.9291 L1446.75 27.2059 L1454.2 27.2059 L1454.2 72.576 L1446.75 72.576 L1446.75 65.6084 Q1444.04 69.7404 1440.43 71.7658 Q1436.87 73.7508 1432.13 73.7508 Q1424.31 73.7508 1420.26 68.8897 Q1416.21 64.0286 1416.21 54.671 M1434.96 26.1121 L1434.96 26.1121 Z" fill="#000000" fill-rule="nonzero" fill-opacity="1"></path><path clip-path="url(#clip960)" d="M1469.56 9.54393 L1477.01 9.54393 L1477.01 72.576 L1469.56 72.576 L1469.56 9.54393 Z" fill="#000000" fill-rule="nonzero" fill-opacity="1"></path><path clip-path="url(#clip960)" d="M1513.23 49.7694 Q1504.19 49.7694 1500.71 51.8354 Q1497.22 53.9013 1497.22 58.8839 Q1497.22 62.8538 1499.82 65.2034 Q1502.45 67.5124 1506.95 67.5124 Q1513.15 67.5124 1516.87 63.1374 Q1520.64 58.7219 1520.64 51.4303 L1520.64 49.7694 L1513.23 49.7694 M1528.09 46.6907 L1528.09 72.576 L1520.64 72.576 L1520.64 65.6895 Q1518.09 69.8214 1514.28 71.8063 Q1510.47 73.7508 1504.96 73.7508 Q1497.99 73.7508 1493.86 69.8619 Q1489.77 65.9325 1489.77 59.3701 Q1489.77 51.7138 1494.88 47.825 Q1500.02 43.9361 1510.19 43.9361 L1520.64 43.9361 L1520.64 43.2069 Q1520.64 38.0623 1517.24 35.2672 Q1513.87 32.4315 1507.76 32.4315 Q1503.87 32.4315 1500.18 33.3632 Q1496.5 34.295 1493.09 36.1584 L1493.09 29.2718 Q1497.18 27.692 1501.03 26.9223 Q1504.88 26.1121 1508.53 26.1121 Q1518.37 26.1121 1523.23 31.2163 Q1528.09 36.3204 1528.09 46.6907 Z" fill="#000000" fill-rule="nonzero" fill-opacity="1"></path><path clip-path="url(#clip960)" d="M1550.82 14.324 L1550.82 27.2059 L1566.17 27.2059 L1566.17 32.9987 L1550.82 32.9987 L1550.82 57.6282 Q1550.82 63.1779 1552.32 64.7578 Q1553.86 66.3376 1558.52 66.3376 L1566.17 66.3376 L1566.17 72.576 L1558.52 72.576 Q1549.89 72.576 1546.61 69.3758 Q1543.32 66.1351 1543.32 57.6282 L1543.32 32.9987 L1537.86 32.9987 L1537.86 27.2059 L1543.32 27.2059 L1543.32 14.324 L1550.82 14.324 Z" fill="#000000" fill-rule="nonzero" fill-opacity="1"></path><path clip-path="url(#clip960)" d="M1575.97 27.2059 L1583.43 27.2059 L1583.43 72.576 L1575.97 72.576 L1575.97 27.2059 M1575.97 9.54393 L1583.43 9.54393 L1583.43 18.9825 L1575.97 18.9825 L1575.97 9.54393 Z" fill="#000000" fill-rule="nonzero" fill-opacity="1"></path><path clip-path="url(#clip960)" d="M1616.61 32.4315 Q1610.61 32.4315 1607.13 37.1306 Q1603.64 41.7891 1603.64 49.9314 Q1603.64 58.0738 1607.09 62.7728 Q1610.57 67.4314 1616.61 67.4314 Q1622.56 67.4314 1626.04 62.7323 Q1629.53 58.0333 1629.53 49.9314 Q1629.53 41.8701 1626.04 37.1711 Q1622.56 32.4315 1616.61 32.4315 M1616.61 26.1121 Q1626.33 26.1121 1631.88 32.4315 Q1637.43 38.7509 1637.43 49.9314 Q1637.43 61.0714 1631.88 67.4314 Q1626.33 73.7508 1616.61 73.7508 Q1606.84 73.7508 1601.29 67.4314 Q1595.78 61.0714 1595.78 49.9314 Q1595.78 38.7509 1601.29 32.4315 Q1606.84 26.1121 1616.61 26.1121 Z" fill="#000000" fill-rule="nonzero" fill-opacity="1"></path><path clip-path="url(#clip960)" d="M1687.5 45.1919 L1687.5 72.576 L1680.04 72.576 L1680.04 45.4349 Q1680.04 38.994 1677.53 35.7938 Q1675.02 32.5936 1670 32.5936 Q1663.96 32.5936 1660.48 36.4419 Q1656.99 40.2903 1656.99 46.9338 L1656.99 72.576 L1649.5 72.576 L1649.5 27.2059 L1656.99 27.2059 L1656.99 34.2544 Q1659.67 30.163 1663.27 28.1376 Q1666.92 26.1121 1671.66 26.1121 Q1679.48 26.1121 1683.49 30.9732 Q1687.5 35.7938 1687.5 45.1919 Z" fill="#000000" fill-rule="nonzero" fill-opacity="1"></path><path clip-path="url(#clip960)" d="M1737.24 18.8205 L1737.24 41.5461 L1747.53 41.5461 Q1753.24 41.5461 1756.36 38.5889 Q1759.48 35.6318 1759.48 30.163 Q1759.48 24.7348 1756.36 21.7777 Q1753.24 18.8205 1747.53 18.8205 L1737.24 18.8205 M1729.06 12.096 L1747.53 12.096 Q1757.7 12.096 1762.88 16.714 Q1768.11 21.2916 1768.11 30.163 Q1768.11 39.1155 1762.88 43.6931 Q1757.7 48.2706 1747.53 48.2706 L1737.24 48.2706 L1737.24 72.576 L1729.06 72.576 L1729.06 12.096 Z" fill="#000000" fill-rule="nonzero" fill-opacity="1"></path><path clip-path="url(#clip960)" d="M1793.39 32.4315 Q1787.39 32.4315 1783.91 37.1306 Q1780.42 41.7891 1780.42 49.9314 Q1780.42 58.0738 1783.87 62.7728 Q1787.35 67.4314 1793.39 67.4314 Q1799.34 67.4314 1802.83 62.7323 Q1806.31 58.0333 1806.31 49.9314 Q1806.31 41.8701 1802.83 37.1711 Q1799.34 32.4315 1793.39 32.4315 M1793.39 26.1121 Q1803.11 26.1121 1808.66 32.4315 Q1814.21 38.7509 1814.21 49.9314 Q1814.21 61.0714 1808.66 67.4314 Q1803.11 73.7508 1793.39 73.7508 Q1783.62 73.7508 1778.07 67.4314 Q1772.56 61.0714 1772.56 49.9314 Q1772.56 38.7509 1778.07 32.4315 Q1783.62 26.1121 1793.39 26.1121 Z" fill="#000000" fill-rule="nonzero" fill-opacity="1"></path><path clip-path="url(#clip960)" d="M1826.56 27.2059 L1834.02 27.2059 L1834.02 72.576 L1826.56 72.576 L1826.56 27.2059 M1826.56 9.54393 L1834.02 9.54393 L1834.02 18.9825 L1826.56 18.9825 L1826.56 9.54393 Z" fill="#000000" fill-rule="nonzero" fill-opacity="1"></path><path clip-path="url(#clip960)" d="M1887.33 45.1919 L1887.33 72.576 L1879.87 72.576 L1879.87 45.4349 Q1879.87 38.994 1877.36 35.7938 Q1874.85 32.5936 1869.83 32.5936 Q1863.79 32.5936 1860.31 36.4419 Q1856.82 40.2903 1856.82 46.9338 L1856.82 72.576 L1849.33 72.576 L1849.33 27.2059 L1856.82 27.2059 L1856.82 34.2544 Q1859.5 30.163 1863.1 28.1376 Q1866.75 26.1121 1871.49 26.1121 Q1879.31 26.1121 1883.32 30.9732 Q1887.33 35.7938 1887.33 45.1919 Z" fill="#000000" fill-rule="nonzero" fill-opacity="1"></path><path clip-path="url(#clip960)" d="M1909.57 14.324 L1909.57 27.2059 L1924.92 27.2059 L1924.92 32.9987 L1909.57 32.9987 L1909.57 57.6282 Q1909.57 63.1779 1911.07 64.7578 Q1912.6 66.3376 1917.26 66.3376 L1924.92 66.3376 L1924.92 72.576 L1917.26 72.576 Q1908.63 72.576 1905.35 69.3758 Q1902.07 66.1351 1902.07 57.6282 L1902.07 32.9987 L1896.6 32.9987 L1896.6 27.2059 L1902.07 27.2059 L1902.07 14.324 L1909.57 14.324 Z" fill="#000000" fill-rule="nonzero" fill-opacity="1"></path><path clip-path="url(#clip960)" d="M1963.65 28.5427 L1963.65 35.5912 Q1960.49 33.9709 1957.08 33.1607 Q1953.68 32.3505 1950.04 32.3505 Q1944.49 32.3505 1941.69 34.0519 Q1938.94 35.7533 1938.94 39.156 Q1938.94 41.7486 1940.92 43.2475 Q1942.91 44.7058 1948.9 46.0426 L1951.45 46.6097 Q1959.39 48.3111 1962.71 51.4303 Q1966.08 54.509 1966.08 60.0587 Q1966.08 66.3781 1961.05 70.0644 Q1956.07 73.7508 1947.32 73.7508 Q1943.68 73.7508 1939.71 73.0216 Q1935.78 72.3329 1931.4 70.9151 L1931.4 63.2184 Q1935.53 65.3654 1939.54 66.4591 Q1943.55 67.5124 1947.48 67.5124 Q1952.75 67.5124 1955.58 65.73 Q1958.42 63.9071 1958.42 60.6258 Q1958.42 57.5877 1956.35 55.9673 Q1954.33 54.3469 1947.4 52.8481 L1944.81 52.2405 Q1937.88 50.7821 1934.8 47.7845 Q1931.72 44.7463 1931.72 39.4801 Q1931.72 33.0797 1936.26 29.5959 Q1940.8 26.1121 1949.14 26.1121 Q1953.28 26.1121 1956.92 26.7198 Q1960.57 27.3274 1963.65 28.5427 Z" fill="#000000" fill-rule="nonzero" fill-opacity="1"></path><circle clip-path="url(#clip962)" cx="218.754" cy="1447.87" r="14.4" fill="#ff0000" fill-rule="evenodd" fill-opacity="0.4" stroke="#000000" stroke-opacity="0.4" stroke-width="3.2"></circle>
<circle clip-path="url(#clip962)" cx="564.061" cy="1447.87" r="14.4" fill="#ff0000" fill-rule="evenodd" fill-opacity="0.4" stroke="#000000" stroke-opacity="0.4" stroke-width="3.2"></circle>
<circle clip-path="url(#clip962)" cx="909.369" cy="1447.87" r="14.4" fill="#ff0000" fill-rule="evenodd" fill-opacity="0.4" stroke="#000000" stroke-opacity="0.4" stroke-width="3.2"></circle>
<circle clip-path="url(#clip962)" cx="1254.68" cy="1447.87" r="14.4" fill="#ff0000" fill-rule="evenodd" fill-opacity="0.4" stroke="#000000" stroke-opacity="0.4" stroke-width="3.2"></circle>
<circle clip-path="url(#clip962)" cx="1599.98" cy="1447.87" r="14.4" fill="#ff0000" fill-rule="evenodd" fill-opacity="0.4" stroke="#000000" stroke-opacity="0.4" stroke-width="3.2"></circle>
<circle clip-path="url(#clip962)" cx="1945.29" cy="1447.87" r="14.4" fill="#ff0000" fill-rule="evenodd" fill-opacity="0.4" stroke="#000000" stroke-opacity="0.4" stroke-width="3.2"></circle>
<circle clip-path="url(#clip962)" cx="2290.6" cy="1447.87" r="14.4" fill="#ff0000" fill-rule="evenodd" fill-opacity="0.4" stroke="#000000" stroke-opacity="0.4" stroke-width="3.2"></circle>
<circle clip-path="url(#clip962)" cx="218.754" cy="1233.57" r="14.4" fill="#ff0000" fill-rule="evenodd" fill-opacity="0.4" stroke="#000000" stroke-opacity="0.4" stroke-width="3.2"></circle>
<circle clip-path="url(#clip962)" cx="564.061" cy="1233.57" r="14.4" fill="#ff0000" fill-rule="evenodd" fill-opacity="0.4" stroke="#000000" stroke-opacity="0.4" stroke-width="3.2"></circle>
<circle clip-path="url(#clip962)" cx="909.369" cy="1233.57" r="14.4" fill="#ff0000" fill-rule="evenodd" fill-opacity="0.4" stroke="#000000" stroke-opacity="0.4" stroke-width="3.2"></circle>
<circle clip-path="url(#clip962)" cx="1254.68" cy="1233.57" r="14.4" fill="#ff0000" fill-rule="evenodd" fill-opacity="0.4" stroke="#000000" stroke-opacity="0.4" stroke-width="3.2"></circle>
<circle clip-path="url(#clip962)" cx="1599.98" cy="1233.57" r="14.4" fill="#ff0000" fill-rule="evenodd" fill-opacity="0.4" stroke="#000000" stroke-opacity="0.4" stroke-width="3.2"></circle>
<circle clip-path="url(#clip962)" cx="1945.29" cy="1233.57" r="14.4" fill="#ff0000" fill-rule="evenodd" fill-opacity="0.4" stroke="#000000" stroke-opacity="0.4" stroke-width="3.2"></circle>
<circle clip-path="url(#clip962)" cx="2290.6" cy="1233.57" r="14.4" fill="#ff0000" fill-rule="evenodd" fill-opacity="0.4" stroke="#000000" stroke-opacity="0.4" stroke-width="3.2"></circle>
<circle clip-path="url(#clip962)" cx="218.754" cy="1019.26" r="14.4" fill="#ff0000" fill-rule="evenodd" fill-opacity="0.4" stroke="#000000" stroke-opacity="0.4" stroke-width="3.2"></circle>
<circle clip-path="url(#clip962)" cx="564.061" cy="1019.26" r="14.4" fill="#ff0000" fill-rule="evenodd" fill-opacity="0.4" stroke="#000000" stroke-opacity="0.4" stroke-width="3.2"></circle>
<circle clip-path="url(#clip962)" cx="909.369" cy="1019.26" r="14.4" fill="#ff0000" fill-rule="evenodd" fill-opacity="0.4" stroke="#000000" stroke-opacity="0.4" stroke-width="3.2"></circle>
<circle clip-path="url(#clip962)" cx="1254.68" cy="1019.26" r="14.4" fill="#ff0000" fill-rule="evenodd" fill-opacity="0.4" stroke="#000000" stroke-opacity="0.4" stroke-width="3.2"></circle>
<circle clip-path="url(#clip962)" cx="1599.98" cy="1019.26" r="14.4" fill="#ff0000" fill-rule="evenodd" fill-opacity="0.4" stroke="#000000" stroke-opacity="0.4" stroke-width="3.2"></circle>
<circle clip-path="url(#clip962)" cx="1945.29" cy="1019.26" r="14.4" fill="#ff0000" fill-rule="evenodd" fill-opacity="0.4" stroke="#000000" stroke-opacity="0.4" stroke-width="3.2"></circle>
<circle clip-path="url(#clip962)" cx="2290.6" cy="1019.26" r="14.4" fill="#ff0000" fill-rule="evenodd" fill-opacity="0.4" stroke="#000000" stroke-opacity="0.4" stroke-width="3.2"></circle>
<circle clip-path="url(#clip962)" cx="218.754" cy="804.96" r="14.4" fill="#ff0000" fill-rule="evenodd" fill-opacity="0.4" stroke="#000000" stroke-opacity="0.4" stroke-width="3.2"></circle>
<circle clip-path="url(#clip962)" cx="564.061" cy="804.96" r="14.4" fill="#ff0000" fill-rule="evenodd" fill-opacity="0.4" stroke="#000000" stroke-opacity="0.4" stroke-width="3.2"></circle>
<circle clip-path="url(#clip962)" cx="909.369" cy="804.96" r="14.4" fill="#ff0000" fill-rule="evenodd" fill-opacity="0.4" stroke="#000000" stroke-opacity="0.4" stroke-width="3.2"></circle>
<circle clip-path="url(#clip962)" cx="1254.68" cy="804.96" r="14.4" fill="#ff0000" fill-rule="evenodd" fill-opacity="0.4" stroke="#000000" stroke-opacity="0.4" stroke-width="3.2"></circle>
<circle clip-path="url(#clip962)" cx="1599.98" cy="804.96" r="14.4" fill="#ff0000" fill-rule="evenodd" fill-opacity="0.4" stroke="#000000" stroke-opacity="0.4" stroke-width="3.2"></circle>
<circle clip-path="url(#clip962)" cx="1945.29" cy="804.96" r="14.4" fill="#ff0000" fill-rule="evenodd" fill-opacity="0.4" stroke="#000000" stroke-opacity="0.4" stroke-width="3.2"></circle>
<circle clip-path="url(#clip962)" cx="2290.6" cy="804.96" r="14.4" fill="#ff0000" fill-rule="evenodd" fill-opacity="0.4" stroke="#000000" stroke-opacity="0.4" stroke-width="3.2"></circle>
<circle clip-path="url(#clip962)" cx="218.754" cy="590.656" r="14.4" fill="#ff0000" fill-rule="evenodd" fill-opacity="0.4" stroke="#000000" stroke-opacity="0.4" stroke-width="3.2"></circle>
<circle clip-path="url(#clip962)" cx="564.061" cy="590.656" r="14.4" fill="#ff0000" fill-rule="evenodd" fill-opacity="0.4" stroke="#000000" stroke-opacity="0.4" stroke-width="3.2"></circle>
<circle clip-path="url(#clip962)" cx="909.369" cy="590.656" r="14.4" fill="#ff0000" fill-rule="evenodd" fill-opacity="0.4" stroke="#000000" stroke-opacity="0.4" stroke-width="3.2"></circle>
<circle clip-path="url(#clip962)" cx="1254.68" cy="590.656" r="14.4" fill="#ff0000" fill-rule="evenodd" fill-opacity="0.4" stroke="#000000" stroke-opacity="0.4" stroke-width="3.2"></circle>
<circle clip-path="url(#clip962)" cx="1599.98" cy="590.656" r="14.4" fill="#ff0000" fill-rule="evenodd" fill-opacity="0.4" stroke="#000000" stroke-opacity="0.4" stroke-width="3.2"></circle>
<circle clip-path="url(#clip962)" cx="1945.29" cy="590.656" r="14.4" fill="#ff0000" fill-rule="evenodd" fill-opacity="0.4" stroke="#000000" stroke-opacity="0.4" stroke-width="3.2"></circle>
<circle clip-path="url(#clip962)" cx="2290.6" cy="590.656" r="14.4" fill="#ff0000" fill-rule="evenodd" fill-opacity="0.4" stroke="#000000" stroke-opacity="0.4" stroke-width="3.2"></circle>
<circle clip-path="url(#clip962)" cx="218.754" cy="376.351" r="14.4" fill="#ff0000" fill-rule="evenodd" fill-opacity="0.4" stroke="#000000" stroke-opacity="0.4" stroke-width="3.2"></circle>
<circle clip-path="url(#clip962)" cx="564.061" cy="376.351" r="14.4" fill="#ff0000" fill-rule="evenodd" fill-opacity="0.4" stroke="#000000" stroke-opacity="0.4" stroke-width="3.2"></circle>
<circle clip-path="url(#clip962)" cx="909.369" cy="376.351" r="14.4" fill="#ff0000" fill-rule="evenodd" fill-opacity="0.4" stroke="#000000" stroke-opacity="0.4" stroke-width="3.2"></circle>
<circle clip-path="url(#clip962)" cx="1254.68" cy="376.351" r="14.4" fill="#ff0000" fill-rule="evenodd" fill-opacity="0.4" stroke="#000000" stroke-opacity="0.4" stroke-width="3.2"></circle>
<circle clip-path="url(#clip962)" cx="1599.98" cy="376.351" r="14.4" fill="#ff0000" fill-rule="evenodd" fill-opacity="0.4" stroke="#000000" stroke-opacity="0.4" stroke-width="3.2"></circle>
<circle clip-path="url(#clip962)" cx="1945.29" cy="376.351" r="14.4" fill="#ff0000" fill-rule="evenodd" fill-opacity="0.4" stroke="#000000" stroke-opacity="0.4" stroke-width="3.2"></circle>
<circle clip-path="url(#clip962)" cx="2290.6" cy="376.351" r="14.4" fill="#ff0000" fill-rule="evenodd" fill-opacity="0.4" stroke="#000000" stroke-opacity="0.4" stroke-width="3.2"></circle>
<circle clip-path="url(#clip962)" cx="218.754" cy="162.047" r="14.4" fill="#ff0000" fill-rule="evenodd" fill-opacity="0.4" stroke="#000000" stroke-opacity="0.4" stroke-width="3.2"></circle>
<circle clip-path="url(#clip962)" cx="564.061" cy="162.047" r="14.4" fill="#ff0000" fill-rule="evenodd" fill-opacity="0.4" stroke="#000000" stroke-opacity="0.4" stroke-width="3.2"></circle>
<circle clip-path="url(#clip962)" cx="909.369" cy="162.047" r="14.4" fill="#ff0000" fill-rule="evenodd" fill-opacity="0.4" stroke="#000000" stroke-opacity="0.4" stroke-width="3.2"></circle>
<circle clip-path="url(#clip962)" cx="1254.68" cy="162.047" r="14.4" fill="#ff0000" fill-rule="evenodd" fill-opacity="0.4" stroke="#000000" stroke-opacity="0.4" stroke-width="3.2"></circle>
<circle clip-path="url(#clip962)" cx="1599.98" cy="162.047" r="14.4" fill="#ff0000" fill-rule="evenodd" fill-opacity="0.4" stroke="#000000" stroke-opacity="0.4" stroke-width="3.2"></circle>
<circle clip-path="url(#clip962)" cx="1945.29" cy="162.047" r="14.4" fill="#ff0000" fill-rule="evenodd" fill-opacity="0.4" stroke="#000000" stroke-opacity="0.4" stroke-width="3.2"></circle>
<circle clip-path="url(#clip962)" cx="2290.6" cy="162.047" r="14.4" fill="#ff0000" fill-rule="evenodd" fill-opacity="0.4" stroke="#000000" stroke-opacity="0.4" stroke-width="3.2"></circle>
<circle clip-path="url(#clip962)" cx="564.061" cy="1233.57" r="14.4" fill="#800080" fill-rule="evenodd" fill-opacity="1" stroke="#000000" stroke-opacity="1" stroke-width="3.2"></circle>
<circle clip-path="url(#clip962)" cx="1254.68" cy="1233.57" r="14.4" fill="#800080" fill-rule="evenodd" fill-opacity="1" stroke="#000000" stroke-opacity="1" stroke-width="3.2"></circle>
<circle clip-path="url(#clip962)" cx="1945.29" cy="1233.57" r="14.4" fill="#800080" fill-rule="evenodd" fill-opacity="1" stroke="#000000" stroke-opacity="1" stroke-width="3.2"></circle>
<circle clip-path="url(#clip962)" cx="564.061" cy="804.96" r="14.4" fill="#800080" fill-rule="evenodd" fill-opacity="1" stroke="#000000" stroke-opacity="1" stroke-width="3.2"></circle>
<circle clip-path="url(#clip962)" cx="1945.29" cy="804.96" r="14.4" fill="#800080" fill-rule="evenodd" fill-opacity="1" stroke="#000000" stroke-opacity="1" stroke-width="3.2"></circle>
<circle clip-path="url(#clip962)" cx="564.061" cy="376.351" r="14.4" fill="#800080" fill-rule="evenodd" fill-opacity="1" stroke="#000000" stroke-opacity="1" stroke-width="3.2"></circle>
<circle clip-path="url(#clip962)" cx="1254.68" cy="376.351" r="14.4" fill="#800080" fill-rule="evenodd" fill-opacity="1" stroke="#000000" stroke-opacity="1" stroke-width="3.2"></circle>
<circle clip-path="url(#clip962)" cx="1945.29" cy="376.351" r="14.4" fill="#800080" fill-rule="evenodd" fill-opacity="1" stroke="#000000" stroke-opacity="1" stroke-width="3.2"></circle>
<circle clip-path="url(#clip962)" cx="1254.68" cy="804.96" r="14.4" fill="#800080" fill-rule="evenodd" fill-opacity="1" stroke="#000000" stroke-opacity="1" stroke-width="3.2"></circle>
<path clip-path="url(#clip960)" d="M1563.85 324.425 L2279.55 324.425 L2279.55 168.905 L1563.85 168.905  Z" fill="#ffffff" fill-rule="evenodd" fill-opacity="1"></path>
<polyline clip-path="url(#clip960)" style="stroke:#000000; stroke-linecap:round; stroke-linejoin:round; stroke-width:4; stroke-opacity:1; fill:none" points="1563.85,324.425 2279.55,324.425 2279.55,168.905 1563.85,168.905 1563.85,324.425 "></polyline>
<circle clip-path="url(#clip960)" cx="1661.46" cy="220.745" r="20.48" fill="#ff0000" fill-rule="evenodd" fill-opacity="0.4" stroke="#000000" stroke-opacity="0.4" stroke-width="4.55111"></circle>
<path clip-path="url(#clip960)" d="M1759.06 203.465 L1778.92 203.465 L1778.92 207.4 L1763.74 207.4 L1763.74 217.585 L1777.44 217.585 L1777.44 221.52 L1763.74 221.52 L1763.74 238.025 L1759.06 238.025 L1759.06 203.465 Z" fill="#000000" fill-rule="nonzero" fill-opacity="1"></path><path clip-path="url(#clip960)" d="M1782.7 212.099 L1786.96 212.099 L1786.96 238.025 L1782.7 238.025 L1782.7 212.099 M1782.7 202.006 L1786.96 202.006 L1786.96 207.4 L1782.7 207.4 L1782.7 202.006 Z" fill="#000000" fill-rule="nonzero" fill-opacity="1"></path><path clip-path="url(#clip960)" d="M1817.42 222.377 L1817.42 238.025 L1813.16 238.025 L1813.16 222.515 Q1813.16 218.835 1811.73 217.006 Q1810.29 215.178 1807.42 215.178 Q1803.97 215.178 1801.98 217.377 Q1799.99 219.576 1799.99 223.372 L1799.99 238.025 L1795.71 238.025 L1795.71 212.099 L1799.99 212.099 L1799.99 216.127 Q1801.52 213.789 1803.58 212.631 Q1805.66 211.474 1808.37 211.474 Q1812.84 211.474 1815.13 214.252 Q1817.42 217.006 1817.42 222.377 Z" fill="#000000" fill-rule="nonzero" fill-opacity="1"></path><path clip-path="url(#clip960)" d="M1848.09 223.997 L1848.09 226.08 L1828.51 226.08 Q1828.79 230.478 1831.15 232.793 Q1833.53 235.085 1837.77 235.085 Q1840.22 235.085 1842.51 234.483 Q1844.83 233.881 1847.1 232.677 L1847.1 236.705 Q1844.8 237.677 1842.4 238.187 Q1839.99 238.696 1837.51 238.696 Q1831.31 238.696 1827.67 235.085 Q1824.06 231.474 1824.06 225.316 Q1824.06 218.951 1827.49 215.224 Q1830.94 211.474 1836.77 211.474 Q1842 211.474 1845.04 214.853 Q1848.09 218.21 1848.09 223.997 M1843.83 222.747 Q1843.79 219.252 1841.86 217.168 Q1839.97 215.085 1836.82 215.085 Q1833.25 215.085 1831.1 217.099 Q1828.97 219.113 1828.65 222.77 L1843.83 222.747 Z" fill="#000000" fill-rule="nonzero" fill-opacity="1"></path><path clip-path="url(#clip960)" d="M1893.9 233.094 L1893.9 223.812 L1886.26 223.812 L1886.26 219.969 L1898.53 219.969 L1898.53 234.807 Q1895.82 236.728 1892.56 237.724 Q1889.29 238.696 1885.59 238.696 Q1877.49 238.696 1872.91 233.974 Q1868.35 229.228 1868.35 220.779 Q1868.35 212.307 1872.91 207.585 Q1877.49 202.84 1885.59 202.84 Q1888.97 202.84 1892 203.673 Q1895.06 204.506 1897.63 206.127 L1897.63 211.103 Q1895.04 208.904 1892.12 207.793 Q1889.2 206.682 1885.98 206.682 Q1879.64 206.682 1876.45 210.224 Q1873.28 213.766 1873.28 220.779 Q1873.28 227.77 1876.45 231.312 Q1879.64 234.853 1885.98 234.853 Q1888.46 234.853 1890.41 234.437 Q1892.35 233.997 1893.9 233.094 Z" fill="#000000" fill-rule="nonzero" fill-opacity="1"></path><path clip-path="url(#clip960)" d="M1921.91 216.08 Q1921.19 215.664 1920.34 215.478 Q1919.5 215.27 1918.48 215.27 Q1914.87 215.27 1912.93 217.631 Q1911.01 219.969 1911.01 224.367 L1911.01 238.025 L1906.72 238.025 L1906.72 212.099 L1911.01 212.099 L1911.01 216.127 Q1912.35 213.766 1914.5 212.631 Q1916.66 211.474 1919.73 211.474 Q1920.17 211.474 1920.71 211.543 Q1921.24 211.59 1921.89 211.705 L1921.91 216.08 Z" fill="#000000" fill-rule="nonzero" fill-opacity="1"></path><path clip-path="url(#clip960)" d="M1926.38 212.099 L1930.64 212.099 L1930.64 238.025 L1926.38 238.025 L1926.38 212.099 M1926.38 202.006 L1930.64 202.006 L1930.64 207.4 L1926.38 207.4 L1926.38 202.006 Z" fill="#000000" fill-rule="nonzero" fill-opacity="1"></path><path clip-path="url(#clip960)" d="M1956.61 216.034 L1956.61 202.006 L1960.87 202.006 L1960.87 238.025 L1956.61 238.025 L1956.61 234.136 Q1955.27 236.451 1953.21 237.585 Q1951.17 238.696 1948.3 238.696 Q1943.6 238.696 1940.64 234.946 Q1937.7 231.196 1937.7 225.085 Q1937.7 218.974 1940.64 215.224 Q1943.6 211.474 1948.3 211.474 Q1951.17 211.474 1953.21 212.608 Q1955.27 213.719 1956.61 216.034 M1942.1 225.085 Q1942.1 229.784 1944.02 232.469 Q1945.96 235.131 1949.34 235.131 Q1952.72 235.131 1954.66 232.469 Q1956.61 229.784 1956.61 225.085 Q1956.61 220.386 1954.66 217.724 Q1952.72 215.039 1949.34 215.039 Q1945.96 215.039 1944.02 217.724 Q1942.1 220.386 1942.1 225.085 Z" fill="#000000" fill-rule="nonzero" fill-opacity="1"></path><path clip-path="url(#clip960)" d="M2005.61 204.599 L2005.61 209.159 Q2002.95 207.886 2000.59 207.261 Q1998.23 206.636 1996.03 206.636 Q1992.21 206.636 1990.13 208.117 Q1988.07 209.599 1988.07 212.33 Q1988.07 214.622 1989.43 215.803 Q1990.82 216.96 1994.66 217.678 L1997.49 218.256 Q2002.72 219.252 2005.2 221.775 Q2007.7 224.275 2007.7 228.488 Q2007.7 233.511 2004.32 236.103 Q2000.96 238.696 1994.46 238.696 Q1992 238.696 1989.22 238.14 Q1986.47 237.585 1983.51 236.497 L1983.51 231.682 Q1986.35 233.279 1989.09 234.089 Q1991.82 234.9 1994.46 234.9 Q1998.46 234.9 2000.64 233.326 Q2002.81 231.752 2002.81 228.835 Q2002.81 226.289 2001.24 224.853 Q1999.69 223.418 1996.12 222.701 L1993.28 222.145 Q1988.04 221.103 1985.71 218.881 Q1983.37 216.659 1983.37 212.701 Q1983.37 208.117 1986.59 205.479 Q1989.83 202.84 1995.5 202.84 Q1997.93 202.84 2000.45 203.279 Q2002.97 203.719 2005.61 204.599 Z" fill="#000000" fill-rule="nonzero" fill-opacity="1"></path><path clip-path="url(#clip960)" d="M2014.8 212.099 L2019.06 212.099 L2019.06 238.025 L2014.8 238.025 L2014.8 212.099 M2014.8 202.006 L2019.06 202.006 L2019.06 207.4 L2014.8 207.4 L2014.8 202.006 Z" fill="#000000" fill-rule="nonzero" fill-opacity="1"></path><path clip-path="url(#clip960)" d="M2048.16 217.076 Q2049.76 214.205 2051.98 212.84 Q2054.2 211.474 2057.21 211.474 Q2061.26 211.474 2063.46 214.321 Q2065.66 217.145 2065.66 222.377 L2065.66 238.025 L2061.38 238.025 L2061.38 222.515 Q2061.38 218.789 2060.06 216.983 Q2058.74 215.178 2056.03 215.178 Q2052.72 215.178 2050.8 217.377 Q2048.88 219.576 2048.88 223.372 L2048.88 238.025 L2044.59 238.025 L2044.59 222.515 Q2044.59 218.765 2043.28 216.983 Q2041.96 215.178 2039.2 215.178 Q2035.94 215.178 2034.02 217.4 Q2032.09 219.599 2032.09 223.372 L2032.09 238.025 L2027.81 238.025 L2027.81 212.099 L2032.09 212.099 L2032.09 216.127 Q2033.55 213.742 2035.59 212.608 Q2037.63 211.474 2040.43 211.474 Q2043.25 211.474 2045.22 212.909 Q2047.21 214.344 2048.16 217.076 Z" fill="#000000" fill-rule="nonzero" fill-opacity="1"></path><path clip-path="url(#clip960)" d="M2073.71 227.793 L2073.71 212.099 L2077.97 212.099 L2077.97 227.631 Q2077.97 231.312 2079.41 233.164 Q2080.84 234.992 2083.71 234.992 Q2087.16 234.992 2089.15 232.793 Q2091.17 230.594 2091.17 226.798 L2091.17 212.099 L2095.43 212.099 L2095.43 238.025 L2091.17 238.025 L2091.17 234.043 Q2089.62 236.404 2087.56 237.562 Q2085.52 238.696 2082.81 238.696 Q2078.34 238.696 2076.03 235.918 Q2073.71 233.14 2073.71 227.793 M2084.43 211.474 L2084.43 211.474 Z" fill="#000000" fill-rule="nonzero" fill-opacity="1"></path><path clip-path="url(#clip960)" d="M2104.2 202.006 L2108.46 202.006 L2108.46 238.025 L2104.2 238.025 L2104.2 202.006 Z" fill="#000000" fill-rule="nonzero" fill-opacity="1"></path><path clip-path="url(#clip960)" d="M2129.15 224.992 Q2123.99 224.992 2122 226.173 Q2120.01 227.353 2120.01 230.201 Q2120.01 232.469 2121.49 233.812 Q2123 235.131 2125.57 235.131 Q2129.11 235.131 2131.24 232.631 Q2133.39 230.108 2133.39 225.941 L2133.39 224.992 L2129.15 224.992 M2137.65 223.233 L2137.65 238.025 L2133.39 238.025 L2133.39 234.089 Q2131.93 236.451 2129.76 237.585 Q2127.58 238.696 2124.43 238.696 Q2120.45 238.696 2118.09 236.474 Q2115.75 234.228 2115.75 230.478 Q2115.75 226.103 2118.67 223.881 Q2121.61 221.659 2127.42 221.659 L2133.39 221.659 L2133.39 221.242 Q2133.39 218.303 2131.45 216.705 Q2129.52 215.085 2126.03 215.085 Q2123.81 215.085 2121.7 215.617 Q2119.59 216.15 2117.65 217.215 L2117.65 213.279 Q2119.99 212.377 2122.19 211.937 Q2124.39 211.474 2126.47 211.474 Q2132.09 211.474 2134.87 214.391 Q2137.65 217.307 2137.65 223.233 Z" fill="#000000" fill-rule="nonzero" fill-opacity="1"></path><path clip-path="url(#clip960)" d="M2150.64 204.738 L2150.64 212.099 L2159.41 212.099 L2159.41 215.409 L2150.64 215.409 L2150.64 229.483 Q2150.64 232.654 2151.49 233.557 Q2152.37 234.46 2155.03 234.46 L2159.41 234.46 L2159.41 238.025 L2155.03 238.025 Q2150.1 238.025 2148.23 236.196 Q2146.35 234.344 2146.35 229.483 L2146.35 215.409 L2143.23 215.409 L2143.23 212.099 L2146.35 212.099 L2146.35 204.738 L2150.64 204.738 Z" fill="#000000" fill-rule="nonzero" fill-opacity="1"></path><path clip-path="url(#clip960)" d="M2165.01 212.099 L2169.27 212.099 L2169.27 238.025 L2165.01 238.025 L2165.01 212.099 M2165.01 202.006 L2169.27 202.006 L2169.27 207.4 L2165.01 207.4 L2165.01 202.006 Z" fill="#000000" fill-rule="nonzero" fill-opacity="1"></path><path clip-path="url(#clip960)" d="M2188.23 215.085 Q2184.8 215.085 2182.81 217.77 Q2180.82 220.432 2180.82 225.085 Q2180.82 229.738 2182.79 232.423 Q2184.78 235.085 2188.23 235.085 Q2191.63 235.085 2193.62 232.4 Q2195.61 229.715 2195.61 225.085 Q2195.61 220.478 2193.62 217.793 Q2191.63 215.085 2188.23 215.085 M2188.23 211.474 Q2193.78 211.474 2196.95 215.085 Q2200.13 218.696 2200.13 225.085 Q2200.13 231.451 2196.95 235.085 Q2193.78 238.696 2188.23 238.696 Q2182.65 238.696 2179.48 235.085 Q2176.33 231.451 2176.33 225.085 Q2176.33 218.696 2179.48 215.085 Q2182.65 211.474 2188.23 211.474 Z" fill="#000000" fill-rule="nonzero" fill-opacity="1"></path><path clip-path="url(#clip960)" d="M2228.74 222.377 L2228.74 238.025 L2224.48 238.025 L2224.48 222.515 Q2224.48 218.835 2223.04 217.006 Q2221.61 215.178 2218.74 215.178 Q2215.29 215.178 2213.3 217.377 Q2211.31 219.576 2211.31 223.372 L2211.31 238.025 L2207.02 238.025 L2207.02 212.099 L2211.31 212.099 L2211.31 216.127 Q2212.83 213.789 2214.89 212.631 Q2216.98 211.474 2219.69 211.474 Q2224.15 211.474 2226.45 214.252 Q2228.74 217.006 2228.74 222.377 Z" fill="#000000" fill-rule="nonzero" fill-opacity="1"></path><path clip-path="url(#clip960)" d="M2253.76 212.863 L2253.76 216.891 Q2251.95 215.965 2250.01 215.502 Q2248.07 215.039 2245.98 215.039 Q2242.81 215.039 2241.21 216.011 Q2239.64 216.983 2239.64 218.928 Q2239.64 220.409 2240.77 221.265 Q2241.91 222.099 2245.33 222.863 L2246.79 223.187 Q2251.33 224.159 2253.23 225.941 Q2255.15 227.701 2255.15 230.872 Q2255.15 234.483 2252.28 236.589 Q2249.43 238.696 2244.43 238.696 Q2242.35 238.696 2240.08 238.279 Q2237.83 237.886 2235.33 237.076 L2235.33 232.677 Q2237.7 233.904 2239.99 234.529 Q2242.28 235.131 2244.52 235.131 Q2247.53 235.131 2249.15 234.113 Q2250.77 233.071 2250.77 231.196 Q2250.77 229.46 2249.59 228.534 Q2248.44 227.608 2244.48 226.752 L2243 226.404 Q2239.04 225.571 2237.28 223.858 Q2235.52 222.122 2235.52 219.113 Q2235.52 215.455 2238.11 213.465 Q2240.7 211.474 2245.47 211.474 Q2247.83 211.474 2249.92 211.821 Q2252 212.168 2253.76 212.863 Z" fill="#000000" fill-rule="nonzero" fill-opacity="1"></path><circle clip-path="url(#clip960)" cx="1661.46" cy="272.585" r="20.48" fill="#800080" fill-rule="evenodd" fill-opacity="1" stroke="#000000" stroke-opacity="1" stroke-width="4.55111"></circle>
<path clip-path="url(#clip960)" d="M1786.93 257.967 L1786.93 262.897 Q1784.57 260.698 1781.89 259.61 Q1779.23 258.522 1776.22 258.522 Q1770.29 258.522 1767.14 262.156 Q1763.99 265.768 1763.99 272.619 Q1763.99 279.448 1767.14 283.082 Q1770.29 286.693 1776.22 286.693 Q1779.23 286.693 1781.89 285.605 Q1784.57 284.517 1786.93 282.318 L1786.93 287.203 Q1784.48 288.869 1781.73 289.703 Q1778.99 290.536 1775.94 290.536 Q1768.09 290.536 1763.58 285.744 Q1759.06 280.93 1759.06 272.619 Q1759.06 264.286 1763.58 259.494 Q1768.09 254.68 1775.94 254.68 Q1779.04 254.68 1781.77 255.513 Q1784.53 256.323 1786.93 257.967 Z" fill="#000000" fill-rule="nonzero" fill-opacity="1"></path><path clip-path="url(#clip960)" d="M1804.02 266.925 Q1800.59 266.925 1798.6 269.61 Q1796.61 272.272 1796.61 276.925 Q1796.61 281.578 1798.58 284.263 Q1800.57 286.925 1804.02 286.925 Q1807.42 286.925 1809.41 284.24 Q1811.4 281.555 1811.4 276.925 Q1811.4 272.318 1809.41 269.633 Q1807.42 266.925 1804.02 266.925 M1804.02 263.314 Q1809.57 263.314 1812.74 266.925 Q1815.92 270.536 1815.92 276.925 Q1815.92 283.291 1812.74 286.925 Q1809.57 290.536 1804.02 290.536 Q1798.44 290.536 1795.27 286.925 Q1792.12 283.291 1792.12 276.925 Q1792.12 270.536 1795.27 266.925 Q1798.44 263.314 1804.02 263.314 Z" fill="#000000" fill-rule="nonzero" fill-opacity="1"></path><path clip-path="url(#clip960)" d="M1834.76 276.832 Q1829.6 276.832 1827.6 278.013 Q1825.61 279.193 1825.61 282.041 Q1825.61 284.309 1827.1 285.652 Q1828.6 286.971 1831.17 286.971 Q1834.71 286.971 1836.84 284.471 Q1838.99 281.948 1838.99 277.781 L1838.99 276.832 L1834.76 276.832 M1843.25 275.073 L1843.25 289.865 L1838.99 289.865 L1838.99 285.929 Q1837.54 288.291 1835.36 289.425 Q1833.18 290.536 1830.04 290.536 Q1826.05 290.536 1823.69 288.314 Q1821.35 286.068 1821.35 282.318 Q1821.35 277.943 1824.27 275.721 Q1827.21 273.499 1833.02 273.499 L1838.99 273.499 L1838.99 273.082 Q1838.99 270.143 1837.05 268.545 Q1835.13 266.925 1831.63 266.925 Q1829.41 266.925 1827.3 267.457 Q1825.2 267.99 1823.25 269.055 L1823.25 265.119 Q1825.59 264.217 1827.79 263.777 Q1829.99 263.314 1832.07 263.314 Q1837.7 263.314 1840.48 266.231 Q1843.25 269.147 1843.25 275.073 Z" fill="#000000" fill-rule="nonzero" fill-opacity="1"></path><path clip-path="url(#clip960)" d="M1867.05 267.92 Q1866.33 267.504 1865.48 267.318 Q1864.64 267.11 1863.62 267.11 Q1860.01 267.11 1858.07 269.471 Q1856.15 271.809 1856.15 276.207 L1856.15 289.865 L1851.86 289.865 L1851.86 263.939 L1856.15 263.939 L1856.15 267.967 Q1857.49 265.606 1859.64 264.471 Q1861.79 263.314 1864.87 263.314 Q1865.31 263.314 1865.85 263.383 Q1866.38 263.43 1867.03 263.545 L1867.05 267.92 Z" fill="#000000" fill-rule="nonzero" fill-opacity="1"></path><path clip-path="url(#clip960)" d="M1888.04 264.703 L1888.04 268.731 Q1886.24 267.805 1884.29 267.342 Q1882.35 266.879 1880.27 266.879 Q1877.1 266.879 1875.5 267.851 Q1873.92 268.823 1873.92 270.768 Q1873.92 272.249 1875.06 273.105 Q1876.19 273.939 1879.62 274.703 L1881.08 275.027 Q1885.61 275.999 1887.51 277.781 Q1889.43 279.541 1889.43 282.712 Q1889.43 286.323 1886.56 288.429 Q1883.72 290.536 1878.72 290.536 Q1876.63 290.536 1874.36 290.119 Q1872.12 289.726 1869.62 288.916 L1869.62 284.517 Q1871.98 285.744 1874.27 286.369 Q1876.56 286.971 1878.81 286.971 Q1881.82 286.971 1883.44 285.953 Q1885.06 284.911 1885.06 283.036 Q1885.06 281.3 1883.88 280.374 Q1882.72 279.448 1878.76 278.592 L1877.28 278.244 Q1873.32 277.411 1871.56 275.698 Q1869.8 273.962 1869.8 270.953 Q1869.8 267.295 1872.4 265.305 Q1874.99 263.314 1879.76 263.314 Q1882.12 263.314 1884.2 263.661 Q1886.29 264.008 1888.04 264.703 Z" fill="#000000" fill-rule="nonzero" fill-opacity="1"></path><path clip-path="url(#clip960)" d="M1918.39 275.837 L1918.39 277.92 L1898.81 277.92 Q1899.09 282.318 1901.45 284.633 Q1903.83 286.925 1908.07 286.925 Q1910.52 286.925 1912.81 286.323 Q1915.13 285.721 1917.4 284.517 L1917.4 288.545 Q1915.1 289.517 1912.7 290.027 Q1910.29 290.536 1907.81 290.536 Q1901.61 290.536 1897.97 286.925 Q1894.36 283.314 1894.36 277.156 Q1894.36 270.791 1897.79 267.064 Q1901.24 263.314 1907.07 263.314 Q1912.3 263.314 1915.34 266.693 Q1918.39 270.05 1918.39 275.837 M1914.13 274.587 Q1914.09 271.092 1912.16 269.008 Q1910.27 266.925 1907.12 266.925 Q1903.55 266.925 1901.4 268.939 Q1899.27 270.953 1898.95 274.61 L1914.13 274.587 Z" fill="#000000" fill-rule="nonzero" fill-opacity="1"></path><path clip-path="url(#clip960)" d="M1954.66 258.476 Q1949.57 258.476 1946.56 262.272 Q1943.58 266.068 1943.58 272.619 Q1943.58 279.147 1946.56 282.943 Q1949.57 286.74 1954.66 286.74 Q1959.76 286.74 1962.72 282.943 Q1965.71 279.147 1965.71 272.619 Q1965.71 266.068 1962.72 262.272 Q1959.76 258.476 1954.66 258.476 M1954.66 254.68 Q1961.93 254.68 1966.28 259.564 Q1970.64 264.425 1970.64 272.619 Q1970.64 280.791 1966.28 285.675 Q1961.93 290.536 1954.66 290.536 Q1947.37 290.536 1943 285.675 Q1938.65 280.814 1938.65 272.619 Q1938.65 264.425 1943 259.564 Q1947.37 254.68 1954.66 254.68 Z" fill="#000000" fill-rule="nonzero" fill-opacity="1"></path><path clip-path="url(#clip960)" d="M1996.38 276.925 Q1996.38 272.226 1994.43 269.564 Q1992.51 266.879 1989.13 266.879 Q1985.75 266.879 1983.81 269.564 Q1981.89 272.226 1981.89 276.925 Q1981.89 281.624 1983.81 284.309 Q1985.75 286.971 1989.13 286.971 Q1992.51 286.971 1994.43 284.309 Q1996.38 281.624 1996.38 276.925 M1981.89 267.874 Q1983.23 265.559 1985.27 264.448 Q1987.33 263.314 1990.17 263.314 Q1994.9 263.314 1997.84 267.064 Q2000.8 270.814 2000.8 276.925 Q2000.8 283.036 1997.84 286.786 Q1994.9 290.536 1990.17 290.536 Q1987.33 290.536 1985.27 289.425 Q1983.23 288.291 1981.89 285.976 L1981.89 289.865 L1977.6 289.865 L1977.6 253.846 L1981.89 253.846 L1981.89 267.874 Z" fill="#000000" fill-rule="nonzero" fill-opacity="1"></path><path clip-path="url(#clip960)" d="M2024.39 264.703 L2024.39 268.731 Q2022.58 267.805 2020.64 267.342 Q2018.69 266.879 2016.61 266.879 Q2013.44 266.879 2011.84 267.851 Q2010.27 268.823 2010.27 270.768 Q2010.27 272.249 2011.4 273.105 Q2012.53 273.939 2015.96 274.703 L2017.42 275.027 Q2021.96 275.999 2023.85 277.781 Q2025.78 279.541 2025.78 282.712 Q2025.78 286.323 2022.9 288.429 Q2020.06 290.536 2015.06 290.536 Q2012.97 290.536 2010.71 290.119 Q2008.46 289.726 2005.96 288.916 L2005.96 284.517 Q2008.32 285.744 2010.61 286.369 Q2012.9 286.971 2015.15 286.971 Q2018.16 286.971 2019.78 285.953 Q2021.4 284.911 2021.4 283.036 Q2021.4 281.3 2020.22 280.374 Q2019.06 279.448 2015.1 278.592 L2013.62 278.244 Q2009.66 277.411 2007.9 275.698 Q2006.15 273.962 2006.15 270.953 Q2006.15 267.295 2008.74 265.305 Q2011.33 263.314 2016.1 263.314 Q2018.46 263.314 2020.54 263.661 Q2022.63 264.008 2024.39 264.703 Z" fill="#000000" fill-rule="nonzero" fill-opacity="1"></path><path clip-path="url(#clip960)" d="M2054.73 275.837 L2054.73 277.92 L2035.15 277.92 Q2035.43 282.318 2037.79 284.633 Q2040.17 286.925 2044.41 286.925 Q2046.86 286.925 2049.15 286.323 Q2051.47 285.721 2053.74 284.517 L2053.74 288.545 Q2051.45 289.517 2049.04 290.027 Q2046.63 290.536 2044.15 290.536 Q2037.95 290.536 2034.32 286.925 Q2030.71 283.314 2030.71 277.156 Q2030.71 270.791 2034.13 267.064 Q2037.58 263.314 2043.41 263.314 Q2048.65 263.314 2051.68 266.693 Q2054.73 270.05 2054.73 275.837 M2050.47 274.587 Q2050.43 271.092 2048.51 269.008 Q2046.61 266.925 2043.46 266.925 Q2039.9 266.925 2037.74 268.939 Q2035.61 270.953 2035.29 274.61 L2050.47 274.587 Z" fill="#000000" fill-rule="nonzero" fill-opacity="1"></path><path clip-path="url(#clip960)" d="M2076.75 267.92 Q2076.03 267.504 2075.17 267.318 Q2074.34 267.11 2073.32 267.11 Q2069.71 267.11 2067.77 269.471 Q2065.84 271.809 2065.84 276.207 L2065.84 289.865 L2061.56 289.865 L2061.56 263.939 L2065.84 263.939 L2065.84 267.967 Q2067.19 265.606 2069.34 264.471 Q2071.49 263.314 2074.57 263.314 Q2075.01 263.314 2075.54 263.383 Q2076.08 263.43 2076.72 263.545 L2076.75 267.92 Z" fill="#000000" fill-rule="nonzero" fill-opacity="1"></path><path clip-path="url(#clip960)" d="M2078.16 263.939 L2082.67 263.939 L2090.77 285.698 L2098.88 263.939 L2103.39 263.939 L2093.67 289.865 L2087.88 289.865 L2078.16 263.939 Z" fill="#000000" fill-rule="nonzero" fill-opacity="1"></path><path clip-path="url(#clip960)" d="M2121.05 276.832 Q2115.89 276.832 2113.9 278.013 Q2111.91 279.193 2111.91 282.041 Q2111.91 284.309 2113.39 285.652 Q2114.9 286.971 2117.46 286.971 Q2121.01 286.971 2123.14 284.471 Q2125.29 281.948 2125.29 277.781 L2125.29 276.832 L2121.05 276.832 M2129.55 275.073 L2129.55 289.865 L2125.29 289.865 L2125.29 285.929 Q2123.83 288.291 2121.65 289.425 Q2119.48 290.536 2116.33 290.536 Q2112.35 290.536 2109.99 288.314 Q2107.65 286.068 2107.65 282.318 Q2107.65 277.943 2110.57 275.721 Q2113.51 273.499 2119.32 273.499 L2125.29 273.499 L2125.29 273.082 Q2125.29 270.143 2123.34 268.545 Q2121.42 266.925 2117.93 266.925 Q2115.71 266.925 2113.6 267.457 Q2111.49 267.99 2109.55 269.055 L2109.55 265.119 Q2111.89 264.217 2114.08 263.777 Q2116.28 263.314 2118.37 263.314 Q2123.99 263.314 2126.77 266.231 Q2129.55 269.147 2129.55 275.073 Z" fill="#000000" fill-rule="nonzero" fill-opacity="1"></path><path clip-path="url(#clip960)" d="M2142.53 256.578 L2142.53 263.939 L2151.31 263.939 L2151.31 267.249 L2142.53 267.249 L2142.53 281.323 Q2142.53 284.494 2143.39 285.397 Q2144.27 286.3 2146.93 286.3 L2151.31 286.3 L2151.31 289.865 L2146.93 289.865 Q2142 289.865 2140.13 288.036 Q2138.25 286.184 2138.25 281.323 L2138.25 267.249 L2135.13 267.249 L2135.13 263.939 L2138.25 263.939 L2138.25 256.578 L2142.53 256.578 Z" fill="#000000" fill-rule="nonzero" fill-opacity="1"></path><path clip-path="url(#clip960)" d="M2156.91 263.939 L2161.17 263.939 L2161.17 289.865 L2156.91 289.865 L2156.91 263.939 M2156.91 253.846 L2161.17 253.846 L2161.17 259.24 L2156.91 259.24 L2156.91 253.846 Z" fill="#000000" fill-rule="nonzero" fill-opacity="1"></path><path clip-path="url(#clip960)" d="M2180.13 266.925 Q2176.7 266.925 2174.71 269.61 Q2172.72 272.272 2172.72 276.925 Q2172.72 281.578 2174.69 284.263 Q2176.68 286.925 2180.13 286.925 Q2183.53 286.925 2185.52 284.24 Q2187.51 281.555 2187.51 276.925 Q2187.51 272.318 2185.52 269.633 Q2183.53 266.925 2180.13 266.925 M2180.13 263.314 Q2185.68 263.314 2188.85 266.925 Q2192.02 270.536 2192.02 276.925 Q2192.02 283.291 2188.85 286.925 Q2185.68 290.536 2180.13 290.536 Q2174.55 290.536 2171.38 286.925 Q2168.23 283.291 2168.23 276.925 Q2168.23 270.536 2171.38 266.925 Q2174.55 263.314 2180.13 263.314 Z" fill="#000000" fill-rule="nonzero" fill-opacity="1"></path><path clip-path="url(#clip960)" d="M2220.64 274.217 L2220.64 289.865 L2216.38 289.865 L2216.38 274.355 Q2216.38 270.675 2214.94 268.846 Q2213.51 267.018 2210.64 267.018 Q2207.19 267.018 2205.2 269.217 Q2203.2 271.416 2203.2 275.212 L2203.2 289.865 L2198.92 289.865 L2198.92 263.939 L2203.2 263.939 L2203.2 267.967 Q2204.73 265.629 2206.79 264.471 Q2208.88 263.314 2211.58 263.314 Q2216.05 263.314 2218.34 266.092 Q2220.64 268.846 2220.64 274.217 Z" fill="#000000" fill-rule="nonzero" fill-opacity="1"></path><path clip-path="url(#clip960)" d="M2245.66 264.703 L2245.66 268.731 Q2243.85 267.805 2241.91 267.342 Q2239.96 266.879 2237.88 266.879 Q2234.71 266.879 2233.11 267.851 Q2231.54 268.823 2231.54 270.768 Q2231.54 272.249 2232.67 273.105 Q2233.81 273.939 2237.23 274.703 L2238.69 275.027 Q2243.23 275.999 2245.13 277.781 Q2247.05 279.541 2247.05 282.712 Q2247.05 286.323 2244.18 288.429 Q2241.33 290.536 2236.33 290.536 Q2234.25 290.536 2231.98 290.119 Q2229.73 289.726 2227.23 288.916 L2227.23 284.517 Q2229.59 285.744 2231.89 286.369 Q2234.18 286.971 2236.42 286.971 Q2239.43 286.971 2241.05 285.953 Q2242.67 284.911 2242.67 283.036 Q2242.67 281.3 2241.49 280.374 Q2240.33 279.448 2236.38 278.592 L2234.89 278.244 Q2230.94 277.411 2229.18 275.698 Q2227.42 273.962 2227.42 270.953 Q2227.42 267.295 2230.01 265.305 Q2232.6 263.314 2237.37 263.314 Q2239.73 263.314 2241.82 263.661 Q2243.9 264.008 2245.66 264.703 Z" fill="#000000" fill-rule="nonzero" fill-opacity="1"></path></svg>